{
.appVersion = "1233";
copyright = "Copyright (c) 2019 ANRT. All rights reserved.";
customParameters = (
{
name = glyphOrder;
value = (
.notdef,
emspace,
enspace,
threeperemspace,
fourperemspace,
space,
thinspace,
hairspace,
A,
B,
C,
C,
D,
E,
F,
G,
H,
I,
J,
K,
K.alt,
L,
M,
N,
O,
P,
Q,
R,
S,
T,
U,
V,
W,
X,
Y,
Y.alt,
Y.alt2,
Z,
a,
b,
c,
ccedilla,
c_t,
d,
e,
f,
f_b,
f_f,
f_i,
f_l,
f_f_i,
f_f_l,
g,
h,
i,
j,
k,
l,
m,
n,
o,
p,
q,
r,
r_a,
r_o,
s,
t,
t_a,
t_i,
t_j,
t_t,
u,
v,
w,
x,
y,
z,
z.ss01,
zero,
one,
two,
three,
four,
five,
six,
seven,
eight,
nine,
ampersand,
parenleft,
parenright,
period,
colon,
comma,
semicolon,
question,
exclam,
hyphen,
quotesingle,
asterisk,
paragraph
);
},
{
name = "Use Typo Metrics";
value = 1;
},
{
name = vendorID;
value = ANRT;
},
{
name = unicodeRanges;
value = (
0
);
},
{
name = codePageRanges;
value = (
1252
);
},
{
name = openTypeOS2Type;
value = (
2
);
},
{
name = fsType;
value = (
2
);
},
{
name = description;
value = "Ptolemy, designed in Chelsea by St John Hornby, Sidney Cockerell and Emery Walker, cut in 18 pt by Edward Prince for Cervantes’ Don Quixote. Published by the Ashendene Press in 1927. The type used until 1935 is a revival of Lienhart Holl’s cut for Ptolemaeus’ Cosmographia printed in 1482 in Ulm.\012\012Type design workshop at HEAR Mulhouse, March 2015.\012\012Sources: Don Quixote, Cervantes, 1927 & Cosmographia, Ptolemaeus, 1482.\012\012Workshop participants: Jean-Luc Pinter, Aline Riou, Kyuyoun, Adrien Joufflineau, Lina Kahal, Marion Coudert, Sanchez Alix, Margaux Marques, Stéphanie Thiriet, Axel Bidault, Rafael Ribas, Louis Fouilleux, Caroline Amadei.\012\012Font designed and produced by Alexis Faudot and Rafael Ribas, directed by Jérôme Knebusch, Atelier National de Recherche Typographqiue (ANRT), Nancy.\012\012Copyright (c) 2019 ANRT. All rights reserved.";
},
{
name = licenseURL;
value = "https://opensource.org/licenses/OFL-1.1";
},
{
name = license;
value = "SIL OPEN FONT LICENSE (OFL 1.1)";
},
{

glyphs = (
{
color = 3;
glyphname = A;
lastChange = "2019-04-19 17:56:10 +0000";
layers = (
{
backgroundImage = {
crop = "{{24.279, 214.627}, {230.728, 311.164}}";
imagePath = "../../../../Desktop/SPECIMEN/glyphset jpeg/Ptolemy_glyphset/A_caps.png";
locked = "1";
transform = "{3.32642, 0, 0, 3.32642, -108, -909}";
};
layerId = UUID0;
paths = (
{
closed = 1;
nodes = (
"316 594 LINE",
"597 50 LINE",
"536 45 LINE",
"536 0 LINE",
"715 0 LINE",
"720 15 LINE",
"589 246 OFFCURVE",
"466 477 OFFCURVE",
"352 710 CURVE",
"327 710 LINE",
"0 15 LINE",
"5 0 LINE",
"146 0 LINE",
"146 45 LINE",
"72 50 LINE"
);
},
{
closed = 1;
nodes = (
"485 345 LINE",
"154 345 LINE",
"154 300 LINE",
"485 300 LINE"
);
}
);
width = 720;
},
{
associatedMasterId = UUID0;
hints = (
{
horizontal = 1;
place = "{0, 47}";
type = Stem;
},
{
horizontal = 1;
place = "{279, 47}";
type = Stem;
},
{
horizontal = 1;
place = "{700, -20}";
target = down;
type = TopGhost;
}
);
layerId = "AA9974C3-5D83-457E-AEE9-E6E8EB8BF6EB";
name = "Oct 4 18, 12:29";
paths = (
{
closed = 1;
nodes = (
"13 0 LINE",
"148 0 LINE",
"148 47 LINE",
"80 47 LINE",
"183 279 LINE",
"473 279 LINE",
"586 47 LINE",
"512 47 LINE",
"512 0 LINE",
"686 0 LINE",
"695 21 LINE",
"354 700 LINE",
"319 700 LINE",
"6 13 LINE"
);
},
{
closed = 1;
nodes = (
"204 326 LINE",
"325 586 LINE",
"450 326 LINE"
);
}
);
width = 693;
}
);
unicode = 0041;
},
{
color = 3;
glyphname = B;
lastChange = "2019-04-19 17:56:10 +0000";
layers = (
{
backgroundImage = {
crop = "{{33.486, 160.384}, {172.147, 271.721}}";
imagePath = "../../../../Desktop/SPECIMEN/glyphset jpeg/Ptolemy_glyphset/B_caps.png";
locked = "1";
transform = "{3.96969, 0, 0, 3.96969, -176, -817}";
};
layerId = UUID0;
paths = (
{
closed = 1;
nodes = (
"185 700 OFFCURVE",
"214 705 OFFCURVE",
"302 705 CURVE SMOOTH",
"421 705 OFFCURVE",
"507 627 OFFCURVE",
"507 537 CURVE SMOOTH",
"507 442 OFFCURVE",
"405 389 OFFCURVE",
"365 384 CURVE",
"373 398 LINE",
"501 388 OFFCURVE",
"597 328 OFFCURVE",
"597 200 CURVE SMOOTH",
"597 95 OFFCURVE",
"511 0 OFFCURVE",
"303 0 CURVE SMOOTH",
"44 0 LINE",
"44 45 LINE",
"93 50 LINE",
"93 650 LINE",
"40 655 LINE",
"40 700 LINE",
"125 700 LINE"
);
},
{
closed = 1;
nodes = (
"178 354 LINE",
"178 50 LINE",
"319 50 LINE SMOOTH",
"444 50 OFFCURVE",
"507 97 OFFCURVE",
"507 194 CURVE SMOOTH",
"507 311 OFFCURVE",
"425 354 OFFCURVE",
"288 354 CURVE SMOOTH"
);
},
{
closed = 1;
nodes = (
"178 399 LINE",
"241 399 LINE SMOOTH",
"358 399 OFFCURVE",
"417 447 OFFCURVE",
"417 530 CURVE SMOOTH",
"417 613 OFFCURVE",
"373 659 OFFCURVE",
"266 659 CURVE SMOOTH",
"237 659 OFFCURVE",
"207 658 OFFCURVE",
"178 654 CURVE"
);
}
);
width = 627;
},
{
associatedMasterId = UUID0;
hints = (
{
place = "{84, 80}";
type = Stem;
},
{
place = "{413, 93}";
type = Stem;
},
{
place = "{505, 93}";
type = Stem;
},
{
horizontal = 1;
place = "{0, 47}";
type = Stem;
},
{
horizontal = 1;
place = "{352, 46}";
type = Stem;
},
{
horizontal = 1;
place = "{655, 50}";
type = Stem;
}
);
layerId = "5A904DFA-851D-46EA-8FB7-DDC982287270";
name = "Oct 4 18, 12:29";
paths = (
{
closed = 1;
nodes = (
"206 695 OFFCURVE",
"275 705 OFFCURVE",
"323 705 CURVE SMOOTH",
"422 705 OFFCURVE",
"506 634 OFFCURVE",
"506 537 CURVE SMOOTH",
"506 432 OFFCURVE",
"402 398 OFFCURVE",
"402 398 CURVE",
"509 389 OFFCURVE",
"598 328 OFFCURVE",
"598 211 CURVE SMOOTH",
"598 95 OFFCURVE",
"515 0 OFFCURVE",
"357 0 CURVE SMOOTH",
"15 0 LINE",
"15 47 LINE",
"85 47 LINE",
"84 650 LINE",
"84 650 OFFCURVE",
"69 651 OFFCURVE",
"48 653 CURVE SMOOTH",
"29 655 OFFCURVE",
"12 658 OFFCURVE",
"12 658 CURVE",
"12 658 OFFCURVE",
"12 704 OFFCURVE",
"11 701 CURVE",
"11 701 OFFCURVE",
"61 695 OFFCURVE",
"116 695 CURVE SMOOTH"
);
},
{
closed = 1;
nodes = (
"165 351 LINE",
"164 47 LINE",
"353 47 LINE SMOOTH",
"448 47 OFFCURVE",
"505 117 OFFCURVE",
"505 204 CURVE SMOOTH",
"505 292 OFFCURVE",
"446 355 OFFCURVE",
"349 354 CURVE SMOOTH"
);
},
{
closed = 1;
nodes = (
"166 398 LINE",
"282 398 LINE",
"359 400 OFFCURVE",
"413 457 OFFCURVE",
"413 530 CURVE SMOOTH",
"413 613 OFFCURVE",
"354 657 OFFCURVE",
"257 655 CURVE SMOOTH",
"204 654 OFFCURVE",
"169 651 OFFCURVE",
"169 651 CURVE"
);
}
);
width = 623;
}
);
unicode = 0042;
},
{
color = 3;
glyphname = C;
lastChange = "2019-04-19 17:56:10 +0000";
layers = (
{
backgroundImage = {
crop = "{{0, 0}, {844.907, 1178}}";
imagePath = "C copie.png";
locked = "1";
transform = "{0.726, 0, 0, 0.726, 23, -115}";
};
layerId = UUID0;
paths = (
{
closed = 1;
nodes = (
"561 545 LINE",
"608 545 LINE",
"608 661 LINE",
"557 696 OFFCURVE",
"503 710 OFFCURVE",
"435 710 CURVE SMOOTH",
"225 710 OFFCURVE",
"50 565 OFFCURVE",
"50 355 CURVE SMOOTH",
"50 135 OFFCURVE",
"200 -10 OFFCURVE",
"420 -10 CURVE SMOOTH",
"492 -10 OFFCURVE",
"563 12 OFFCURVE",
"616 47 CURVE",
"615 86 OFFCURVE",
"617 124 OFFCURVE",
"619 163 CURVE",
"572 163 LINE",
"565 96 LINE",
"532 63 OFFCURVE",
"479 40 OFFCURVE",
"420 40 CURVE SMOOTH",
"260 40 OFFCURVE",
"145 175 OFFCURVE",
"145 355 CURVE SMOOTH",
"145 535 OFFCURVE",
"255 662 OFFCURVE",
"435 662 CURVE SMOOTH",
"478 662 OFFCURVE",
"536 652 OFFCURVE",
"557 612 CURVE"
);
}
);
width = 656;
},
{
associatedMasterId = UUID0;
hints = (
{
place = "{23, 94}";
type = Stem;
},
{
place = "{532, 53}";
type = Stem;
},
{
horizontal = 1;
place = "{-10, 52}";
type = Stem;
},
{
horizontal = 1;
place = "{660, 52}";
type = Stem;
}
);
layerId = "68428C50-6603-4609-829A-3449263DC50C";
name = "Oct 4 18, 12:29";
paths = (
{
closed = 1;
nodes = (
"532 545 LINE",
"585 545 LINE",
"585 661 LINE",
"534 690 OFFCURVE",
"462 712 OFFCURVE",
"404 712 CURVE SMOOTH",
"189 712 OFFCURVE",
"23 555 OFFCURVE",
"23 339 CURVE SMOOTH",
"23 126 OFFCURVE",
"196 -10 OFFCURVE",
"388 -10 CURVE SMOOTH",
"450 -10 OFFCURVE",
"533 12 OFFCURVE",
"586 47 CURVE",
"585 163 LINE",
"532 163 LINE",
"532 96 LINE",
"533 96 LINE",
"499 63 OFFCURVE",
"442 42 OFFCURVE",
"396 42 CURVE SMOOTH",
"231 42 OFFCURVE",
"117 187 OFFCURVE",
"117 347 CURVE SMOOTH",
"117 527 OFFCURVE",
"227 660 OFFCURVE",
"414 660 CURVE SMOOTH",
"447 660 OFFCURVE",
"511 647 OFFCURVE",
"532 612 CURVE"
);
}
);
width = 613;
}
);
leftMetricsKey = O;
unicode = 0043;
},
{
color = 3;
glyphname = D;
lastChange = "2019-04-19 17:56:10 +0000";
layers = (
{
backgroundImage = {
crop = "{{0, 0}, {667, 725}}";
imagePath = "D copie.png";
locked = "1";
transform = "{1.185, 0, 0, 1.185, -32, -84}";
};
layerId = UUID0;
paths = (
{
closed = 1;
nodes = (
"546 704 OFFCURVE",
"715 559 OFFCURVE",
"715 349 CURVE SMOOTH",
"715 124 OFFCURVE",
"547 -3 OFFCURVE",
"302 -3 CURVE SMOOTH",
"245 -3 OFFCURVE",
"147 -1 OFFCURVE",
"40 -1 CURVE",
"40 44 LINE",
"100 49 LINE",
"104 251 OFFCURVE",
"104 453 OFFCURVE",
"100 655 CURVE",
"45 660 LINE",
"45 705 LINE",
"77 702 OFFCURVE",
"125 700 OFFCURVE",
"166 700 CURVE SMOOTH",
"210 700 OFFCURVE",
"261 704 OFFCURVE",
"316 704 CURVE SMOOTH"
);
},
{
closed = 1;
nodes = (
"186 455 OFFCURVE",
"186 251 OFFCURVE",
"190 47 CURVE",
"302 47 LINE SMOOTH",
"515 47 OFFCURVE",
"620 169 OFFCURVE",
"620 349 CURVE SMOOTH",
"620 549 OFFCURVE",
"506 659 OFFCURVE",
"306 659 CURVE SMOOTH",
"190 659 LINE"
);
}
);
width = 765;
},
{
associatedMasterId = UUID0;
hints = (
{
place = "{97, 85}";
type = Stem;
},
{
place = "{609, 95}";
type = Stem;
},
{
horizontal = 1;
place = "{-3, 47}";
type = Stem;
},
{
horizontal = 1;
place = "{659, 45}";
type = Stem;
},
{
horizontal = 1;
place = "{709, -20}";
target = down;
type = TopGhost;
}
);
layerId = "EFCA93AD-01C7-460C-89F9-F28CBF71B30D";
name = "Oct 4 18, 12:29";
paths = (
{
closed = 1;
nodes = (
"553 704 OFFCURVE",
"704 573 OFFCURVE",
"704 336 CURVE SMOOTH",
"704 121 OFFCURVE",
"556 -3 OFFCURVE",
"349 -3 CURVE SMOOTH",
"242 -3 OFFCURVE",
"134 -2 OFFCURVE",
"27 -1 CURVE",
"27 44 LINE",
"97 44 LINE",
"97 660 LINE",
"36 662 LINE",
"36 709 LINE",
"133 698 OFFCURVE",
"226 704 OFFCURVE",
"323 704 CURVE SMOOTH"
);
},
{
closed = 1;
nodes = (
"182 659 LINE",
"182 44 LINE",
"349 44 LINE SMOOTH",
"532 44 OFFCURVE",
"609 177 OFFCURVE",
"609 339 CURVE SMOOTH",
"609 537 OFFCURVE",
"525 659 OFFCURVE",
"323 659 CURVE SMOOTH",
"182 659 LINE"
);
}
);
width = 733;
}
);
rightMetricsKey = O;
unicode = 0044;
},
{
color = 3;
glyphname = E;
lastChange = "2019-04-19 17:56:10 +0000";
layers = (
{
backgroundImage = {
crop = "{{26.517, 0}, {710.441, 918.153}}";
imagePath = "E copie.png";
locked = "1";
transform = "{0.905, 0, 0, 0.905, -32, -91}";
};
layerId = UUID0;
paths = (
{
closed = 1;
nodes = (
"479 450 LINE",
"439 450 LINE",
"436 390 LINE",
"188 390 LINE",
"188 646 LINE",
"515 646 LINE",
"520 566 LINE",
"560 566 LINE",
"560 701 LINE",
"46 701 LINE",
"46 656 LINE",
"101 651 LINE",
"104 447 OFFCURVE",
"104 254 OFFCURVE",
"101 50 CURVE",
"40 45 LINE",
"40 0 LINE",
"587 0 LINE",
"587 134 LINE",
"547 134 LINE",
"543 65 LINE",
"188 65 LINE",
"188 335 LINE",
"434 335 LINE",
"433 268 LINE",
"479 268 LINE"
);
}
);
width = 617;
},
{
associatedMasterId = UUID0;
hints = (
{
place = "{120, 85}";
type = Stem;
},
{
place = "{439, 47}";
type = Stem;
},
{
place = "{521, 47}";
type = Stem;
},
{
place = "{547, 48}";
type = Stem;
},
{
horizontal = 1;
place = "{0, 46}";
type = Stem;
},
{
horizontal = 1;
place = "{323, 65}";
type = Stem;
},
{
horizontal = 1;
place = "{636, 65}";
type = Stem;
},
{
horizontal = 1;
place = "{654, 47}";
type = Stem;
},
{
horizontal = 1;
place = "{0, 64}";
type = Stem;
},
{
horizontal = 1;
place = "{-1, 21}";
target = up;
type = BottomGhost;
}
);
layerId = "4C479577-F9F0-43E8-A2E3-DA3ECA1B9B45";
name = "Oct 4 18, 12:29";
paths = (
{
closed = 1;
nodes = (
"486 442 LINE",
"486 442 LINE",
"439 443 LINE",
"439 388 LINE",
"205 388 LINE",
"205 636 LINE",
"521 636 LINE",
"521 566 LINE",
"568 566 LINE",
"568 701 LINE",
"51 701 LINE",
"51 654 LINE",
"120 654 LINE",
"120 46 LINE",
"50 46 LINE",
"50 -1 LINE",
"595 0 LINE",
"595 134 LINE",
"548 134 LINE",
"547 64 LINE",
"205 64 LINE",
"205 323 LINE",
"439 323 LINE",
"439 268 LINE",
"486 268 LINE"
);
}
);
width = 643;
}
);
unicode = 0045;
},
{
color = 3;
glyphname = F;
lastChange = "2019-04-19 17:56:10 +0000";
layers = (
{
backgroundImage = {
crop = "{{9.726, 0}, {576.742, 818.916}}";
imagePath = "F copie.png";
locked = "1";
transform = "{1.028, 0, 0, 1.028, -19, -102}";
};
layerId = UUID0;
paths = (
{
closed = 1;
nodes = (
"40 655 LINE",
"40 700 LINE",
"558 700 LINE",
"559 557 LINE",
"512 557 LINE",
"507 640 LINE",
"180 640 LINE",
"180 390 LINE",
"410 390 LINE",
"416 450 LINE",
"464 450 LINE",
"464 265 LINE",
"417 265 LINE",
"411 330 LINE",
"180 330 LINE",
"180 50 LINE",
"285 45 LINE",
"285 0 LINE",
"50 0 LINE",
"50 45 LINE",
"95 50 LINE",
"98 250 OFFCURVE",
"98 450 OFFCURVE",
"95 650 CURVE"
);
}
);
width = 564;
},
{
associatedMasterId = UUID0;
hints = (
{
place = "{109, 85}";
type = Stem;
},
{
place = "{425, 48}";
type = Stem;
},
{
place = "{501, 46}";
type = Stem;
},
{
horizontal = 1;
place = "{396, 234}";
type = Stem;
},
{
horizontal = 1;
place = "{654, 46}";
type = Stem;
},
{
horizontal = 1;
place = "{0, 21}";
target = up;
type = BottomGhost;
},
{
horizontal = 1;
place = "{450, 21}";
target = up;
type = BottomGhost;
}
);
layerId = "24A5C515-32EF-4F2A-8304-D9907DD8EDC2";
name = "Oct 4 18, 12:29";
paths = (
{
closed = 1;
nodes = (
"49 654 LINE",
"49 700 LINE",
"547 700 LINE",
"548 557 LINE",
"501 557 LINE",
"501 630 LINE",
"194 630 LINE",
"194 397 LINE",
"425 396 LINE",
"425 450 LINE",
"425 450 OFFCURVE",
"476 450 OFFCURVE",
"473 450 CURVE",
"473 279 LINE",
"426 279 LINE",
"426 330 LINE",
"426 330 OFFCURVE",
"193 330 OFFCURVE",
"194 330 CURVE SMOOTH",
"195 330 OFFCURVE",
"194 47 OFFCURVE",
"194 47 CURVE",
"264 47 LINE",
"264 0 LINE",
"264 0 OFFCURVE",
"60 0 OFFCURVE",
"59 0 CURVE",
"59 47 LINE",
"109 47 LINE",
"109 654 LINE"
);
}
);
width = 553;
}
);
unicode = 0046;
},
{
color = 3;
glyphname = G;
lastChange = "2019-04-19 17:56:10 +0000";
layers = (
{
backgroundImage = {
crop = "{{36.678, 151.794}, {185.159, 263.061}}";
imagePath = "../../../../Desktop/SPECIMEN/glyphset jpeg/Ptolemy_glyphset/G_caps.png";
locked = "1";
transform = "{3.95767, 0, 0, 3.95767, -184, -804}";
};
layerId = UUID0;
paths = (
{
closed = 1;
nodes = (
"198 -10 OFFCURVE",
"50 140 OFFCURVE",
"50 350 CURVE SMOOTH",
"50 560 OFFCURVE",
"233 710 OFFCURVE",
"453 710 CURVE SMOOTH",
"538 710 OFFCURVE",
"590 691 OFFCURVE",
"629 669 CURVE",
"629 564 LINE",
"585 564 LINE",
"580 622 LINE",
"549 651 OFFCURVE",
"505 665 OFFCURVE",
"453 665 CURVE SMOOTH",
"273 665 OFFCURVE",
"145 530 OFFCURVE",
"145 350 CURVE SMOOTH",
"145 170 OFFCURVE",
"253 40 OFFCURVE",
"423 40 CURVE SMOOTH",
"472 40 OFFCURVE",
"530 53 OFFCURVE",
"552 69 CURVE",
"557 348 LINE",
"463 345 LINE",
"463 390 LINE",
"637 390 LINE",
"637 31 LINE",
"602 16 OFFCURVE",
"498 -10 OFFCURVE",
"423 -10 CURVE SMOOTH"
);
}
);
width = 687;
},
{
associatedMasterId = UUID0;
hints = (
{
place = "{37, 91}";
type = Stem;
},
{
place = "{529, 84}";
type = Stem;
},
{
horizontal = 1;
place = "{-10, 46}";
type = Stem;
},
{
horizontal = 1;
place = "{336, 42}";
type = Stem;
},
{
horizontal = 1;
place = "{663, 47}";
type = Stem;
}
);
layerId = "4C3E51C3-66AF-4801-AFCF-B9E70E83D855";
name = "Oct 4 18, 12:29";
paths = (
{
closed = 1;
nodes = (
"195 -10 OFFCURVE",
"37 153 OFFCURVE",
"37 357 CURVE SMOOTH",
"37 559 OFFCURVE",
"226 710 OFFCURVE",
"410 710 CURVE SMOOTH",
"525 710 OFFCURVE",
"565 691 OFFCURVE",
"606 669 CURVE SMOOTH",
"606 555 LINE",
"556 555 LINE",
"556 614 LINE SMOOTH",
"556 614 OFFCURVE",
"524 663 OFFCURVE",
"410 663 CURVE SMOOTH",
"262 663 OFFCURVE",
"128 530 OFFCURVE",
"128 357 CURVE SMOOTH",
"128 195 OFFCURVE",
"231 36 OFFCURVE",
"410 36 CURVE SMOOTH",
"480 36 OFFCURVE",
"529 76 OFFCURVE",
"529 76 CURVE SMOOTH",
"529 336 LINE",
"440 336 LINE",
"440 378 LINE",
"613 378 LINE",
"613 31 LINE SMOOTH",
"613 31 OFFCURVE",
"531 -10 OFFCURVE",
"410 -10 CURVE SMOOTH"
);
}
);
width = 673;
}
);
leftMetricsKey = O;
unicode = 0047;
},
{
color = 3;
glyphname = H;
lastChange = "2019-04-19 17:56:10 +0000";
layers = (
{
layerId = UUID0;
paths = (
{
closed = 1;
nodes = (
"551 700 LINE",
"551 655 LINE",
"611 650 LINE",
"611 384 LINE",
"170 384 LINE",
"170 652 LINE",
"230 657 LINE",
"230 700 LINE",
"80 700 LINE",
"87 467 OFFCURVE",
"87 233 OFFCURVE",
"80 0 CURVE",
"240 0 LINE",
"240 45 LINE",
"170 50 LINE",
"170 334 LINE",
"611 334 LINE",
"611 50 LINE",
"541 45 LINE",
"541 0 LINE",
"701 0 LINE",
"694 233 OFFCURVE",
"694 467 OFFCURVE",
"701 700 CURVE"
);
}
);
width = 781;
},
{
associatedMasterId = UUID0;
hints = (
{
place = "{73, 85}";
type = Stem;
},
{
place = "{545, 131}";
type = Stem;
},
{
place = "{591, 85}";
type = Stem;
},
{
place = "{73, 135}";
type = Stem;
},
{
horizontal = 1;
place = "{0, 47}";
type = Stem;
},
{
horizontal = 1;
place = "{325, 64}";
type = Stem;
},
{
horizontal = 1;
place = "{651, 47}";
type = Stem;
}
);
layerId = "26A13DDE-B305-433E-B812-216EBBF827D8";
name = "Oct 4 18, 12:29";
paths = (
{
closed = 1;
nodes = (
"545 696 LINE",
"545 649 LINE",
"591 649 LINE",
"591 389 LINE",
"158 389 LINE",
"158 651 LINE",
"208 651 LINE",
"208 698 LINE",
"73 698 LINE",
"73 0 LINE",
"208 0 LINE",
"208 47 LINE",
"158 47 LINE",
"158 326 LINE",
"591 324 LINE",
"591 47 LINE",
"536 47 LINE",
"536 0 LINE",
"676 0 LINE",
"676 696 LINE"
);
}
);
width = 753;
}
);
unicode = 0048;
},
{
color = 3;
glyphname = I;
lastChange = "2019-04-19 17:56:10 +0000";
layers = (
{
backgroundImage = {
crop = "{{0, 0}, {398.792, 1030.301}}";
imagePath = "I copie.png";
locked = "1";
transform = "{0.785, 0, 0, 0.785, -7, -69}";
};
layerId = UUID0;
paths = (
{
closed = 1;
nodes = (
"195 50 LINE",
"192 250 OFFCURVE",
"192 450 OFFCURVE",
"195 650 CURVE",
"265 655 LINE",
"265 700 LINE",
"40 700 LINE",
"40 655 LINE",
"110 650 LINE",
"113 450 OFFCURVE",
"113 251 OFFCURVE",
"110 51 CURVE",
"40 45 LINE",
"40 0 LINE",
"280 0 LINE",
"280 45 LINE"
);
}
);
width = 320;
},
{
associatedMasterId = UUID0;
hints = (
{
place = "{46, 222}";
type = Stem;
},
{
place = "{117, 80}";
type = Stem;
},
{
horizontal = 1;
place = "{0, 46}";
type = Stem;
},
{
horizontal = 1;
place = "{654, 46}";
type = Stem;
}
);
layerId = "CD87E0C8-48C7-4F72-AC9F-97EA8DDB7BEC";
name = "Oct 4 18, 12:29";
paths = (
{
closed = 1;
nodes = (
"197 46 LINE",
"197 654 LINE",
"268 654 LINE",
"268 700 LINE",
"46 700 LINE",
"46 654 LINE",
"117 654 LINE",
"117 46 LINE",
"46 46 LINE",
"46 0 LINE",
"268 0 LINE",
"268 46 LINE"
);
}
);
width = 313;
}
);
unicode = 0049;
},
{
color = 3;
glyphname = J;
lastChange = "2019-04-19 17:56:10 +0000";
layers = (
{
backgroundImage = {
crop = "{{34.62, 49.786}, {45.603, 132.236}}";
imagePath = "../../../../Desktop/SPECIMEN/glyphset jpeg/Ptolemy_glyphset/J_caps.png";
locked = "1";
transform = "{10.34938, 0, 0, 10.34938, -500, -1016}";
};
layerId = UUID0;
paths = (
{
closed = 1;
nodes = (
"48 700 LINE",
"48 655 LINE",
"120 649 LINE",
"124 474 OFFCURVE",
"129 238 OFFCURVE",
"125 33 CURVE SMOOTH",
"123 -92 OFFCURVE",
"60 -136 OFFCURVE",
"-70 -224 CURVE",
"-49 -261 LINE",
"124 -163 OFFCURVE",
"209 -122 OFFCURVE",
"208 42 CURVE SMOOTH",
"206 284 OFFCURVE",
"206 489 OFFCURVE",
"209 649 CURVE",
"275 655 LINE",
"275 700 LINE"
);
}
);
width = 292;
},
{
associatedMasterId = UUID0;
hints = (
{
place = "{117, 85}";
type = Stem;
},
{
horizontal = 1;
place = "{653, 47}";
type = Stem;
},
{
horizontal = 1;
place = "{-221, 21}";
target = up;
type = BottomGhost;
}
);
layerId = "EE0B2F8F-4A60-45AA-BD76-83CB35CB13E0";
name = "Oct 4 18, 12:29";
paths = (
{
closed = 1;
nodes = (
"45 700 LINE",
"45 653 LINE",
"117 653 LINE",
"117 653 OFFCURVE",
"117 250 OFFCURVE",
"117 133 CURVE SMOOTH",
"117 -42 OFFCURVE",
"-53 -189 OFFCURVE",
"-94 -208 CURVE",
"-94 -221 LINE",
"-66 -221 OFFCURVE",
"202 -92 OFFCURVE",
"202 132 CURVE SMOOTH",
"202 296 OFFCURVE",
"202 700 OFFCURVE",
"202 700 CURVE"
);
}
);
width = 289;
}
);
unicode = 004A;
},
{
color = 3;
glyphname = K;
lastChange = "2019-04-19 17:56:10 +0000";
layers = (
{
backgroundImage = {
crop = "{{29.036, 152.481}, {211.308, 274.008}}";
imagePath = "../../../../Desktop/SPECIMEN/glyphset jpeg/Ptolemy_glyphset/K_caps.png";
locked = "1";
transform = "{3.86839, 0, 0, 3.86839, -124.132, -774.94}";
};
layerId = UUID0;
paths = (
{
closed = 1;
nodes = (
"428 557 LINE",
"428 602 LINE",
"659 602 LINE",
"659 557 LINE",
"620 554 LINE SMOOTH",
"605 553 OFFCURVE",
"594 544 OFFCURVE",
"579 531 CURVE SMOOTH",
"340 326 LINE",
"437 259 OFFCURVE",
"536 177 OFFCURVE",
"637 78 CURVE",
"678 108 LINE",
"703 81 LINE",
"670 53 OFFCURVE",
"637 22 OFFCURVE",
"602 -10 CURVE",
"598 -9 LINE",
"488 114 OFFCURVE",
"363 220 OFFCURVE",
"234 302 CURVE",
"231 300 LINE",
"231 50 LINE",
"333 45 LINE",
"333 0 LINE",
"43 0 LINE",
"43 45 LINE",
"151 50 LINE",
"151 262 LINE",
"64 230 LINE",
"54 262 LINE",
"151 298 LINE",
"151 670 LINE",
"45 620 LINE",
"30 651 LINE",
"95 685 OFFCURVE",
"156 722 OFFCURVE",
"220 760 CURVE",
"235 753 LINE",
"231 624 OFFCURVE",
"231 446 OFFCURVE",
"231 317 CURVE",
"232 316 LINE",
"508 552 LINE"
);
}
);
width = 703;
},
{
associatedMasterId = UUID0;
hints = (
{
place = "{18, 174}";
type = Stem;
},
{
place = "{107, 85}";
type = Stem;
},
{
horizontal = 1;
place = "{3, 48}";
type = Stem;
},
{
horizontal = 1;
place = "{335, 43}";
type = Stem;
},
{
horizontal = 1;
place = "{631, 56}";
type = Stem;
},
{
horizontal = 1;
place = "{741, -20}";
target = down;
type = TopGhost;
},
{
horizontal = 1;
place = "{-3, 21}";
target = up;
type = BottomGhost;
}
);
layerId = "09416F58-11EE-45F1-B6D6-AC56366A0EE4";
name = "Oct 4 18, 12:29";
paths = (
{
closed = 1;
nodes = (
"418 631 LINE",
"418 631 LINE",
"418 687 LINE",
"634 687 LINE",
"634 631 LINE",
"526 631 OFFCURVE",
"406 460 OFFCURVE",
"290 376 CURVE",
"350 376 OFFCURVE",
"611 95 OFFCURVE",
"612 96 CURVE SMOOTH",
"666 135 LINE",
"705 87 LINE",
"583 -3 LINE",
"583 -3 OFFCURVE",
"327 335 OFFCURVE",
"192 335 CURVE",
"192 51 LINE",
"266 51 LINE",
"266 3 LINE",
"10 3 LINE",
"10 51 LINE",
"107 51 LINE",
"107 319 LINE",
"18 284 LINE",
"18 324 LINE",
"107 356 LINE",
"107 674 LINE",
"18 635 LINE",
"18 682 LINE",
"144 741 LINE",
"192 741 LINE",
"192 378 LINE",
"259 378 OFFCURVE",
"382 545 OFFCURVE",
"488 631 CURVE"
);
}
);
width = 694;
},
{
associatedMasterId = UUID0;
backgroundImage = {
crop = "{{0, 0}, {819, 947}}";
imagePath = "K copie.png";
locked = "1";
transform = "{0.957, 0, 0, 0.957, 16, -129}";
};
hints = (
{
place = "{18, 174}";
type = Stem;
},
{
place = "{107, 85}";
type = Stem;
},
{
horizontal = 1;
place = "{3, 48}";
type = Stem;
},
{
horizontal = 1;
place = "{335, 43}";
type = Stem;
},
{
horizontal = 1;
place = "{631, 56}";
type = Stem;
},
{
horizontal = 1;
place = "{741, -20}";
target = down;
type = TopGhost;
},
{
horizontal = 1;
place = "{-3, 21}";
target = up;
type = BottomGhost;
}
);
layerId = "B5D851F3-3A6B-47DE-85CF-2ADCA391769D";
name = "Dec 13 18, 16:30";
width = 752;
}
);
unicode = 004B;
},
{
color = 3;
glyphname = L;
lastChange = "2019-04-19 17:56:10 +0000";
layers = (
{
backgroundImage = {
crop = "{{14.918, 134.605}, {139.492, 208.327}}";
imagePath = "../../../../Desktop/SPECIMEN/glyphset jpeg/Ptolemy_glyphset/L_caps.png";
locked = "1";
transform = "{4.97321, 0, 0, 4.97321, -91, -813}";
};
layerId = UUID0;
paths = (
{
closed = 1;
nodes = (
"592 128 LINE",
"571 84 LINE SMOOTH",
"563 67 OFFCURVE",
"555 65 OFFCURVE",
"531 65 CURVE SMOOTH",
"173 65 LINE",
"170 262 OFFCURVE",
"170 455 OFFCURVE",
"173 652 CURVE",
"270 655 LINE",
"270 700 LINE",
"40 700 LINE",
"40 655 LINE",
"88 652 LINE",
"91 450 OFFCURVE",
"91 253 OFFCURVE",
"88 51 CURVE",
"44 45 LINE",
"44 0 LINE",
"592 0 LINE",
"601 39 OFFCURVE",
"611 77 OFFCURVE",
"625 116 CURVE"
);
}
);
width = 625;
},
{
associatedMasterId = UUID0;
hints = (
{
place = "{95, 85}";
type = Stem;
},
{
horizontal = 1;
place = "{0, 64}";
type = Stem;
},
{
horizontal = 1;
place = "{653, 47}";
type = Stem;
}
);
layerId = "0DC84787-E8FC-40EA-AC72-4E5520C1D2C2";
name = "Oct 4 18, 12:29";
paths = (
{
closed = 1;
nodes = (
"578 134 LINE",
"563 99 LINE",
"558 85 OFFCURVE",
"542 64 OFFCURVE",
"527 64 CURVE SMOOTH",
"180 64 LINE",
"181 653 LINE",
"236 653 LINE",
"236 700 LINE",
"42 700 LINE",
"42 700 LINE",
"42 653 LINE",
"97 653 LINE",
"94 48 LINE",
"38 48 LINE",
"38 0 LINE",
"578 0 LINE",
"628 134 LINE"
);
}
);
width = 659;
}
);
unicode = 004C;
},
{
color = 3;
glyphname = M;
lastChange = "2019-04-19 17:56:10 +0000";
layers = (
{
backgroundImage = {
crop = "{{16.243, 0}, {491.634, 464.562}}";
imagePath = "M copie.png";
locked = "1";
transform = "{1.847, 0, 0, 1.847, -30, -118}";
};
layerId = UUID0;
paths = (
{
closed = 1;
nodes = (
"826 652 LINE",
"826 49 LINE",
"867 45 LINE",
"867 0 LINE",
"688 0 LINE",
"688 45 LINE",
"736 49 LINE",
"736 538 LINE",
"464 -6 LINE",
"453 -10 LINE",
"149 570 LINE",
"149 48 LINE",
"206 45 LINE",
"206 0 LINE",
"40 0 LINE",
"40 45 LINE",
"99 48 LINE",
"99 652 LINE",
"40 655 LINE",
"40 700 LINE",
"255 700 LINE",
"255 655 LINE",
"202 652 LINE",
"293 490 OFFCURVE",
"393 293 OFFCURVE",
"476 127 CURVE",
"750 652 LINE",
"685 655 LINE",
"685 700 LINE",
"868 700 LINE",
"868 655 LINE"
);
}
);
width = 908;
},
{
associatedMasterId = UUID0;
hints = (
{
place = "{725, 83}";
type = Stem;
},
{
place = "{78, 58}";
type = Stem;
},
{
horizontal = 1;
place = "{0, 47}";
type = Stem;
},
{
horizontal = 1;
place = "{653, 46}";
type = Stem;
},
{
horizontal = 1;
place = "{700, -20}";
target = down;
type = TopGhost;
},
{
horizontal = 1;
place = "{-4, 21}";
target = up;
type = BottomGhost;
}
);
layerId = "DDC6D0B1-9800-49CB-AD1E-4E4D0337C97C";
name = "Oct 4 18, 12:29";
paths = (
{
closed = 1;
nodes = (
"808 653 LINE",
"808 47 LINE",
"856 47 LINE",
"856 0 LINE",
"677 0 LINE",
"677 47 LINE",
"725 47 LINE",
"725 549 LINE",
"442 -4 LINE",
"136 550 LINE",
"136 47 LINE",
"185 47 LINE",
"185 0 LINE",
"29 0 LINE",
"29 47 LINE",
"78 47 LINE",
"78 653 LINE",
"29 653 LINE",
"29 699 LINE",
"234 700 LINE",
"234 653 LINE",
"187 653 LINE",
"279 489 OFFCURVE",
"372 320 OFFCURVE",
"464 156 CURVE",
"723 653 LINE",
"674 653 LINE",
"674 699 LINE",
"853 699 LINE",
"854 693 OFFCURVE",
"857 653 OFFCURVE",
"857 653 CURVE"
);
}
);
width = 902;
}
);
unicode = 004D;
},
{
color = 3;
glyphname = N;
lastChange = "2019-04-19 17:56:10 +0000";
layers = (
{
backgroundImage = {
crop = "{{18.28, 103.883}, {152.16, 204.409}}";
imagePath = "../../../../Desktop/SPECIMEN/glyphset jpeg/Ptolemy_glyphset/N_caps.png";
locked = "1";
transform = "{5.52804, -0.09649, 0.09649, 5.52804, -157, -828}";
};
layerId = UUID0;
paths = (
{
closed = 1;
nodes = (
"289 655 LINE",
"243 651 LINE",
"386 490 OFFCURVE",
"512 338 OFFCURVE",
"637 168 CURVE",
"637 650 LINE",
"577 655 LINE",
"577 700 LINE",
"752 700 LINE",
"752 655 LINE",
"697 650 LINE",
"697 0 LINE",
"656 0 LINE",
"497 214 OFFCURVE",
"340 416 OFFCURVE",
"160 621 CURVE",
"160 50 LINE",
"220 45 LINE",
"220 0 LINE",
"40 0 LINE",
"40 45 LINE",
"100 50 LINE",
"100 650 LINE",
"45 655 LINE",
"45 700 LINE",
"289 700 LINE"
);
}
);
width = 792;
},
{
associatedMasterId = UUID0;
hints = (
{
place = "{88, 64}";
type = Stem;
},
{
place = "{630, 65}";
type = Stem;
},
{
horizontal = 1;
place = "{2, 47}";
type = Stem;
},
{
horizontal = 1;
place = "{654, 46}";
type = Stem;
},
{
horizontal = 1;
place = "{1, 21}";
target = up;
type = BottomGhost;
}
);
layerId = "98181011-E650-48D4-9A0D-7D83DED984B4";
name = "Oct 4 18, 12:29";
paths = (
{
closed = 1;
nodes = (
"272 654 LINE",
"240 654 LINE",
"630 163 LINE",
"630 654 LINE",
"583 654 LINE",
"583 700 LINE",
"742 700 LINE",
"742 654 LINE",
"695 654 LINE",
"695 1 LINE",
"639 1 LINE",
"152 623 LINE",
"152 49 LINE",
"214 49 LINE",
"214 2 LINE",
"37 2 LINE",
"37 49 LINE",
"88 49 LINE",
"88 654 LINE",
"40 654 LINE",
"40 700 LINE",
"272 700 LINE"
);
}
);
width = 773;
}
);
unicode = 004E;
},
{
color = 3;
glyphname = O;
lastChange = "2019-04-19 17:56:10 +0000";
layers = (
{
backgroundImage = {
crop = "{{0, 0}, {771.548, 778.635}}";
imagePath = "o copie.png";
locked = "1";
transform = "{1.064, 0, 0, 1.064, 26, -89}";
};
layerId = UUID0;
paths = (
{
closed = 1;
nodes = (
"50 587 OFFCURVE",
"258 709 OFFCURVE",
"426 709 CURVE SMOOTH",
"594 709 OFFCURVE",
"802 587 OFFCURVE",
"802 349 CURVE SMOOTH",
"802 111 OFFCURVE",
"594 -11 OFFCURVE",
"426 -11 CURVE SMOOTH",
"258 -11 OFFCURVE",
"50 111 OFFCURVE",
"50 349 CURVE SMOOTH"
);
},
{
closed = 1;
nodes = (
"145 174 OFFCURVE",
"260 39 OFFCURVE",
"426 39 CURVE SMOOTH",
"592 39 OFFCURVE",
"707 174 OFFCURVE",
"707 349 CURVE SMOOTH",
"707 523 OFFCURVE",
"592 664 OFFCURVE",
"426 664 CURVE SMOOTH",
"260 664 OFFCURVE",
"145 523 OFFCURVE",
"145 349 CURVE SMOOTH"
);
}
);
width = 852;
},
{
associatedMasterId = UUID0;
hints = (
{
place = "{36, 92}";
type = Stem;
},
{
place = "{696, 92}";
type = Stem;
},
{
horizontal = 1;
place = "{-11, 47}";
type = Stem;
},
{
horizontal = 1;
place = "{662, 47}";
type = Stem;
}
);
layerId = "43A37265-1C78-4744-A21C-13212701087D";
name = "Oct 4 18, 12:29";
paths = (
{
closed = 1;
nodes = (
"36 587 OFFCURVE",
"244 709 OFFCURVE",
"412 709 CURVE SMOOTH",
"580 709 OFFCURVE",
"788 587 OFFCURVE",
"788 349 CURVE SMOOTH",
"788 111 OFFCURVE",
"580 -11 OFFCURVE",
"412 -11 CURVE SMOOTH",
"244 -11 OFFCURVE",
"36 111 OFFCURVE",
"36 349 CURVE SMOOTH"
);
},
{
closed = 1;
nodes = (
"128 174 OFFCURVE",
"246 36 OFFCURVE",
"412 36 CURVE SMOOTH",
"578 36 OFFCURVE",
"696 174 OFFCURVE",
"696 349 CURVE SMOOTH",
"696 523 OFFCURVE",
"578 662 OFFCURVE",
"412 662 CURVE SMOOTH",
"246 662 OFFCURVE",
"128 523 OFFCURVE",
"128 349 CURVE SMOOTH"
);
}
);
width = 833;
}
);
unicode = 004F;
},
{
color = 3;
glyphname = P;
lastChange = "2019-04-19 17:56:10 +0000";
layers = (
{
backgroundImage = {
crop = "{{0, 0}, {231, 527}}";
imagePath = "../../../../Desktop/SPECIMEN/glyphset jpeg/Ptolemy_glyphset/P_caps.png";
locked = "1";
transform = "{3.74644, 0, 0, 3.74644, -107, -739}";
};
layerId = UUID0;
paths = (
{
closed = 1;
nodes = (
"56 635 LINE",
"56 679 LINE",
"66 679 LINE SMOOTH",
"164 679 OFFCURVE",
"215 706 OFFCURVE",
"294 706 CURVE SMOOTH",
"414 706 OFFCURVE",
"546 572 OFFCURVE",
"546 432 CURVE SMOOTH",
"546 304 OFFCURVE",
"455 218 OFFCURVE",
"326 218 CURVE SMOOTH",
"274 218 OFFCURVE",
"215 231 OFFCURVE",
"183 243 CURVE",
"183 49 LINE",
"265 45 LINE",
"265 0 LINE",
"40 0 LINE",
"40 45 LINE",
"100 49 LINE",
"103 250 OFFCURVE",
"103 431 OFFCURVE",
"100 632 CURVE"
);
},
{
closed = 1;
nodes = (
"271 631 OFFCURVE",
"237 628 OFFCURVE",
"183 622 CURVE",
"183 279 LINE",
"212 269 OFFCURVE",
"247 263 OFFCURVE",
"296 263 CURVE SMOOTH",
"406 263 OFFCURVE",
"480 342 OFFCURVE",
"480 462 CURVE SMOOTH",
"480 582 OFFCURVE",
"395 631 OFFCURVE",
"325 631 CURVE SMOOTH"
);
}
);
width = 576;
},
{
associatedMasterId = UUID0;
hints = (
{
place = "{105, 85}";
type = Stem;
},
{
place = "{490, 73}";
type = Stem;
},
{
horizontal = 1;
place = "{0, 47}";
type = Stem;
},
{
horizontal = 1;
place = "{228, 48}";
type = Stem;
},
{
horizontal = 1;
place = "{633, 67}";
type = Stem;
},
{
horizontal = 1;
place = "{652, 48}";
type = Stem;
},
{
horizontal = 1;
place = "{633, 79}";
type = Stem;
}
);
layerId = "4B00DB86-3714-4491-AFBE-4D8BA9C6B7E8";
name = "Oct 4 18, 12:29";
paths = (
{
closed = 1;
nodes = (
"43 652 LINE",
"43 700 LINE",
"105 700 LINE",
"184 700 OFFCURVE",
"258 712 OFFCURVE",
"337 712 CURVE SMOOTH",
"476 712 OFFCURVE",
"563 541 OFFCURVE",
"563 431 CURVE SMOOTH",
"563 303 OFFCURVE",
"460 228 OFFCURVE",
"341 228 CURVE SMOOTH",
"289 228 OFFCURVE",
"239 239 OFFCURVE",
"190 258 CURVE",
"190 47 LINE",
"277 47 LINE",
"277 0 LINE",
"50 0 LINE",
"50 47 LINE",
"105 47 LINE",
"105 652 LINE"
);
},
{
closed = 1;
nodes = (
"190 633 LINE",
"190 296 LINE",
"218 288 OFFCURVE",
"265 276 OFFCURVE",
"294 276 CURVE SMOOTH",
"405 276 OFFCURVE",
"490 324 OFFCURVE",
"490 462 CURVE SMOOTH",
"490 558 OFFCURVE",
"437 633 OFFCURVE",
"361 633 CURVE SMOOTH"
);
}
);
width = 614;
}
);
unicode = 0050;
},
{
color = 3;
glyphname = Q;
lastChange = "2019-04-19 17:56:10 +0000";
layers = (
{
backgroundImage = {
crop = "{{0, 0}, {244, 245}}";
imagePath = "../../../../Desktop/SPECIMEN/glyphset jpeg/Ptolemy_glyphset/Q_caps.png";
locked = "1";
transform = "{8.92302, 0, 0, 8.92302, -224, -1022}";
};
layerId = UUID0;
paths = (
{
closed = 1;
nodes = (
"732 7 LINE",
"816 -32 OFFCURVE",
"921 -118 OFFCURVE",
"1004 -118 CURVE SMOOTH",
"1043 -118 OFFCURVE",
"1091 -111 OFFCURVE",
"1156 -83 CURVE",
"1168 -110 LINE",
"1108 -143 OFFCURVE",
"1038 -159 OFFCURVE",
"977 -159 CURVE SMOOTH",
"774 -159 OFFCURVE",
"676 -7 OFFCURVE",
"490 -7 CURVE",
"542 28 LINE"
);
},
{
closed = 1;
nodes = (
"50 587 OFFCURVE",
"266 709 OFFCURVE",
"444 709 CURVE SMOOTH",
"622 709 OFFCURVE",
"832 587 OFFCURVE",
"832 349 CURVE SMOOTH",
"832 131 OFFCURVE",
"614 -11 OFFCURVE",
"446 -11 CURVE SMOOTH",
"268 -11 OFFCURVE",
"50 111 OFFCURVE",
"50 349 CURVE SMOOTH"
);
},
{
closed = 1;
nodes = (
"145 174 OFFCURVE",
"270 39 OFFCURVE",
"446 39 CURVE SMOOTH",
"622 39 OFFCURVE",
"737 154 OFFCURVE",
"737 349 CURVE SMOOTH",
"737 523 OFFCURVE",
"620 664 OFFCURVE",
"444 664 CURVE SMOOTH",
"268 664 OFFCURVE",
"145 523 OFFCURVE",
"145 349 CURVE SMOOTH"
);
}
);
width = 898;
},
{
associatedMasterId = UUID0;
hints = (
{
place = "{39, 86}";
type = Stem;
},
{
place = "{700, 86}";
type = Stem;
},
{
horizontal = 1;
place = "{-140, 40}";
type = Stem;
},
{
horizontal = 1;
place = "{-9, 31}";
type = Stem;
},
{
horizontal = 1;
place = "{662, 48}";
type = Stem;
},
{
horizontal = 1;
place = "{-9, 46}";
type = Stem;
}
);
layerId = "73090CE6-F819-4933-8BEB-FF4166D86827";
name = "Oct 4 18, 12:29";
paths = (
{
closed = 1;
nodes = (
"244 710 OFFCURVE",
"39 589 OFFCURVE",
"39 350 CURVE SMOOTH",
"39 111 OFFCURVE",
"244 -9 OFFCURVE",
"412 -9 CURVE SMOOTH",
"580 -9 OFFCURVE",
"786 111 OFFCURVE",
"786 350 CURVE SMOOTH",
"786 589 OFFCURVE",
"580 710 OFFCURVE",
"412 710 CURVE SMOOTH"
);
},
{
closed = 1;
nodes = (
"460 -2 LINE",
"674 -2 OFFCURVE",
"701 -140 OFFCURVE",
"907 -140 CURVE SMOOTH",
"999 -138 OFFCURVE",
"1090 -76 OFFCURVE",
"1090 -76 CURVE SMOOTH",
"1073 -63 LINE SMOOTH",
"1073 -63 OFFCURVE",
"1007 -100 OFFCURVE",
"904 -100 CURVE SMOOTH",
"793 -100 OFFCURVE",
"745 22 OFFCURVE",
"549 22 CURVE SMOOTH"
);
},
{
closed = 1;
nodes = (
"578 662 OFFCURVE",
"700 523 OFFCURVE",
"700 350 CURVE SMOOTH",
"700 176 OFFCURVE",
"578 37 OFFCURVE",
"412 37 CURVE SMOOTH",
"245 37 OFFCURVE",
"125 176 OFFCURVE",
"125 350 CURVE SMOOTH",
"125 523 OFFCURVE",
"245 662 OFFCURVE",
"412 662 CURVE SMOOTH"
);
}
);
width = 812;
}
);
leftMetricsKey = O;
unicode = 0051;
},
{
color = 3;
glyphname = R;
lastChange = "2019-04-19 17:56:10 +0000";
layers = (
{
backgroundImage = {
crop = "{{27.553, 132.913}, {166.751, 256.046}}";
imagePath = "../../../../Desktop/SPECIMEN/glyphset jpeg/Ptolemy_glyphset/R_caps.png";
locked = "1";
transform = "{3.85425, 0, 0, 3.85425, -109, -684}";
};
layerId = UUID0;
paths = (
{
closed = 1;
nodes = (
"274 700 LINE SMOOTH",
"434 700 OFFCURVE",
"540 628 OFFCURVE",
"540 508 CURVE SMOOTH",
"540 383 OFFCURVE",
"406 324 OFFCURVE",
"323 317 CURVE",
"470 112 LINE SMOOTH",
"512 54 OFFCURVE",
"534 49 OFFCURVE",
"589 42 CURVE",
"589 0 LINE",
"539 0 OFFCURVE",
"492 0 OFFCURVE",
"442 -2 CURVE",
"388 91 OFFCURVE",
"273 267 OFFCURVE",
"238 311 CURVE",
"195 311 LINE",
"195 50 LINE",
"244 45 LINE",
"244 0 LINE",
"40 0 LINE",
"40 45 LINE",
"110 51 LINE",
"113 252 OFFCURVE",
"113 449 OFFCURVE",
"110 650 CURVE",
"40 655 LINE",
"40 700 LINE"
);
},
{
closed = 1;
nodes = (
"195 655 LINE",
"195 356 LINE",
"258 356 LINE SMOOTH",
"376 356 OFFCURVE",
"445 396 OFFCURVE",
"445 508 CURVE SMOOTH",
"445 618 OFFCURVE",
"365 655 OFFCURVE",
"262 655 CURVE SMOOTH"
);
}
);
width = 599;
},
{
associatedMasterId = UUID0;
hints = (
{
place = "{115, 84}";
type = Stem;
},
{
place = "{441, 93}";
type = Stem;
},
{
horizontal = 1;
place = "{0, 47}";
type = Stem;
},
{
horizontal = 1;
place = "{655, 46}";
type = Stem;
}
);
layerId = "C544ADBB-4B7F-43C9-BD74-8E7CD18F850D";
name = "Oct 4 18, 12:29";
paths = (
{
closed = 1;
nodes = (
"44 700 OFFCURVE",
"310 701 OFFCURVE",
"310 701 CURVE",
"438 701 OFFCURVE",
"534 611 OFFCURVE",
"534 508 CURVE SMOOTH",
"534 383 OFFCURVE",
"424 324 OFFCURVE",
"338 314 CURVE",
"467 135 LINE SMOOTH",
"519 62 OFFCURVE",
"530 48 OFFCURVE",
"595 44 CURVE",
"595 0 LINE",
"442 0 LINE",
"442 0 OFFCURVE",
"392 87 OFFCURVE",
"350 151 CURVE SMOOTH",
"308 215 OFFCURVE",
"237 309 OFFCURVE",
"237 309 CURVE",
"200 309 LINE",
"200 47 LINE",
"250 47 LINE",
"250 0 LINE",
"46 0 LINE",
"46 47 LINE",
"116 47 LINE",
"114 655 LINE",
"44 655 LINE",
"44 655 OFFCURVE",
"44 702 OFFCURVE",
"44 701 CURVE"
);
},
{
closed = 1;
nodes = (
"200 655 LINE",
"199 356 LINE",
"199 356 OFFCURVE",
"258 356 OFFCURVE",
"274 356 CURVE SMOOTH",
"362 356 OFFCURVE",
"441 396 OFFCURVE",
"441 508 CURVE SMOOTH",
"441 604 OFFCURVE",
"371 655 OFFCURVE",
"274 655 CURVE SMOOTH"
);
}
);
width = 614;
}
);
unicode = 0052;
},
{
color = 3;
glyphname = S;
lastChange = "2019-04-19 17:56:10 +0000";
layers = (
{
backgroundImage = {
crop = "{{58.36, 189.5}, {219.67, 387.945}}";
imagePath = "../../../../Desktop/SPECIMEN/glyphset jpeg/Ptolemy_glyphset/S_caps.png";
locked = "1";
transform = "{2.57756, 0, 0, 2.57756, -171, -674}";
};
layerId = UUID0;
paths = (
{
closed = 1;
nodes = (
"79 193 LINE",
"97 188 LINE",
"96 91 OFFCURVE",
"209 41 OFFCURVE",
"292 41 CURVE SMOOTH",
"392 41 OFFCURVE",
"465 82 OFFCURVE",
"465 162 CURVE SMOOTH",
"465 241 OFFCURVE",
"388 280 OFFCURVE",
"274 321 CURVE SMOOTH",
"100 384 OFFCURVE",
"20 429 OFFCURVE",
"20 530 CURVE SMOOTH",
"20 640 OFFCURVE",
"136 710 OFFCURVE",
"279 710 CURVE SMOOTH",
"376 710 OFFCURVE",
"459 679 OFFCURVE",
"501 636 CURVE",
"488 600 OFFCURVE",
"476 560 OFFCURVE",
"463 514 CURVE",
"438 522 LINE",
"436 599 OFFCURVE",
"348 665 OFFCURVE",
"250 665 CURVE SMOOTH",
"138 665 OFFCURVE",
"90 618 OFFCURVE",
"90 558 CURVE SMOOTH",
"90 485 OFFCURVE",
"218 440 OFFCURVE",
"311 401 CURVE SMOOTH",
"421 355 OFFCURVE",
"526 330 OFFCURVE",
"526 193 CURVE SMOOTH",
"526 86 OFFCURVE",
"438 -9 OFFCURVE",
"272 -9 CURVE SMOOTH",
"150 -9 OFFCURVE",
"70 34 OFFCURVE",
"26 82 CURVE"
);
}
);
width = 556;
},
{
associatedMasterId = UUID0;
hints = (
{
place = "{52, 60}";
type = Stem;
},
{
place = "{455, 62}";
type = Stem;
},
{
horizontal = 1;
place = "{-9, 49}";
type = Stem;
},
{
horizontal = 1;
place = "{669, 41}";
type = Stem;
}
);
layerId = "B6FBF0A0-9C5B-42E6-9BD3-C5FE8B5B1063";
name = "Oct 4 18, 12:29";
paths = (
{
closed = 1;
nodes = (
"77 193 LINE",
"95 182 LINE",
"84 89 OFFCURVE",
"198 40 OFFCURVE",
"291 40 CURVE SMOOTH",
"389 40 OFFCURVE",
"455 69 OFFCURVE",
"455 172 CURVE SMOOTH",
"455 251 OFFCURVE",
"369 285 OFFCURVE",
"273 326 CURVE SMOOTH",
"166 372 OFFCURVE",
"52 425 OFFCURVE",
"52 536 CURVE",
"57 646 OFFCURVE",
"159 710 OFFCURVE",
"292 710 CURVE SMOOTH",
"359 710 OFFCURVE",
"443 684 OFFCURVE",
"472 636 CURVE",
"440 540 LINE",
"414 550 LINE",
"421 627 OFFCURVE",
"337 669 OFFCURVE",
"279 669 CURVE SMOOTH",
"177 669 OFFCURVE",
"112 629 OFFCURVE",
"112 559 CURVE SMOOTH",
"112 496 OFFCURVE",
"217 451 OFFCURVE",
"310 410 CURVE SMOOTH",
"413 365 OFFCURVE",
"517 326 OFFCURVE",
"517 189 CURVE SMOOTH",
"517 92 OFFCURVE",
"457 -9 OFFCURVE",
"271 -9 CURVE SMOOTH",
"155 -9 OFFCURVE",
"64 53 OFFCURVE",
"20 96 CURVE"
);
}
);
width = 536;
}
);
unicode = 0053;
},
{
color = 3;
glyphname = T;
lastChange = "2019-04-19 17:56:10 +0000";
layers = (
{
backgroundImage = {
crop = "{{11.689, 0}, {586.944, 707.171}}";
imagePath = "T copie.png";
locked = "1";
transform = "{1.198, 0, 0, 1.198, -36, -107}";
};
layerId = UUID0;
paths = (
{
closed = 1;
nodes = (
"212 42 LINE",
"212 2 LINE",
"447 2 LINE",
"447 42 LINE",
"374 47 LINE",
"371 243 OFFCURVE",
"371 439 OFFCURVE",
"374 635 CURVE",
"606 635 LINE",
"611 575 LINE",
"659 575 LINE",
"659 700 LINE",
"10 700 LINE",
"10 575 LINE",
"58 575 LINE",
"63 635 LINE",
"284 635 LINE",
"287 439 OFFCURVE",
"287 243 OFFCURVE",
"284 47 CURVE"
);
}
);
width = 669;
},
{
associatedMasterId = UUID0;
hints = (
{
place = "{31, 47}";
type = Stem;
},
{
place = "{630, 47}";
type = Stem;
},
{
horizontal = 1;
place = "{2, 47}";
type = Stem;
},
{
horizontal = 1;
place = "{561, 140}";
type = Stem;
},
{
horizontal = 1;
place = "{632, 69}";
type = Stem;
}
);
layerId = "755AB0A6-5F64-4C4F-A539-0E327E3926D8";
name = "Oct 4 18, 12:29";
paths = (
{
closed = 1;
nodes = (
"250 49 LINE",
"250 2 LINE",
"473 2 LINE",
"473 49 LINE",
"403 49 LINE",
"403 60 OFFCURVE",
"404 606 OFFCURVE",
"402 632 CURVE",
"629 632 LINE",
"629 615 OFFCURVE",
"630 609 OFFCURVE",
"630 561 CURVE",
"677 561 LINE",
"677 701 LINE",
"32 701 LINE",
"31 563 LINE",
"78 563 LINE",
"79 601 OFFCURVE",
"78 617 OFFCURVE",
"78 632 CURVE",
"314 632 LINE",
"315 618 OFFCURVE",
"318 70 OFFCURVE",
"318 49 CURVE"
);
}
);
width = 703;
}
);
unicode = 0054;
},
{
color = 3;
glyphname = U;
lastChange = "2019-04-19 17:56:10 +0000";
layers = (
{
backgroundImage = {
crop = "{{42.127, 117.89}, {161.966, 232.031}}";
imagePath = "../../../../Desktop/SPECIMEN/glyphset jpeg/Ptolemy_glyphset/U_caps.png";
locked = "1";
transform = "{4.51753, 0, 0, 4.51753, -168, -741}";
};
layerId = UUID0;
paths = (
{
closed = 1;
nodes = (
"708 71 LINE",
"637 58 LINE",
"644 700 LINE",
"509 700 LINE",
"509 655 LINE",
"554 650 LINE",
"554 134 LINE",
"520 99 OFFCURVE",
"457 44 OFFCURVE",
"365 44 CURVE SMOOTH",
"225 44 OFFCURVE",
"190 131 OFFCURVE",
"190 261 CURVE SMOOTH",
"190 700 LINE",
"40 700 LINE",
"40 655 LINE",
"100 650 LINE",
"100 241 LINE SMOOTH",
"100 51 OFFCURVE",
"185 -10 OFFCURVE",
"335 -10 CURVE SMOOTH",
"435 -10 OFFCURVE",
"515 45 OFFCURVE",
"554 77 CURVE",
"554 -10 LINE",
"563 -18 LINE",
"718 27 LINE"
);
}
);
width = 738;
},
{
associatedMasterId = UUID0;
hints = (
{
place = "{132, 85}";
type = Stem;
},
{
place = "{551, 85}";
type = Stem;
},
{
horizontal = 1;
place = "{0, 42}";
type = Stem;
},
{
horizontal = 1;
place = "{653, 47}";
type = Stem;
}
);
layerId = "98805B83-75CD-43FE-B58F-C6B54BA5F9B5";
name = "Oct 4 18, 12:29";
paths = (
{
closed = 1;
nodes = (
"710 84 LINE",
"710 84 LINE",
"636 67 LINE",
"636 700 LINE",
"480 700 LINE",
"480 653 LINE",
"551 653 LINE",
"551 124 LINE",
"551 124 OFFCURVE",
"490 42 OFFCURVE",
"376 42 CURVE SMOOTH",
"226 42 OFFCURVE",
"217 161 OFFCURVE",
"217 261 CURVE SMOOTH",
"217 338 OFFCURVE",
"217 700 OFFCURVE",
"217 700 CURVE",
"62 700 LINE",
"62 653 LINE",
"132 653 LINE",
"132 261 LINE",
"132 97 OFFCURVE",
"178 0 OFFCURVE",
"357 0 CURVE SMOOTH",
"477 0 OFFCURVE",
"551 78 OFFCURVE",
"551 78 CURVE",
"551 0 LINE",
"710 37 LINE"
);
}
);
width = 733;
}
);
unicode = 0055;
},
{
color = 3;
glyphname = V;
lastChange = "2019-04-19 17:56:10 +0000";
layers = (
{
layerId = UUID0;
paths = (
{
closed = 1;
nodes = (
"339 128 LINE",
"115 652 LINE",
"160 655 LINE",
"160 700 LINE",
"0 700 LINE",
"0 655 LINE",
"45 652 LINE",
"334 -10 LINE",
"358 -10 LINE",
"467 221 OFFCURVE",
"578 453 OFFCURVE",
"695 684 CURVE",
"690 700 LINE",
"519 700 LINE",
"519 655 LINE",
"590 651 LINE"
);
}
);
width = 695;
},
{
associatedMasterId = UUID0;
hints = (
{
horizontal = 1;
place = "{654, 46}";
type = Stem;
},
{
horizontal = 1;
place = "{0, 21}";
target = up;
type = BottomGhost;
}
);
layerId = "38B18ADC-CA82-4A5A-B0AC-E88F600F2D06";
name = "Feb 14 19, 11:43";
paths = (
{
closed = 1;
nodes = (
"330 159 LINE",
"118 654 LINE",
"158 654 LINE",
"158 700 LINE",
"6 700 LINE",
"5 654 LINE",
"48 654 LINE",
"327 0 LINE",
"345 0 LINE",
"698 700 LINE",
"522 700 LINE",
"522 654 LINE",
"578 654 LINE"
);
}
);
width = 703;
}
);
unicode = 0056;
},
{
color = 3;
glyphname = W;
lastChange = "2019-04-19 17:56:10 +0000";
layers = (
{
backgroundImage = {
crop = "{{0, 0}, {821, 648}}";
imagePath = "W copie.png";
locked = "1";
transform = "{1.358, 0, 0, 1.358, -56, -60}";
};
layerId = UUID0;
paths = (
{
closed = 1;
nodes = (
"669 126 LINE",
"554 400 LINE",
"595 495 OFFCURVE",
"639 590 OFFCURVE",
"689 685 CURVE",
"685 700 LINE",
"542 700 LINE",
"542 657 LINE",
"587 654 LINE",
"517 482 LINE",
"445 654 LINE",
"485 657 LINE",
"485 700 LINE",
"323 700 LINE",
"323 657 LINE",
"375 654 LINE",
"482 422 LINE",
"354 124 LINE",
"134 652 LINE",
"184 655 LINE",
"184 700 LINE",
"0 700 LINE",
"0 655 LINE",
"64 652 LINE",
"295 122 LINE SMOOTH",
"306 97 OFFCURVE",
"333 41 OFFCURVE",
"350 -10 CURVE",
"378 -10 LINE",
"521 339 LINE",
"620 123 LINE SMOOTH",
"634 93 OFFCURVE",
"659 26 OFFCURVE",
"669 -10 CURVE",
"694 -10 LINE",
"922 505 LINE SMOOTH",
"949 565 OFFCURVE",
"996 669 OFFCURVE",
"1017 677 CURVE",
"1014 700 LINE",
"830 700 LINE",
"830 654 LINE",
"909 651 LINE"
);
}
);
width = 1017;
},
{
associatedMasterId = UUID0;
hints = (
{
horizontal = 1;
place = "{654, 46}";
type = Stem;
},
{
horizontal = 1;
place = "{0, 21}";
target = up;
type = BottomGhost;
}
);
layerId = "7E457AB1-3B30-4B1B-8261-5B97590B3B3C";
name = "Oct 4 18, 12:29";
paths = (
{
closed = 1;
nodes = (
"637 159 LINE",
"539 386 LINE",
"698 700 LINE",
"522 700 LINE",
"522 654 LINE",
"578 654 LINE",
"495 489 LINE",
"425 654 LINE",
"465 654 LINE",
"465 700 LINE",
"313 700 LINE",
"312 654 LINE",
"355 654 LINE",
"457 413 LINE",
"330 159 LINE",
"118 654 LINE",
"158 654 LINE",
"158 700 LINE",
"6 700 LINE",
"5 654 LINE",
"48 654 LINE",
"327 0 LINE",
"345 0 LINE",
"501 310 LINE",
"634 0 LINE",
"652 0 LINE",
"1005 700 LINE",
"829 700 LINE",
"829 654 LINE",
"885 654 LINE"
);
}
);
width = 1008;
}
);
unicode = 0057;
},
{
color = 3;
glyphname = X;
lastChange = "2019-04-19 17:56:10 +0000";
layers = (
{
layerId = UUID0;
paths = (
{
closed = 1;
nodes = (
"251 700 LINE",
"251 652 LINE",
"202 652 LINE",
"368 408 LINE",
"544 652 LINE",
"495 652 LINE",
"495 700 LINE",
"691 700 LINE",
"691 652 LINE",
"646 653 LINE SMOOTH",
"613 654 OFFCURVE",
"599 634 OFFCURVE",
"570 594 CURVE SMOOTH",
"401 368 LINE",
"585 101 LINE SMOOTH",
"607 69 OFFCURVE",
"631 46 OFFCURVE",
"639 46 CURVE SMOOTH",
"686 47 LINE",
"686 0 LINE",
"463 0 LINE",
"463 47 LINE",
"511 46 LINE",
"340 301 LINE",
"153 47 LINE",
"202 47 LINE",
"202 0 LINE",
"22 0 LINE",
"22 47 LINE",
"53 46 LINE SMOOTH",
"76 46 OFFCURVE",
"114 91 OFFCURVE",
"122 101 CURVE SMOOTH",
"311 348 LINE",
"138 597 LINE SMOOTH",
"121 621 OFFCURVE",
"96 654 OFFCURVE",
"63 653 CURVE SMOOTH",
"20 652 LINE",
"20 700 LINE"
);
}
);
width = 711;
},
{
associatedMasterId = UUID0;
hints = (
{
horizontal = 1;
place = "{0, 47}";
type = Stem;
},
{
horizontal = 1;
place = "{652, 48}";
type = Stem;
}
);
layerId = "862EB489-4972-4419-8C58-D26B57B1E410";
name = "Oct 4 18, 12:29";
paths = (
{
closed = 1;
nodes = (
"259 700 LINE",
"259 652 LINE",
"210 652 LINE",
"376 408 LINE",
"552 651 LINE",
"504 652 LINE",
"503 700 LINE",
"699 700 LINE",
"699 652 LINE",
"654 652 LINE SMOOTH",
"620 652 OFFCURVE",
"607 634 OFFCURVE",
"578 594 CURVE SMOOTH",
"409 368 LINE",
"598 101 LINE SMOOTH",
"622 70 OFFCURVE",
"630 47 OFFCURVE",
"648 47 CURVE SMOOTH",
"694 47 LINE",
"694 0 LINE",
"471 0 LINE",
"470 47 LINE",
"519 47 LINE",
"348 301 LINE",
"161 47 LINE",
"210 47 LINE",
"210 0 LINE",
"30 0 LINE",
"31 47 LINE",
"71 47 LINE SMOOTH",
"84 47 OFFCURVE",
"122 91 OFFCURVE",
"130 101 CURVE SMOOTH",
"319 348 LINE",
"143 597 LINE SMOOTH",
"125 620 OFFCURVE",
"104 652 OFFCURVE",
"71 652 CURVE SMOOTH",
"28 652 LINE SMOOTH",
"28 669 OFFCURVE",
"28 670 OFFCURVE",
"28 700 CURVE SMOOTH"
);
}
);
width = 740;
}
);
unicode = 0058;
},
{
color = 3;
glyphname = Y;
lastChange = "2019-04-19 17:56:10 +0000";
layers = (
{
backgroundImage = {
crop = "{{0, 0}, {784.092, 996.426}}";
imagePath = "Y copie.png";
locked = "1";
transform = "{0.843, 0, 0, 0.843, -38, -100}";
};
layerId = UUID0;
paths = (
{
closed = 1;
nodes = (
"403 0 LINE",
"403 45 LINE",
"338 50 LINE",
"335 319 LINE",
"528 650 LINE",
"605 655 LINE",
"605 700 LINE",
"490 700 LINE",
"315 370 LINE",
"140 700 LINE",
"0 700 LINE",
"0 655 LINE",
"60 650 LINE",
"251 323 LINE",
"248 50 LINE",
"178 45 LINE",
"178 0 LINE"
);
}
);
width = 605;
},
{
associatedMasterId = UUID0;
hints = (
{
place = "{288, 85}";
type = Stem;
},
{
horizontal = 1;
place = "{0, 47}";
type = Stem;
},
{
horizontal = 1;
place = "{654, 47}";
type = Stem;
}
);
layerId = "9FF37337-E839-40CD-9966-44A0B301720E";
name = "Oct 4 18, 12:29";
paths = (
{
closed = 1;
nodes = (
"433 0 LINE",
"424 47 LINE",
"374 47 LINE",
"373 316 LINE",
"555 654 LINE",
"605 654 LINE",
"605 701 LINE",
"529 700 LINE",
"351 373 LINE",
"176 701 LINE",
"60 701 LINE",
"60 654 LINE",
"110 654 LINE",
"288 316 LINE",
"288 47 LINE",
"238 47 LINE",
"238 0 LINE"
);
}
);
width = 663;
}
);
unicode = 0059;
},
{
color = 3;
glyphname = Z;
lastChange = "2019-04-19 17:56:10 +0000";
layers = (
{
layerId = UUID0;
paths = (
{
closed = 1;
nodes = (
"57 565 LINE",
"57 565 LINE",
"107 599 OFFCURVE",
"157 634 OFFCURVE",
"179 637 CURVE SMOOTH",
"296 637 OFFCURVE",
"398 551 OFFCURVE",
"529 551 CURVE SMOOTH",
"25 38 LINE",
"57 0 LINE SMOOTH",
"57 0 OFFCURVE",
"126 81 OFFCURVE",
"214 81 CURVE SMOOTH",
"338 81 OFFCURVE",
"434 -23 OFFCURVE",
"543 -23 CURVE SMOOTH",
"628 -23 OFFCURVE",
"699 135 OFFCURVE",
"699 135 CURVE SMOOTH",
"682 150 LINE SMOOTH",
"656 114 OFFCURVE",
"624 73 OFFCURVE",
"562 73 CURVE SMOOTH",
"447 73 OFFCURVE",
"403 159 OFFCURVE",
"218 159 CURVE SMOOTH",
"720 683 LINE",
"680 709 LINE SMOOTH",
"680 709 OFFCURVE",
"613 628 OFFCURVE",
"518 628 CURVE SMOOTH",
"423 628 OFFCURVE",
"327 713 OFFCURVE",
"214 713 CURVE SMOOTH",
"160 713 OFFCURVE",
"34 597 OFFCURVE",
"34 597 CURVE SMOOTH"
);
}
);
width = 724;
},
{
associatedMasterId = UUID0;
hints = (
{
horizontal = 1;
place = "{-23, 96}";
type = Stem;
},
{
horizontal = 1;
place = "{81, 78}";
type = Stem;
},
{
horizontal = 1;
place = "{551, 77}";
type = Stem;
},
{
horizontal = 1;
place = "{637, 76}";
type = Stem;
}
);
layerId = "E716FFDF-190D-4B70-A453-E39CACF74B66";
name = "Oct 4 18, 12:29";
paths = (
{
closed = 1;
nodes = (
"57 565 LINE",
"57 565 LINE",
"107 599 OFFCURVE",
"157 634 OFFCURVE",
"179 637 CURVE SMOOTH",
"296 637 OFFCURVE",
"398 551 OFFCURVE",
"529 551 CURVE SMOOTH",
"25 38 LINE",
"57 0 LINE SMOOTH",
"57 0 OFFCURVE",
"126 81 OFFCURVE",
"214 81 CURVE SMOOTH",
"338 81 OFFCURVE",
"434 -23 OFFCURVE",
"543 -23 CURVE SMOOTH",
"628 -23 OFFCURVE",
"699 135 OFFCURVE",
"699 135 CURVE SMOOTH",
"682 150 LINE SMOOTH",
"656 114 OFFCURVE",
"624 73 OFFCURVE",
"562 73 CURVE SMOOTH",
"447 73 OFFCURVE",
"403 159 OFFCURVE",
"218 159 CURVE SMOOTH",
"720 683 LINE",
"680 709 LINE SMOOTH",
"680 709 OFFCURVE",
"613 628 OFFCURVE",
"518 628 CURVE SMOOTH",
"423 628 OFFCURVE",
"327 713 OFFCURVE",
"214 713 CURVE SMOOTH",
"160 713 OFFCURVE",
"34 597 OFFCURVE",
"34 597 CURVE SMOOTH"
);
}
);
width = 724;
}
);
unicode = 005A;
},
{
color = 4;
glyphname = a;
lastChange = "2019-04-22 14:14:06 +0000";
layers = (
{
backgroundImage = {
crop = "{{68.261, 207.762}, {107.189, 245.319}}";
imagePath = "../../../../Desktop/SPECIMEN/glyphset jpeg/Ptolemy_glyphset/a_bdc.png";
locked = "1";
transform = "{3.85751, 0, 0, 3.85751, -268, -892}";
};
layerId = UUID0;
paths = (
{
closed = 1;
nodes = (
"63 387 OFFCURVE",
"175 460 OFFCURVE",
"214 460 CURVE SMOOTH",
"274 460 OFFCURVE",
"311 414 OFFCURVE",
"309 359 CURVE SMOOTH",
"307 309 OFFCURVE",
"307 177 OFFCURVE",
"307 115 CURVE SMOOTH",
"307 77 OFFCURVE",
"316 65 OFFCURVE",
"337 65 CURVE SMOOTH",
"344 65 OFFCURVE",
"367 68 OFFCURVE",
"377 71 CURVE",
"381 65 LINE",
"369 38 OFFCURVE",
"341 4 OFFCURVE",
"309 -10 CURVE",
"267 -10 OFFCURVE",
"234 23 OFFCURVE",
"227 84 CURVE",
"188 41 OFFCURVE",
"138 0 OFFCURVE",
"115 -10 CURVE",
"59 16 OFFCURVE",
"30 51 OFFCURVE",
"30 101 CURVE SMOOTH",
"30 165 OFFCURVE",
"75 203 OFFCURVE",
"227 276 CURVE",
"227 327 LINE SMOOTH",
"227 367 OFFCURVE",
"222 392 OFFCURVE",
"185 392 CURVE SMOOTH",
"147 392 OFFCURVE",
"98 371 OFFCURVE",
"44 340 CURVE",
"31 366 LINE"
);
},
{
closed = 1;
nodes = (
"90 92 OFFCURVE",
"109 65 OFFCURVE",
"134 65 CURVE SMOOTH",
"163 65 OFFCURVE",
"212 111 OFFCURVE",
"227 128 CURVE",
"227 245 LINE",
"126 199 OFFCURVE",
"90 155 OFFCURVE",
"90 118 CURVE SMOOTH"
);
}
);
width = 383;
},
{
associatedMasterId = UUID0;
hints = (
{
place = "{42, 68}";
type = Stem;
},
{
place = "{233, 84}";
type = Stem;
},
{
horizontal = 1;
place = "{-11, 80}";
type = Stem;
},
{
horizontal = 1;
place = "{392, 68}";
type = Stem;
}
);
layerId = "F39F326C-E017-4330-B3BA-2706B97ACAC9";
name = "Feb 14 19, 10:53";
paths = (
{
closed = 1;
nodes = (
"70 390 OFFCURVE",
"174 460 OFFCURVE",
"216 460 CURVE SMOOTH",
"271 460 OFFCURVE",
"321 430 OFFCURVE",
"321 369 CURVE SMOOTH",
"321 349 OFFCURVE",
"315 142 OFFCURVE",
"315 110 CURVE SMOOTH",
"315 82 OFFCURVE",
"327 67 OFFCURVE",
"348 67 CURVE SMOOTH",
"360 67 OFFCURVE",
"371 71 OFFCURVE",
"386 78 CURVE",
"387 43 LINE",
"367 17 OFFCURVE",
"339 -11 OFFCURVE",
"309 -11 CURVE SMOOTH",
"267 -11 OFFCURVE",
"242 34 OFFCURVE",
"231 85 CURVE",
"189 43 OFFCURVE",
"140 -10 OFFCURVE",
"127 -10 CURVE SMOOTH",
"106 -10 OFFCURVE",
"40 30 OFFCURVE",
"40 101 CURVE SMOOTH",
"40 185 OFFCURVE",
"150 236 OFFCURVE",
"232 275 CURVE",
"232 339 LINE SMOOTH",
"232 379 OFFCURVE",
"204 392 OFFCURVE",
"177 392 CURVE SMOOTH",
"142 392 OFFCURVE",
"76 357 OFFCURVE",
"46 344 CURVE",
"35 371 LINE"
);
},
{
closed = 1;
nodes = (
"102 92 OFFCURVE",
"122 70 OFFCURVE",
"157 69 CURVE SMOOTH",
"186 68 OFFCURVE",
"210 98 OFFCURVE",
"230 115 CURVE",
"232 245 LINE",
"169 211 OFFCURVE",
"102 172 OFFCURVE",
"102 126 CURVE SMOOTH"
);
}
);
width = 396;
},
{
associatedMasterId = UUID0;
backgroundImage = {
crop = "{{68.261, 207.762}, {107.189, 245.319}}";
imagePath = "../../../../Desktop/SPECIMEN/glyphset jpeg/Ptolemy_glyphset/a_bdc.png";
locked = "1";
transform = "{3.85751, 0, 0, 3.85751, -268, -892}";
};
hints = (
{
place = "{42, 68}";
type = Stem;
},
{
place = "{233, 84}";
type = Stem;
},
{
horizontal = 1;
place = "{-11, 80}";
type = Stem;
},
{
horizontal = 1;
place = "{392, 68}";
type = Stem;
}
);
layerId = "FBC11AB3-F844-402E-B407-DB27A60BE118";
name = "Feb 15 19, 10:02";
paths = (
{
closed = 1;
nodes = (
"77 395 OFFCURVE",
"185 460 OFFCURVE",
"214 460 CURVE SMOOTH",
"274 460 OFFCURVE",
"322 414 OFFCURVE",
"319 359 CURVE SMOOTH",
"317 309 OFFCURVE",
"317 177 OFFCURVE",
"317 115 CURVE SMOOTH",
"317 77 OFFCURVE",
"326 65 OFFCURVE",
"347 65 CURVE SMOOTH",
"354 65 OFFCURVE",
"367 66 OFFCURVE",
"377 71 CURVE",
"388 55 LINE",
"369 31 OFFCURVE",
"349 10 OFFCURVE",
"324 -10 CURVE",
"282 -10 OFFCURVE",
"244 23 OFFCURVE",
"237 84 CURVE",
"198 41 OFFCURVE",
"153 0 OFFCURVE",
"135 -10 CURVE",
"75 -10 OFFCURVE",
"30 41 OFFCURVE",
"30 101 CURVE SMOOTH",
"30 175 OFFCURVE",
"115 217 OFFCURVE",
"237 270 CURVE",
"237 327 LINE SMOOTH",
"237 367 OFFCURVE",
"222 390 OFFCURVE",
"185 390 CURVE SMOOTH",
"150 390 OFFCURVE",
"87 361 OFFCURVE",
"56 344 CURVE",
"45 374 LINE"
);
},
{
closed = 1;
nodes = (
"105 102 OFFCURVE",
"117 65 OFFCURVE",
"162 65 CURVE SMOOTH",
"181 65 OFFCURVE",
"222 101 OFFCURVE",
"237 118 CURVE",
"237 245 LINE",
"154 210 OFFCURVE",
"105 175 OFFCURVE",
"105 131 CURVE SMOOTH"
);
}
);
width = 393;
}
);
unicode = 0061;
},
{
color = 4;
glyphname = b;
lastChange = "2019-04-19 17:56:10 +0000";
layers = (
{
backgroundImage = {
crop = "{{29.708, 110.952}, {130.207, 303.521}}";
imagePath = "../../../../Desktop/SPECIMEN/glyphset jpeg/Ptolemy_glyphset/b_bdc.png";
locked = "1";
transform = "{3.89088, 0, 0, 3.89088, -190, -779}";
};
guideLines = (
{
angle = 207.3396;
position = "{-3, -3964}";
},
{
angle = 214.992;
position = "{116, 748}";
},
{
angle = 206.8962;
position = "{206, 425}";
}
);
layerId = UUID0;
paths = (
{
closed = 1;
nodes = (
"162 -10 OFFCURVE",
"57 52 OFFCURVE",
"57 156 CURVE SMOOTH",
"57 660 LINE",
"16 635 LINE",
"0 670 LINE",
"36 689 OFFCURVE",
"82 715 OFFCURVE",
"134 748 CURVE",
"145 740 LINE",
"140 699 OFFCURVE",
"137 658 OFFCURVE",
"137 587 CURVE SMOOTH",
"137 390 LINE",
"275 460 LINE",
"348 448 OFFCURVE",
"425 380 OFFCURVE",
"425 272 CURVE SMOOTH",
"425 117 OFFCURVE",
"278 13 OFFCURVE",
"201 -10 CURVE"
);
},
{
closed = 1;
nodes = (
"137 196 LINE SMOOTH",
"137 123 OFFCURVE",
"186 65 OFFCURVE",
"235 65 CURVE SMOOTH",
"289 65 OFFCURVE",
"350 145 OFFCURVE",
"350 232 CURVE SMOOTH",
"350 325 OFFCURVE",
"287 390 OFFCURVE",
"228 390 CURVE SMOOTH",
"192 390 OFFCURVE",
"160 376 OFFCURVE",
"137 364 CURVE"
);
}
);
width = 445;
},
{
associatedMasterId = UUID0;
guideLines = (
{
angle = 207.3396;
position = "{7, -3964}";
}
);
hints = (
{
place = "{7, 122}";
type = Stem;
},
{
place = "{71, 75}";
type = Stem;
},
{
place = "{334, 68}";
type = Stem;
},
{
horizontal = 1;
place = "{739, -20}";
target = down;
type = TopGhost;
}
);
layerId = "0ADD66A4-3752-41D7-BF48-72C5C0EECBB5";
name = "Feb 14 19, 10:53";
paths = (
{
closed = 1;
nodes = (
"166 -10 OFFCURVE",
"57 42 OFFCURVE",
"57 146 CURVE",
"57 650 LINE",
"14 629 LINE",
"10 631 LINE",
"10 674 LINE",
"131 738 LINE",
"137 735 LINE",
"136 390 LINE",
"246 461 LINE",
"279 461 OFFCURVE",
"405 422 OFFCURVE",
"405 254 CURVE SMOOTH",
"405 89 OFFCURVE",
"203 -10 OFFCURVE",
"185 -10 CURVE SMOOTH"
);
},
{
closed = 1;
nodes = (
"137 175 LINE SMOOTH",
"137 122 OFFCURVE",
"179 77 OFFCURVE",
"218 77 CURVE SMOOTH",
"272 77 OFFCURVE",
"329 147 OFFCURVE",
"329 236 CURVE SMOOTH",
"329 317 OFFCURVE",
"294 387 OFFCURVE",
"214 387 CURVE SMOOTH",
"167 387 OFFCURVE",
"137 360 OFFCURVE",
"137 360 CURVE SMOOTH"
);
}
);
width = 430;
}
);
unicode = 0062;
},
{
color = 4;
glyphname = c;
lastChange = "2019-04-19 17:56:10 +0000";
layers = (
{
backgroundImage = {
crop = "{{33.411, 173.43}, {105.602, 185.59}}";
imagePath = "../../../../Desktop/SPECIMEN/glyphset jpeg/Ptolemy_glyphset/c_bdc.png";
locked = "1";
transform = "{3.91467, 0, 0, 3.91467, -142, -839}";
};
guideLines = (
{
angle = 214.992;
position = "{278, 355}";
}
);
layerId = UUID0;
paths = (
{
closed = 1;
nodes = (
"265 78 OFFCURVE",
"308 88 OFFCURVE",
"338 107 CURVE",
"354 83 LINE",
"310 41 OFFCURVE",
"280 18 OFFCURVE",
"235 -10 CURVE",
"103 1 OFFCURVE",
"40 74 OFFCURVE",
"40 211 CURVE SMOOTH",
"40 273 OFFCURVE",
"50 360 OFFCURVE",
"76 390 CURVE SMOOTH",
"91 407 OFFCURVE",
"174 460 OFFCURVE",
"201 460 CURVE SMOOTH",
"229 460 OFFCURVE",
"299 433 OFFCURVE",
"343 403 CURVE",
"343 400 LINE",
"278 355 LINE",
"241 375 OFFCURVE",
"176 400 OFFCURVE",
"158 400 CURVE SMOOTH",
"126 400 OFFCURVE",
"110 310 OFFCURVE",
"110 261 CURVE SMOOTH",
"110 140 OFFCURVE",
"165 78 OFFCURVE",
"245 78 CURVE SMOOTH"
);
}
);
width = 364;
},
{
associatedMasterId = UUID0;
hints = (
{
place = "{33, 69}";
type = Stem;
},
{
horizontal = 1;
place = "{-10, 83}";
type = Stem;
},
{
horizontal = 1;
place = "{389, 71}";
type = Stem;
}
);
layerId = "7DFC995C-0FD9-45BE-8E8C-3BCDF03D5FF4";
name = "Feb 14 19, 10:54";
paths = (
{
closed = 1;
nodes = (
"253 77 OFFCURVE",
"290 96 OFFCURVE",
"327 116 CURVE",
"347 88 LINE",
"296 47 OFFCURVE",
"229 -10 OFFCURVE",
"208 -10 CURVE SMOOTH",
"86 -10 OFFCURVE",
"25 84 OFFCURVE",
"25 201 CURVE SMOOTH",
"25 343 OFFCURVE",
"111 460 OFFCURVE",
"183 460 CURVE SMOOTH",
"239 460 OFFCURVE",
"337 436 OFFCURVE",
"337 415 CURVE SMOOTH",
"337 391 OFFCURVE",
"289 354 OFFCURVE",
"278 354 CURVE SMOOTH",
"266 354 OFFCURVE",
"209 387 OFFCURVE",
"158 387 CURVE SMOOTH",
"116 387 OFFCURVE",
"94 307 OFFCURVE",
"94 237 CURVE SMOOTH",
"94 154 OFFCURVE",
"140 77 OFFCURVE",
"218 77 CURVE SMOOTH"
);
}
);
width = 357;
}
);
unicode = 0063;
},
{
color = 4;
glyphname = ccedilla;
lastChange = "2019-04-19 17:56:10 +0000";
layers = (
{
backgroundImage = {
crop = "{{49.017, 105.876}, {80.732, 160.561}}";
imagePath = "../../../../Desktop/SPECIMEN/glyphset jpeg/Ptolemy_glyphset/c_cédilla.png";
locked = "1";
transform = "{5.1252, 0, 0, 5.1252, -265, -850}";
};
layerId = UUID0;
paths = (
{
closed = 1;
nodes = (
"271 65 OFFCURVE",
"304 85 OFFCURVE",
"334 107 CURVE",
"350 85 LINE",
"306 47 OFFCURVE",
"266 18 OFFCURVE",
"221 -10 CURVE",
"67 -6 OFFCURVE",
"30 94 OFFCURVE",
"30 221 CURVE SMOOTH",
"30 349 OFFCURVE",
"130 460 OFFCURVE",
"207 460 CURVE SMOOTH",
"235 460 OFFCURVE",
"295 439 OFFCURVE",
"349 423 CURVE",
"349 410 LINE",
"278 358 LINE",
"241 374 OFFCURVE",
"174 398 OFFCURVE",
"136 398 CURVE SMOOTH",
"114 398 OFFCURVE",
"90 320 OFFCURVE",
"90 261 CURVE SMOOTH",
"90 150 OFFCURVE",
"151 65 OFFCURVE",
"231 65 CURVE SMOOTH"
);
},
{
closed = 1;
nodes = (
"217 6 LINE",
"203 -13 OFFCURVE",
"195 -33 OFFCURVE",
"195 -45 CURVE SMOOTH",
"195 -87 OFFCURVE",
"311 -57 OFFCURVE",
"311 -127 CURVE SMOOTH",
"311 -179 OFFCURVE",
"234 -265 OFFCURVE",
"110 -265 CURVE",
"106 -237 LINE",
"195 -237 OFFCURVE",
"251 -190 OFFCURVE",
"251 -152 CURVE SMOOTH",
"251 -104 OFFCURVE",
"141 -126 OFFCURVE",
"141 -87 CURVE SMOOTH",
"141 -59 OFFCURVE",
"177 -17 OFFCURVE",
"197 15 CURVE"
);
}
);
width = 360;
}
);
unicode = 00E7;
},
{
color = 4;
glyphname = c_t;
lastChange = "2019-04-19 17:56:10 +0000";
layers = (
{
backgroundImage = {
crop = "{{30.337, 199.372}, {164.897, 220.408}}";
imagePath = "../../../../Desktop/SPECIMEN/glyphset jpeg/Ptolemy_glyphset/c_t.png";
locked = "1";
transform = "{3.89289, 0.06795, -0.06795, 3.89289, -77, -833}";
};
layerId = UUID0;
paths = (
{
closed = 1;
nodes = (
"583 64 OFFCURVE",
"508 9 OFFCURVE",
"458 -10 CURVE",
"400 -10 OFFCURVE",
"361 60 OFFCURVE",
"361 110 CURVE SMOOTH",
"361 390 LINE",
"361 462 LINE SMOOTH",
"361 588 OFFCURVE",
"349 675 OFFCURVE",
"238 675 CURVE SMOOTH",
"197 675 OFFCURVE",
"152 646 OFFCURVE",
"152 596 CURVE SMOOTH",
"152 550 OFFCURVE",
"194 502 OFFCURVE",
"259 468 CURVE",
"243 445 LINE",
"174 483 OFFCURVE",
"82 537 OFFCURVE",
"82 608 CURVE SMOOTH",
"82 661 OFFCURVE",
"143 710 OFFCURVE",
"233 710 CURVE SMOOTH",
"378 710 OFFCURVE",
"442 626 OFFCURVE",
"442 518 CURVE SMOOTH",
"442 450 LINE",
"622 450 LINE",
"612 390 LINE",
"441 390 LINE",
"441 158 LINE SMOOTH",
"441 88 OFFCURVE",
"455 65 OFFCURVE",
"493 65 CURVE SMOOTH",
"520 65 OFFCURVE",
"552 86 OFFCURVE",
"593 120 CURVE",
"610 98 LINE"
);
},
{
closed = 1;
nodes = (
"281 65 OFFCURVE",
"336 106 OFFCURVE",
"366 131 CURVE",
"382 103 LINE",
"338 65 OFFCURVE",
"276 18 OFFCURVE",
"231 -10 CURVE",
"77 -6 OFFCURVE",
"40 94 OFFCURVE",
"40 211 CURVE SMOOTH",
"40 349 OFFCURVE",
"123 416 OFFCURVE",
"210 436 CURVE",
"238 426 OFFCURVE",
"293 406 OFFCURVE",
"344 380 CURVE",
"344 370 LINE",
"290 325 LINE",
"225 359 OFFCURVE",
"179 372 OFFCURVE",
"151 372 CURVE SMOOTH",
"129 372 OFFCURVE",
"100 320 OFFCURVE",
"100 261 CURVE SMOOTH",
"100 150 OFFCURVE",
"141 65 OFFCURVE",
"241 65 CURVE SMOOTH"
);
}
);
width = 632;
}
);
leftMetricsKey = c;
rightMetricsKey = t;
},
{
color = 4;
glyphname = d;
lastChange = "2019-04-19 17:56:10 +0000";
layers = (
{
backgroundImage = {
crop = "{{44.724, 190.353}, {129.786, 242.355}}";
imagePath = "../../../../Desktop/SPECIMEN/glyphset jpeg/Ptolemy_glyphset/d_bdc.png";
locked = "1";
transform = "{3.95589, 0, 0, 3.95589, -158, -882}";
};
layerId = UUID0;
paths = (
{
closed = 1;
nodes = (
"421 484 OFFCURVE",
"419 211 OFFCURVE",
"424 65 CURVE",
"482 75 LINE",
"490 42 LINE",
"442 27 OFFCURVE",
"394 9 OFFCURVE",
"348 -10 CURVE",
"342 -5 LINE",
"342 79 LINE",
"215 -10 LINE",
"105 -10 OFFCURVE",
"40 82 OFFCURVE",
"40 192 CURVE SMOOTH",
"40 327 OFFCURVE",
"138 430 OFFCURVE",
"273 430 CURVE SMOOTH",
"296 430 OFFCURVE",
"321 427 OFFCURVE",
"344 421 CURVE",
"344 622 LINE",
"281 608 LINE",
"269 640 LINE",
"323 662 OFFCURVE",
"373 686 OFFCURVE",
"419 710 CURVE",
"429 700 LINE"
);
},
{
closed = 1;
nodes = (
"345 314 LINE",
"323 359 OFFCURVE",
"284 390 OFFCURVE",
"240 390 CURVE SMOOTH",
"168 390 OFFCURVE",
"100 326 OFFCURVE",
"100 233 CURVE SMOOTH",
"100 143 OFFCURVE",
"155 65 OFFCURVE",
"240 65 CURVE SMOOTH",
"277 65 OFFCURVE",
"324 96 OFFCURVE",
"345 122 CURVE"
);
}
);
width = 515;
}
);
unicode = 0064;
},
{
color = 4;
glyphname = e;
lastChange = "2019-04-19 17:56:10 +0000";
layers = (
{
backgroundImage = {
crop = "{{20.684, 175.418}, {118.84, 225.143}}";
imagePath = "../../../../Desktop/SPECIMEN/glyphset jpeg/Ptolemy_glyphset/e_bdc.png";
locked = "1";
transform = "{3.74085, 0, 0, 3.74085, -107, -832}";
};
layerId = UUID0;
paths = (
{
closed = 1;
nodes = (
"100 319 OFFCURVE",
"140 390 OFFCURVE",
"167 390 CURVE SMOOTH",
"183 390 OFFCURVE",
"221 349 OFFCURVE",
"241 311 CURVE",
"101 203 LINE",
"111 177 LINE",
"325 318 LINE",
"327 326 LINE",
"303 393 OFFCURVE",
"246 443 OFFCURVE",
"195 461 CURVE",
"108 409 OFFCURVE",
"40 331 OFFCURVE",
"40 208 CURVE SMOOTH",
"40 117 OFFCURVE",
"85 -7 OFFCURVE",
"245 -10 CURVE",
"337 93 LINE",
"318 111 LINE",
"298 93 OFFCURVE",
"269 75 OFFCURVE",
"241 75 CURVE SMOOTH",
"147 75 OFFCURVE",
"100 156 OFFCURVE",
"100 256 CURVE SMOOTH"
);
}
);
width = 350;
},
{
associatedMasterId = UUID0;
hints = (
{
place = "{239, 89}";
type = Stem;
},
{
horizontal = 1;
place = "{-10, 95}";
type = Stem;
},
{
horizontal = 1;
place = "{394, 67}";
type = Stem;
}
);
layerId = "031426C2-7C91-425F-904A-456C96FBC0C7";
name = "Feb 14 19, 10:54";
paths = (
{
closed = 1;
nodes = (
"327 324 LINE",
"328 341 LINE",
"311 390 OFFCURVE",
"245 461 OFFCURVE",
"178 461 CURVE SMOOTH",
"157 461 OFFCURVE",
"76 384 OFFCURVE",
"63 364 CURVE SMOOTH",
"53 349 OFFCURVE",
"31 303 OFFCURVE",
"31 208 CURVE SMOOTH",
"31 87 OFFCURVE",
"98 -10 OFFCURVE",
"238 -10 CURVE SMOOTH",
"251 -10 OFFCURVE",
"326 92 OFFCURVE",
"326 92 CURVE",
"309 116 LINE",
"281 98 OFFCURVE",
"258 77 OFFCURVE",
"222 77 CURVE SMOOTH",
"162 77 OFFCURVE",
"125 124 OFFCURVE",
"110 186 CURVE"
);
},
{
closed = 1;
nodes = (
"103 219 LINE",
"89 302 OFFCURVE",
"116 396 OFFCURVE",
"163 396 CURVE SMOOTH",
"179 396 OFFCURVE",
"219 359 OFFCURVE",
"239 311 CURVE"
);
}
);
width = 357;
}
);
unicode = 0065;
},
{
color = 4;
glyphname = f;
lastChange = "2019-04-19 17:56:10 +0000";
layers = (
{
backgroundImage = {
crop = "{{51.795, 150.737}, {109.935, 257.265}}";
imagePath = "../../../../Desktop/SPECIMEN/glyphset jpeg/Ptolemy_glyphset/f_bdc.png";
locked = "1";
transform = "{3.88587, 0, 0, 3.88587, -198, -733}";
};
layerId = UUID0;
paths = (
{
closed = 1;
nodes = (
"393 624 OFFCURVE",
"376 618 OFFCURVE",
"362 618 CURVE SMOOTH",
"332 618 OFFCURVE",
"322 651 OFFCURVE",
"272 651 CURVE SMOOTH",
"198 651 OFFCURVE",
"134 588 OFFCURVE",
"134 475 CURVE SMOOTH",
"134 430 LINE",
"295 430 LINE",
"295 390 LINE",
"139 390 LINE",
"139 41 LINE",
"203 53 LINE",
"209 15 LINE",
"161 8 OFFCURVE",
"111 -1 OFFCURVE",
"57 -10 CURVE",
"54 -5 LINE",
"63 185 OFFCURVE",
"64 229 OFFCURVE",
"64 440 CURVE",
"24 440 LINE",
"20 450 LINE",
"62 539 OFFCURVE",
"150 693 OFFCURVE",
"302 693 CURVE SMOOTH",
"346 693 OFFCURVE",
"393 672 OFFCURVE",
"393 646 CURVE SMOOTH"
);
}
);
width = 303;
},
{
associatedMasterId = UUID0;
hints = (
{
place = "{78, 79}";
type = Stem;
},
{
horizontal = 1;
place = "{402, 48}";
type = Stem;
},
{
horizontal = 1;
place = "{612, 88}";
type = Stem;
},
{
horizontal = 1;
place = "{672, 28}";
type = Stem;
},
{
horizontal = 1;
place = "{-4, 21}";
target = up;
type = BottomGhost;
}
);
layerId = "F2975174-5AC5-45E5-AA5C-5188BA53554D";
name = "Feb 14 19, 10:55";
paths = (
{
closed = 1;
nodes = (
"392 642 OFFCURVE",
"386 633 OFFCURVE",
"369 633 CURVE SMOOTH",
"319 633 OFFCURVE",
"315 672 OFFCURVE",
"265 672 CURVE SMOOTH",
"215 672 OFFCURVE",
"181 630 OFFCURVE",
"170 611 CURVE SMOOTH",
"147 571 OFFCURVE",
"150 495 OFFCURVE",
"150 450 CURVE",
"318 450 LINE",
"318 402 LINE",
"157 402 LINE",
"157 40 LINE",
"215 46 LINE",
"215 6 LINE",
"75 -10 LINE",
"75 -10 OFFCURVE",
"78 190 OFFCURVE",
"78 314 CURVE",
"77 443 LINE",
"38 443 LINE SMOOTH",
"38 443 OFFCURVE",
"118 700 OFFCURVE",
"275 700 CURVE SMOOTH",
"339 700 OFFCURVE",
"392 683 OFFCURVE",
"392 653 CURVE SMOOTH"
);
}
);
width = 311;
}
);
unicode = 0066;
},
{
color = 4;
glyphname = f_f;
lastChange = "2019-04-19 17:56:10 +0000";
layers = (
{
backgroundImage = {
crop = "{{28.79, 130.017}, {96.453, 148.962}}";
imagePath = "../../../../Desktop/SPECIMEN/glyphset jpeg/Ptolemy_glyphset/f_f.png";
locked = "1";
transform = "{6.44117, 0, 0, 6.44117, -185, -985}";
};
layerId = UUID0;
paths = (
{
closed = 1;
nodes = (
"336 593 LINE",
"322 619 OFFCURVE",
"281 653 OFFCURVE",
"230 653 CURVE SMOOTH",
"173 653 OFFCURVE",
"132 609 OFFCURVE",
"132 498 CURVE SMOOTH",
"132 435 LINE",
"247 435 LINE",
"255 450 OFFCURVE",
"278 532 OFFCURVE",
"301 569 CURVE SMOOTH",
"338 628 OFFCURVE",
"391 693 OFFCURVE",
"488 693 CURVE SMOOTH",
"541 693 OFFCURVE",
"584 663 OFFCURVE",
"584 639 CURVE SMOOTH",
"584 624 OFFCURVE",
"568 611 OFFCURVE",
"545 611 CURVE SMOOTH",
"512 611 OFFCURVE",
"505 653 OFFCURVE",
"458 653 CURVE SMOOTH",
"369 653 OFFCURVE",
"355 551 OFFCURVE",
"355 435 CURVE",
"475 435 LINE",
"465 390 LINE",
"357 390 LINE",
"357 319 LINE",
"287 319 LINE",
"287 390 LINE",
"129 390 LINE",
"129 349 LINE",
"54 349 LINE",
"54 460 LINE",
"23 460 LINE",
"20 470 LINE",
"70 515 OFFCURVE",
"113 693 OFFCURVE",
"250 693 CURVE SMOOTH",
"307 693 OFFCURVE",
"354 663 OFFCURVE",
"375 637 CURVE"
);
},
{
closed = 1;
nodes = (
"129 390 LINE",
"129 41 LINE",
"193 53 LINE",
"199 15 LINE",
"151 8 OFFCURVE",
"101 -1 OFFCURVE",
"53 -10 CURVE",
"50 -5 LINE",
"54 185 OFFCURVE",
"55 224 OFFCURVE",
"54 435 CURVE"
);
},
{
closed = 1;
nodes = (
"361 390 LINE",
"361 41 LINE",
"430 53 LINE",
"436 15 LINE",
"388 9 OFFCURVE",
"333 0 OFFCURVE",
"285 -10 CURVE",
"282 -5 LINE",
"286 185 OFFCURVE",
"287 229 OFFCURVE",
"286 440 CURVE"
);
}
);
width = 494;
},
{
associatedMasterId = UUID0;
hints = (
{
place = "{87, 80}";
type = Stem;
},
{
place = "{305, 80}";
type = Stem;
},
{
horizontal = 1;
place = "{413, 40}";
type = Stem;
},
{
horizontal = 1;
place = "{635, 75}";
type = Stem;
},
{
horizontal = 1;
place = "{682, 28}";
type = Stem;
},
{
horizontal = 1;
place = "{0, 21}";
target = up;
type = BottomGhost;
}
);
layerId = "FD799441-CD6A-4539-B7FF-E96CCFC9DEBE";
name = "Feb 14 19, 10:56";
paths = (
{
closed = 1;
nodes = (
"305 0 LINE",
"305 413 LINE",
"167 413 LINE",
"167 69 LINE",
"217 84 LINE",
"217 39 LINE",
"87 0 LINE",
"87 446 LINE",
"41 446 LINE",
"41 446 OFFCURVE",
"121 710 OFFCURVE",
"288 710 CURVE SMOOTH",
"367 710 OFFCURVE",
"395 690 OFFCURVE",
"405 675 CURVE",
"434 696 OFFCURVE",
"468 710 OFFCURVE",
"506 710 CURVE SMOOTH",
"619 710 OFFCURVE",
"628 670 OFFCURVE",
"628 660 CURVE SMOOTH",
"628 645 OFFCURVE",
"621 636 OFFCURVE",
"600 635 CURVE SMOOTH",
"570 634 OFFCURVE",
"563 682 OFFCURVE",
"506 682 CURVE SMOOTH",
"397 682 OFFCURVE",
"385 569 OFFCURVE",
"385 453 CURVE",
"523 453 LINE",
"523 413 LINE",
"385 413 LINE",
"385 69 LINE",
"435 84 LINE",
"435 39 LINE"
);
},
{
closed = 1;
nodes = (
"179 682 OFFCURVE",
"167 569 OFFCURVE",
"167 453 CURVE",
"261 453 LINE",
"270 479 OFFCURVE",
"304 572 OFFCURVE",
"366 639 CURVE",
"347 651 OFFCURVE",
"333 682 OFFCURVE",
"288 682 CURVE SMOOTH"
);
}
);
width = 542;
}
);
leftMetricsKey = f;
rightMetricsKey = f;
unicode = FB00;
},
{
color = 4;
glyphname = f_i;
lastChange = "2019-04-19 17:56:10 +0000";
layers = (
{
backgroundImage = {
crop = "{{18.1, 159.482}, {112.097, 201.385}}";
imagePath = "../../../../Desktop/SPECIMEN/glyphset jpeg/Ptolemy_glyphset/f_i.png";
locked = "1";
transform = "{4.54931, 0, 0, 4.54931, -110, -855}";
};
layerId = UUID0;
paths = (
{
closed = 1;
nodes = (
"361 615 OFFCURVE",
"346 608 OFFCURVE",
"332 608 CURVE SMOOTH",
"302 608 OFFCURVE",
"287 651 OFFCURVE",
"241 651 CURVE SMOOTH",
"184 651 OFFCURVE",
"133 572 OFFCURVE",
"133 435 CURVE",
"364 435 LINE",
"364 390 LINE",
"128 390 LINE",
"128 41 LINE",
"192 53 LINE",
"198 15 LINE",
"149 8 OFFCURVE",
"105 -1 OFFCURVE",
"60 -10 CURVE",
"57 -5 LINE",
"60 185 OFFCURVE",
"63 229 OFFCURVE",
"60 460 CURVE",
"23 460 LINE",
"20 470 LINE",
"93 552 OFFCURVE",
"150 693 OFFCURVE",
"272 693 CURVE SMOOTH",
"319 693 OFFCURVE",
"361 663 OFFCURVE",
"361 637 CURVE SMOOTH"
);
},
{
closed = 1;
nodes = (
"384 460 LINE",
"389 455 LINE",
"384 317 OFFCURVE",
"380 179 OFFCURVE",
"379 41 CURVE",
"443 53 LINE",
"449 15 LINE",
"401 8 OFFCURVE",
"358 -1 OFFCURVE",
"304 -10 CURVE",
"301 -5 LINE",
"306 138 OFFCURVE",
"310 280 OFFCURVE",
"311 423 CURVE"
);
}
);
width = 464;
}
);
leftMetricsKey = f;
rightMetricsKey = i;
},
{
color = 4;
glyphname = f_l;
lastChange = "2019-04-19 17:56:10 +0000";
layers = (
{
backgroundImage = {
crop = "{{28.279, 132.168}, {129.386, 252.581}}";
imagePath = "../../../../Desktop/SPECIMEN/glyphset jpeg/Ptolemy_glyphset/f_l.png";
locked = "1";
transform = "{4.35747, 0, 0, 4.35747, -196, -768}";
};
layerId = UUID0;
paths = (
{
closed = 1;
nodes = (
"341 435 LINE",
"137 435 LINE",
"137 477 LINE SMOOTH",
"137 580 OFFCURVE",
"157 641 OFFCURVE",
"231 641 CURVE SMOOTH",
"267 641 OFFCURVE",
"278 601 OFFCURVE",
"308 601 CURVE SMOOTH",
"315 601 OFFCURVE",
"339 607 OFFCURVE",
"341 613 CURVE",
"350 663 LINE",
"330 674 OFFCURVE",
"304 683 OFFCURVE",
"271 683 CURVE SMOOTH",
"119 683 OFFCURVE",
"72 549 OFFCURVE",
"20 470 CURVE",
"23 460 LINE",
"63 460 LINE",
"64 229 OFFCURVE",
"65 185 OFFCURVE",
"58 -5 CURVE",
"61 -10 LINE",
"115 -1 OFFCURVE",
"160 8 OFFCURVE",
"208 15 CURVE",
"202 53 LINE",
"142 41 LINE",
"142 390 LINE",
"341 390 LINE"
);
},
{
closed = 1;
nodes = (
"331 205 OFFCURVE",
"330 168 OFFCURVE",
"324 -5 CURVE",
"327 -10 LINE",
"381 -1 OFFCURVE",
"429 8 OFFCURVE",
"477 15 CURVE",
"471 53 LINE",
"407 41 LINE",
"407 593 LINE SMOOTH",
"407 645 OFFCURVE",
"407 718 OFFCURVE",
"426 736 CURVE",
"415 750 LINE",
"397 740 OFFCURVE",
"382 729 OFFCURVE",
"368 715 CURVE",
"321 751 LINE",
"304 733 LINE",
"325 707 OFFCURVE",
"330 679 OFFCURVE",
"330 633 CURVE"
);
}
);
width = 497;
}
);
leftMetricsKey = f;
rightMetricsKey = l;
},
{
color = 4;
glyphname = f_f_i;
lastChange = "2019-04-19 17:56:10 +0000";
layers = (
{
backgroundImage = {
crop = "{{61.83, 181.532}, {185.094, 235.848}}";
imagePath = "../../../../Desktop/SPECIMEN/glyphset jpeg/Ptolemy_glyphset/f_f_i.png";
locked = "1";
transform = "{3.8019, 0, 0, 3.8019, -229, -796}";
};
layerId = UUID0;
paths = (
{
closed = 1;
nodes = (
"349 565 LINE",
"341 594 OFFCURVE",
"311 651 OFFCURVE",
"251 651 CURVE SMOOTH",
"187 651 OFFCURVE",
"133 588 OFFCURVE",
"133 475 CURVE SMOOTH",
"133 434 LINE",
"294 434 LINE",
"294 390 LINE",
"138 390 LINE",
"138 41 LINE",
"202 53 LINE",
"208 15 LINE",
"160 8 OFFCURVE",
"110 -1 OFFCURVE",
"56 -10 CURVE",
"53 -5 LINE",
"63 185 OFFCURVE",
"64 249 OFFCURVE",
"63 460 CURVE",
"23 460 LINE",
"20 470 LINE",
"72 529 OFFCURVE",
"139 693 OFFCURVE",
"271 693 CURVE SMOOTH",
"335 693 OFFCURVE",
"392 633 OFFCURVE",
"392 607 CURVE"
);
},
{
closed = 1;
nodes = (
"588 615 OFFCURVE",
"573 608 OFFCURVE",
"559 608 CURVE SMOOTH",
"529 608 OFFCURVE",
"514 651 OFFCURVE",
"468 651 CURVE SMOOTH",
"411 651 OFFCURVE",
"360 572 OFFCURVE",
"360 435 CURVE",
"591 435 LINE",
"591 390 LINE",
"355 390 LINE",
"355 41 LINE",
"419 53 LINE",
"425 15 LINE",
"377 8 OFFCURVE",
"334 -1 OFFCURVE",
"280 -10 CURVE",
"277 -5 LINE",
"287 185 OFFCURVE",
"288 229 OFFCURVE",
"287 460 CURVE",
"250 460 LINE",
"247 470 LINE",
"320 552 OFFCURVE",
"377 693 OFFCURVE",
"499 693 CURVE SMOOTH",
"546 693 OFFCURVE",
"588 663 OFFCURVE",
"588 637 CURVE SMOOTH"
);
},
{
closed = 1;
nodes = (
"614 460 LINE",
"619 455 LINE",
"609 319 OFFCURVE",
"608 177 OFFCURVE",
"609 41 CURVE",
"673 53 LINE",
"679 15 LINE",
"631 8 OFFCURVE",
"588 -1 OFFCURVE",
"534 -10 CURVE",
"531 -5 LINE",
"540 185 OFFCURVE",
"541 192 OFFCURVE",
"541 423 CURVE"
);
}
);
width = 694;
}
);
leftMetricsKey = f;
rightMetricsKey = i;
},
{
color = 4;
glyphname = f_f_l;
lastChange = "2019-04-19 17:56:10 +0000";
layers = (
{
backgroundImage = {
crop = "{{20.657, 106.681}, {154.99, 191.322}}";
imagePath = "../../../../Desktop/SPECIMEN/glyphset jpeg/Ptolemy_glyphset/f_f_l.png";
locked = "1";
transform = "{5.05227, 0, 0, 5.05227, -122, -668}";
};
layerId = UUID0;
paths = (
{
closed = 1;
nodes = (
"585 679 OFFCURVE",
"580 707 OFFCURVE",
"559 733 CURVE",
"576 751 LINE",
"623 715 LINE",
"637 729 OFFCURVE",
"652 740 OFFCURVE",
"670 750 CURVE",
"681 736 LINE",
"662 718 OFFCURVE",
"662 645 OFFCURVE",
"662 593 CURVE SMOOTH",
"662 41 LINE",
"726 53 LINE",
"732 15 LINE",
"684 8 OFFCURVE",
"636 -1 OFFCURVE",
"582 -10 CURVE",
"579 -5 LINE",
"585 168 OFFCURVE",
"586 205 OFFCURVE",
"585 633 CURVE"
);
},
{
closed = 1;
nodes = (
"360 577 LINE",
"346 603 OFFCURVE",
"296 643 OFFCURVE",
"245 643 CURVE SMOOTH",
"198 643 OFFCURVE",
"137 609 OFFCURVE",
"137 498 CURVE SMOOTH",
"137 435 LINE",
"282 435 LINE",
"290 450 OFFCURVE",
"313 532 OFFCURVE",
"336 569 CURVE SMOOTH",
"373 628 OFFCURVE",
"426 693 OFFCURVE",
"523 693 CURVE SMOOTH",
"576 693 OFFCURVE",
"619 663 OFFCURVE",
"619 639 CURVE SMOOTH",
"619 624 OFFCURVE",
"603 611 OFFCURVE",
"580 611 CURVE SMOOTH",
"547 611 OFFCURVE",
"540 653 OFFCURVE",
"493 653 CURVE SMOOTH",
"404 653 OFFCURVE",
"380 551 OFFCURVE",
"380 435 CURVE",
"506 435 LINE",
"496 390 LINE",
"382 390 LINE",
"382 319 LINE",
"312 319 LINE",
"312 390 LINE",
"134 390 LINE",
"134 349 LINE",
"59 349 LINE",
"59 460 LINE",
"23 460 LINE",
"20 470 LINE",
"70 518 OFFCURVE",
"128 693 OFFCURVE",
"285 693 CURVE SMOOTH",
"342 693 OFFCURVE",
"389 663 OFFCURVE",
"410 637 CURVE"
);
},
{
closed = 1;
nodes = (
"134 390 LINE",
"134 41 LINE",
"198 53 LINE",
"204 15 LINE",
"156 8 OFFCURVE",
"106 -1 OFFCURVE",
"58 -10 CURVE",
"55 -5 LINE",
"59 185 OFFCURVE",
"60 224 OFFCURVE",
"59 435 CURVE"
);
},
{
closed = 1;
nodes = (
"386 390 LINE",
"386 41 LINE",
"455 53 LINE",
"461 15 LINE",
"413 9 OFFCURVE",
"358 0 OFFCURVE",
"310 -10 CURVE",
"307 -5 LINE",
"311 185 OFFCURVE",
"312 229 OFFCURVE",
"311 440 CURVE"
);
}
);
width = 752;
},
{
associatedMasterId = UUID0;
hints = (
{
place = "{91, 80}";
type = Stem;
},
{
place = "{309, 80}";
type = Stem;
},
{
place = "{578, 79}";
type = Stem;
},
{
horizontal = 1;
place = "{413, 40}";
type = Stem;
},
{
horizontal = 1;
place = "{682, 28}";
type = Stem;
},
{
horizontal = 1;
place = "{0, 21}";
target = up;
type = BottomGhost;
}
);
layerId = "211468AC-F445-481B-8B8F-B09ACBF8D843";
name = "Feb 16 19, 17:58";
paths = (
{
closed = 1;
nodes = (
"624 737 OFFCURVE",
"642 747 OFFCURVE",
"663 763 CURVE SMOOTH",
"677 773 OFFCURVE",
"688 763 OFFCURVE",
"682 753 CURVE",
"659 732 OFFCURVE",
"660 711 OFFCURVE",
"657 700 CURVE",
"657 69 LINE",
"707 84 LINE",
"707 39 LINE",
"578 0 LINE",
"578 647 LINE",
"563 661 OFFCURVE",
"547 682 OFFCURVE",
"510 682 CURVE SMOOTH",
"401 682 OFFCURVE",
"389 569 OFFCURVE",
"389 453 CURVE",
"527 453 LINE",
"527 413 LINE",
"389 413 LINE",
"389 69 LINE",
"439 84 LINE",
"439 39 LINE",
"309 0 LINE",
"309 413 LINE",
"171 413 LINE",
"171 69 LINE",
"221 84 LINE",
"221 39 LINE",
"91 0 LINE",
"91 446 LINE",
"45 446 LINE",
"66 533 OFFCURVE",
"125 710 OFFCURVE",
"292 710 CURVE SMOOTH",
"371 710 OFFCURVE",
"399 690 OFFCURVE",
"409 675 CURVE",
"438 696 OFFCURVE",
"472 710 OFFCURVE",
"510 710 CURVE SMOOTH",
"538 710 OFFCURVE",
"560 707 OFFCURVE",
"577 703 CURVE",
"575 715 OFFCURVE",
"574 734 OFFCURVE",
"554 753 CURVE",
"548 763 OFFCURVE",
"558 773 OFFCURVE",
"572 763 CURVE SMOOTH",
"594 747 OFFCURVE",
"612 737 OFFCURVE",
"616 726 CURVE",
"618 723 OFFCURVE",
"619 723 OFFCURVE",
"621 726 CURVE"
);
},
{
closed = 1;
nodes = (
"351 651 OFFCURVE",
"337 682 OFFCURVE",
"292 682 CURVE SMOOTH",
"183 682 OFFCURVE",
"171 569 OFFCURVE",
"171 453 CURVE",
"265 453 LINE",
"274 479 OFFCURVE",
"308 572 OFFCURVE",
"370 639 CURVE"
);
}
);
width = 730;
}
);
leftMetricsKey = f;
rightMetricsKey = l;
unicode = FB04;
},
{
color = 4;
glyphname = g;
lastChange = "2019-04-19 17:56:10 +0000";
layers = (
{
layerId = UUID0;
paths = (
{
closed = 1;
nodes = (
"287 112 OFFCURVE",
"387 211 OFFCURVE",
"388 251 CURVE SMOOTH",
"389 298 OFFCURVE",
"382 338 OFFCURVE",
"364 367 CURVE SMOOTH",
"337 412 OFFCURVE",
"284 454 OFFCURVE",
"209 460 CURVE",
"164 440 OFFCURVE",
"94 393 OFFCURVE",
"91 390 CURVE SMOOTH",
"54 357 OFFCURVE",
"30 316 OFFCURVE",
"30 262 CURVE SMOOTH",
"30 172 OFFCURVE",
"107 112 OFFCURVE",
"197 112 CURVE"
);
},
{
closed = 1;
nodes = (
"290 -21 OFFCURVE",
"377 -71 OFFCURVE",
"377 -147 CURVE SMOOTH",
"377 -207 OFFCURVE",
"319 -245 OFFCURVE",
"239 -245 CURVE SMOOTH",
"149 -245 OFFCURVE",
"91 -198 OFFCURVE",
"91 -128 CURVE SMOOTH",
"91 -50 OFFCURVE",
"156 -10 OFFCURVE",
"226 0 CURVE"
);
},
{
closed = 1;
nodes = (
"259 391 OFFCURVE",
"318 321 OFFCURVE",
"318 241 CURVE SMOOTH",
"318 191 OFFCURVE",
"287 152 OFFCURVE",
"237 152 CURVE SMOOTH",
"157 152 OFFCURVE",
"100 222 OFFCURVE",
"100 302 CURVE SMOOTH",
"100 340 OFFCURVE",
"115 391 OFFCURVE",
"179 391 CURVE SMOOTH"
);
},
{
closed = 1;
nodes = (
"173 126 LINE",
"166 107 OFFCURVE",
"165 94 OFFCURVE",
"165 80 CURVE SMOOTH",
"165 54 OFFCURVE",
"175 41 OFFCURVE",
"194 25 CURVE",
"73 -6 OFFCURVE",
"10 -55 OFFCURVE",
"10 -136 CURVE SMOOTH",
"10 -228 OFFCURVE",
"99 -280 OFFCURVE",
"219 -280 CURVE SMOOTH",
"339 -280 OFFCURVE",
"457 -227 OFFCURVE",
"457 -117 CURVE SMOOTH",
"457 20 OFFCURVE",
"235 43 OFFCURVE",
"235 110 CURVE SMOOTH",
"235 120 OFFCURVE",
"237 122 OFFCURVE",
"241 126 CURVE"
);
},
{
closed = 1;
nodes = (
"321 355 LINE",
"456 355 LINE",
"456 410 LINE",
"321 410 LINE"
);
}
);
width = 467;
},
{
associatedMasterId = UUID0;
hints = (
{
place = "{10, 85}";
type = Stem;
},
{
place = "{40, 79}";
type = Stem;
},
{
place = "{324, 82}";
type = Stem;
},
{
place = "{414, 77}";
type = Stem;
},
{
horizontal = 1;
place = "{-280, 31}";
type = Stem;
},
{
horizontal = 1;
place = "{1, 158}";
type = Stem;
},
{
horizontal = 1;
place = "{357, 53}";
type = Stem;
},
{
horizontal = 1;
place = "{401, 71}";
type = Stem;
}
);
layerId = "6640AA5F-0FC6-45BD-A5DA-4D33C8DBD3A9";
name = "Feb 14 19, 10:57";
paths = (
{
closed = 1;
nodes = (
"348 164 OFFCURVE",
"406 184 OFFCURVE",
"406 269 CURVE SMOOTH",
"406 299 OFFCURVE",
"397 335 OFFCURVE",
"382 357 CURVE",
"475 357 LINE",
"475 410 LINE",
"353 410 LINE",
"323 442 OFFCURVE",
"281 472 OFFCURVE",
"235 472 CURVE",
"221 471 LINE",
"148 429 OFFCURVE",
"40 388 OFFCURVE",
"40 288 CURVE SMOOTH",
"40 206 OFFCURVE",
"99 144 OFFCURVE",
"175 119 CURVE",
"164 87 OFFCURVE",
"170 48 OFFCURVE",
"190 24 CURVE",
"117 7 OFFCURVE",
"10 -34 OFFCURVE",
"10 -137 CURVE SMOOTH",
"10 -247 OFFCURVE",
"138 -280 OFFCURVE",
"244 -280 CURVE SMOOTH",
"352 -280 OFFCURVE",
"491 -231 OFFCURVE",
"491 -102 CURVE SMOOTH",
"491 21 OFFCURVE",
"296 45 OFFCURVE",
"279 69 CURVE SMOOTH",
"267 86 OFFCURVE",
"266 96 OFFCURVE",
"266 116 CURVE"
);
},
{
closed = 1;
nodes = (
"293 -27 OFFCURVE",
"414 -55 OFFCURVE",
"414 -141 CURVE SMOOTH",
"414 -189 OFFCURVE",
"339 -249 OFFCURVE",
"242 -249 CURVE SMOOTH",
"163 -249 OFFCURVE",
"95 -197 OFFCURVE",
"95 -128 CURVE SMOOTH",
"95 -50 OFFCURVE",
"159 -2 OFFCURVE",
"229 1 CURVE"
);
},
{
closed = 1;
nodes = (
"293 401 OFFCURVE",
"324 313 OFFCURVE",
"324 231 CURVE SMOOTH",
"324 194 OFFCURVE",
"303 159 OFFCURVE",
"269 159 CURVE SMOOTH",
"169 159 OFFCURVE",
"122 224 OFFCURVE",
"122 310 CURVE SMOOTH",
"122 348 OFFCURVE",
"137 401 OFFCURVE",
"189 401 CURVE SMOOTH"
);
}
);
width = 493;
},
{
associatedMasterId = UUID0;
hints = (
{
place = "{10, 85}";
type = Stem;
},
{
place = "{40, 79}";
type = Stem;
},
{
place = "{324, 82}";
type = Stem;
},
{
place = "{414, 77}";
type = Stem;
},
{
horizontal = 1;
place = "{-280, 31}";
type = Stem;
},
{
horizontal = 1;
place = "{1, 158}";
type = Stem;
},
{
horizontal = 1;
place = "{357, 53}";
type = Stem;
},
{
horizontal = 1;
place = "{401, 71}";
type = Stem;
}
);
layerId = "3217A18C-61B1-4E06-9B01-5A736568E68C";
name = "Feb 15 19, 12:02";
paths = (
{
closed = 1;
nodes = (
"277 112 OFFCURVE",
"378 191 OFFCURVE",
"378 281 CURVE SMOOTH",
"378 351 OFFCURVE",
"322 450 OFFCURVE",
"199 460 CURVE",
"101 416 OFFCURVE",
"20 362 OFFCURVE",
"20 262 CURVE SMOOTH",
"20 172 OFFCURVE",
"97 112 OFFCURVE",
"187 112 CURVE"
);
},
{
closed = 1;
nodes = (
"280 -21 OFFCURVE",
"372 -71 OFFCURVE",
"372 -147 CURVE SMOOTH",
"372 -207 OFFCURVE",
"309 -246 OFFCURVE",
"229 -246 CURVE SMOOTH",
"139 -246 OFFCURVE",
"75 -198 OFFCURVE",
"75 -118 CURVE SMOOTH",
"75 -50 OFFCURVE",
"146 -10 OFFCURVE",
"216 0 CURVE"
);
},
{
closed = 1;
nodes = (
"249 391 OFFCURVE",
"308 321 OFFCURVE",
"308 241 CURVE SMOOTH",
"308 191 OFFCURVE",
"277 152 OFFCURVE",
"227 152 CURVE SMOOTH",
"147 152 OFFCURVE",
"90 222 OFFCURVE",
"90 302 CURVE SMOOTH",
"90 340 OFFCURVE",
"105 391 OFFCURVE",
"169 391 CURVE SMOOTH"
);
},
{
closed = 1;
nodes = (
"163 126 LINE",
"156 107 OFFCURVE",
"155 94 OFFCURVE",
"155 80 CURVE SMOOTH",
"155 54 OFFCURVE",
"165 41 OFFCURVE",
"184 25 CURVE",
"82 5 OFFCURVE",
"0 -55 OFFCURVE",
"0 -138 CURVE SMOOTH",
"0 -228 OFFCURVE",
"109 -280 OFFCURVE",
"209 -280 CURVE SMOOTH",
"329 -280 OFFCURVE",
"447 -227 OFFCURVE",
"447 -117 CURVE SMOOTH",
"447 20 OFFCURVE",
"225 43 OFFCURVE",
"225 110 CURVE SMOOTH",
"225 120 OFFCURVE",
"227 122 OFFCURVE",
"231 126 CURVE"
);
},
{
closed = 1;
nodes = (
"311 355 LINE",
"446 355 LINE",
"446 410 LINE",
"311 410 LINE"
);
}
);
width = 447;
}
);
unicode = 0067;
},
{
color = 4;
glyphname = h;
lastChange = "2019-04-19 17:56:10 +0000";
layers = (
{
backgroundImage = {
crop = "{{30.97, 144.041}, {151.928, 294.873}}";
imagePath = "../../../../Desktop/SPECIMEN/glyphset jpeg/Ptolemy_glyphset/h_bdc.png";
locked = "1";
transform = "{3.89509, 0, 0, 3.89509, -157, -778}";
};
layerId = UUID0;
paths = (
{
closed = 1;
nodes = (
"159 26 OFFCURVE",
"96 9 OFFCURVE",
"31 -10 CURVE",
"24 24 LINE",
"83 44 LINE",
"83 679 LINE",
"21 658 LINE",
"10 693 LINE",
"68 712 OFFCURVE",
"121 733 OFFCURVE",
"163 750 CURVE",
"170 741 LINE",
"165 700 OFFCURVE",
"163 499 OFFCURVE",
"163 408 CURVE SMOOTH",
"163 364 LINE",
"300 460 LINE",
"420 460 OFFCURVE",
"522 367 OFFCURVE",
"522 247 CURVE SMOOTH",
"522 146 OFFCURVE",
"442 49 OFFCURVE",
"345 -20 CURVE",
"283 -20 LINE",
"283 -16 LINE",
"364 38 OFFCURVE",
"452 114 OFFCURVE",
"452 227 CURVE SMOOTH",
"452 327 OFFCURVE",
"362 380 OFFCURVE",
"292 380 CURVE SMOOTH",
"239 380 OFFCURVE",
"194 353 OFFCURVE",
"163 325 CURVE",
"163 65 LINE",
"213 79 LINE",
"220 41 LINE"
);
}
);
width = 552;
},
{
associatedMasterId = UUID0;
hints = (
{
place = "{31, 136}";
type = Stem;
},
{
place = "{87, 80}";
type = Stem;
},
{
place = "{429, 61}";
type = Stem;
},
{
horizontal = 1;
place = "{373, 86}";
type = Stem;
},
{
horizontal = 1;
place = "{-7, 21}";
target = up;
type = BottomGhost;
},
{
horizontal = 1;
place = "{750, -20}";
target = down;
type = TopGhost;
}
);
layerId = "4ED63E9C-A488-478B-A239-89E9804C98DA";
name = "Feb 14 19, 10:58";
paths = (
{
closed = 1;
nodes = (
"38 0 LINE",
"38 44 LINE",
"87 61 LINE",
"87 681 LINE",
"31 658 LINE",
"31 704 LINE",
"168 750 LINE",
"166 370 LINE",
"273 459 LINE",
"416 459 OFFCURVE",
"490 362 OFFCURVE",
"490 242 CURVE SMOOTH",
"490 59 OFFCURVE",
"315 -7 OFFCURVE",
"315 -7 CURVE",
"287 -7 LINE",
"281 8 LINE",
"333 45 OFFCURVE",
"394 71 OFFCURVE",
"420 142 CURVE",
"427 164 OFFCURVE",
"429 190 OFFCURVE",
"429 220 CURVE SMOOTH",
"429 311 OFFCURVE",
"354 373 OFFCURVE",
"279 373 CURVE SMOOTH",
"211 373 OFFCURVE",
"167 327 OFFCURVE",
"167 327 CURVE",
"166 86 LINE",
"216 101 LINE",
"216 57 LINE"
);
}
);
width = 512;
},
{
associatedMasterId = UUID0;
backgroundImage = {
crop = "{{30.97, 144.041}, {151.928, 294.873}}";
imagePath = "../../../../Desktop/SPECIMEN/glyphset jpeg/Ptolemy_glyphset/h_bdc.png";
transform = "{3.89509, 0, 0, 3.89509, -157, -778}";
};
hints = (
{
place = "{31, 136}";
type = Stem;
},
{
place = "{87, 80}";
type = Stem;
},
{
place = "{429, 61}";
type = Stem;
},
{
horizontal = 1;
place = "{373, 86}";
type = Stem;
},
{
horizontal = 1;
place = "{-7, 21}";
target = up;
type = BottomGhost;
},
{
horizontal = 1;
place = "{750, -20}";
target = down;
type = TopGhost;
}
);
layerId = "85044A4B-EE95-4FAB-A779-99966E2F14DF";
name = "Feb 17 19, 13:47";
paths = (
{
closed = 1;
nodes = (
"159 26 OFFCURVE",
"96 9 OFFCURVE",
"31 -10 CURVE",
"24 24 LINE",
"83 44 LINE",
"83 679 LINE",
"21 658 LINE",
"10 693 LINE",
"68 712 OFFCURVE",
"121 733 OFFCURVE",
"163 750 CURVE",
"170 741 LINE",
"165 700 OFFCURVE",
"163 499 OFFCURVE",
"163 408 CURVE SMOOTH",
"163 364 LINE",
"300 460 LINE",
"420 460 OFFCURVE",
"509 367 OFFCURVE",
"509 267 CURVE SMOOTH",
"509 165 OFFCURVE",
"424 62 OFFCURVE",
"333 -20 CURVE",
"290 0 LINE",
"290 4 LINE",
"395 80 OFFCURVE",
"434 153 OFFCURVE",
"434 237 CURVE SMOOTH",
"434 327 OFFCURVE",
"362 390 OFFCURVE",
"282 390 CURVE SMOOTH",
"242 390 OFFCURVE",
"194 353 OFFCURVE",
"163 325 CURVE",
"163 65 LINE",
"213 79 LINE",
"220 41 LINE"
);
}
);
width = 534;
}
);
rightMetricsKey = o;
unicode = 0068;
},
{
color = 4;
glyphname = i;
lastChange = "2019-04-19 17:56:10 +0000";
layers = (
{
backgroundImage = {
crop = "{{39.64, 162.03}, {73.395, 248.988}}";
imagePath = "../../../../Desktop/SPECIMEN/glyphset jpeg/Ptolemy_glyphset/i_bdc.png";
locked = "1";
transform = "{3.6653, 0, 0, 3.6653, -131, -745}";
};
guideLines = (
{
angle = 214.992;
position = "{40, 368}";
}
);
layerId = UUID0;
paths = (
{
closed = 1;
nodes = (
"200 16 OFFCURVE",
"153 4 OFFCURVE",
"106 -10 CURVE",
"96 0 LINE",
"101 127 OFFCURVE",
"102 244 OFFCURVE",
"100 378 CURVE",
"53 363 LINE",
"39 399 LINE",
"85 420 OFFCURVE",
"128 439 OFFCURVE",
"171 460 CURVE",
"180 455 LINE",
"180 47 LINE",
"239 65 LINE",
"247 28 LINE"
);
},
{
closed = 1;
nodes = (
"107 601 LINE",
"107 600 LINE",
"166 600 LINE",
"226 699 LINE",
"226 700 LINE",
"160 700 LINE"
);
}
);
width = 262;
}
);
rightMetricsKey = n;
unicode = 0069;
},
{
color = 4;
glyphname = j;
lastChange = "2019-04-19 17:56:10 +0000";
layers = (
{
layerId = UUID0;
paths = (
{
closed = 1;
nodes = (
"105 460 LINE",
"170 449 OFFCURVE",
"207 408 OFFCURVE",
"200 345 CURVE SMOOTH",
"186 215 OFFCURVE",
"186 75 OFFCURVE",
"201 -65 CURVE SMOOTH",
"210 -149 OFFCURVE",
"116 -207 OFFCURVE",
"-29 -280 CURVE",
"-45 -249 LINE",
"71 -178 OFFCURVE",
"136 -137 OFFCURVE",
"124 -30 CURVE SMOOTH",
"110 90 OFFCURVE",
"107 210 OFFCURVE",
"122 330 CURVE SMOOTH",
"127 367 OFFCURVE",
"95 390 OFFCURVE",
"79 390 CURVE SMOOTH",
"58 390 OFFCURVE",
"25 361 OFFCURVE",
"9 350 CURVE",
"-11 379 LINE"
);
},
{
closed = 1;
nodes = (
"78 595 LINE",
"114 583 LINE",
"197 695 LINE",
"195 700 LINE",
"131 700 LINE"
);
}
);
width = 251;
}
);
unicode = 006A;
},
{
color = 4;
glyphname = k;
lastChange = "2019-04-19 17:56:10 +0000";
layers = (
{
layerId = UUID0;
paths = (
{
closed = 1;
nodes = (
"21 660 LINE",
"83 682 LINE",
"85 385 OFFCURVE",
"84 157 OFFCURVE",
"80 -5 CURVE",
"85 -10 LINE",
"130 3 OFFCURVE",
"175 16 OFFCURVE",
"220 26 CURVE",
"213 65 LINE",
"163 48 LINE",
"163 237 LINE",
"240 160 OFFCURVE",
"311 77 OFFCURVE",
"376 -10 CURVE",
"415 3 OFFCURVE",
"454 13 OFFCURVE",
"493 22 CURVE",
"480 62 LINE",
"430 44 LINE",
"364 124 OFFCURVE",
"292 204 OFFCURVE",
"227 270 CURVE",
"361 369 LINE SMOOTH",
"389 390 OFFCURVE",
"425 417 OFFCURVE",
"447 428 CURVE",
"447 450 LINE",
"400 449 OFFCURVE",
"353 449 OFFCURVE",
"306 450 CURVE",
"306 414 LINE",
"369 418 LINE",
"163 265 LINE",
"163 420 OFFCURVE",
"164 588 OFFCURVE",
"166 743 CURVE",
"161 749 LINE",
"111 730 OFFCURVE",
"63 713 OFFCURVE",
"10 696 CURVE"
);
}
);
width = 493;
},
{
associatedMasterId = UUID0;
hints = (
{
place = "{63, 81}";
type = Stem;
},
{
horizontal = 1;
place = "{415, 35}";
type = Stem;
},
{
horizontal = 1;
place = "{-3, 21}";
target = up;
type = BottomGhost;
},
{
horizontal = 1;
place = "{749, -20}";
target = down;
type = TopGhost;
}
);
layerId = "9B0D04BF-4437-4C03-9CBD-8FF7BC9CBF6D";
name = "Feb 14 19, 10:59";
paths = (
{
closed = 1;
nodes = (
"14 708 LINE",
"14 663 LINE",
"63 680 LINE",
"63 347 LINE",
"63 185 OFFCURVE",
"59 -3 OFFCURVE",
"59 -3 CURVE",
"195 40 LINE",
"195 85 LINE",
"144 70 LINE",
"144 230 LINE",
"205 177 OFFCURVE",
"266 83 OFFCURVE",
"327 0 CURVE",
"434 32 LINE",
"434 78 LINE",
"381 62 LINE",
"325 135 OFFCURVE",
"271 210 OFFCURVE",
"209 277 CURVE",
"381 415 LINE",
"390 415 LINE",
"390 450 LINE",
"267 450 LINE",
"267 415 LINE",
"320 415 LINE",
"144 275 LINE",
"144 749 LINE",
"14 708 LINE SMOOTH"
);
}
);
visible = 1;
width = 440;
}
);
unicode = 006B;
},
{
color = 4;
glyphname = l;
lastChange = "2019-04-19 17:56:10 +0000";
layers = (
{
layerId = UUID0;
paths = (
{
closed = 1;
nodes = (
"186 19 OFFCURVE",
"136 5 OFFCURVE",
"86 -10 CURVE",
"81 -5 LINE",
"86 48 OFFCURVE",
"90 271 OFFCURVE",
"90 416 CURVE SMOOTH",
"90 691 LINE",
"31 674 LINE",
"20 709 LINE",
"71 722 OFFCURVE",
"122 736 OFFCURVE",
"171 750 CURVE",
"176 745 LINE",
"166 513 OFFCURVE",
"166 241 OFFCURVE",
"170 49 CURVE",
"230 65 LINE",
"236 30 LINE"
);
}
);
width = 256;
},
{
associatedMasterId = UUID0;
hints = (
{
place = "{86, 80}";
type = Stem;
},
{
horizontal = 1;
place = "{750, -20}";
target = down;
type = TopGhost;
},
{
horizontal = 1;
place = "{-5, 21}";
target = up;
type = BottomGhost;
}
);
layerId = "CFACC6AA-C062-4506-8E75-8E486D5D1CA7";
name = "Feb 14 19, 11:00";
paths = (
{
closed = 1;
nodes = (
"81 -5 LINE",
"81 -5 OFFCURVE",
"86 208 OFFCURVE",
"86 416 CURVE",
"86 681 LINE",
"32 661 LINE",
"32 706 LINE",
"168 750 LINE",
"165 69 LINE",
"221 87 LINE",
"221 42 LINE"
);
}
);
width = 248;
}
);
unicode = 006C;
},
{
color = 4;
glyphname = m;
lastChange = "2019-04-19 17:56:10 +0000";
layers = (
{
layerId = UUID0;
paths = (
{
closed = 1;
nodes = (
"454 65 LINE",
"461 30 LINE",
"408 17 OFFCURVE",
"362 5 OFFCURVE",
"314 -10 CURVE",
"307 -5 LINE",
"312 102 OFFCURVE",
"315 204 OFFCURVE",
"315 321 CURVE SMOOTH",
"315 361 OFFCURVE",
"271 390 OFFCURVE",
"241 390 CURVE SMOOTH",
"225 390 OFFCURVE",
"172 339 OFFCURVE",
"149 316 CURVE",
"149 47 LINE",
"215 65 LINE",
"222 30 LINE",
"173 17 OFFCURVE",
"129 6 OFFCURVE",
"74 -10 CURVE",
"69 -5 LINE",
"69 364 LINE",
"36 341 LINE",
"20 376 LINE",
"54 395 OFFCURVE",
"100 429 OFFCURVE",
"140 460 CURVE",
"148 455 LINE",
"148 351 LINE",
"277 460 LINE",
"351 439 OFFCURVE",
"394 401 OFFCURVE",
"394 341 CURVE SMOOTH",
"394 49 LINE"
);
},
{
closed = 1;
nodes = (
"390 351 LINE",
"520 460 LINE",
"592 439 OFFCURVE",
"639 401 OFFCURVE",
"639 341 CURVE SMOOTH",
"639 49 LINE",
"699 65 LINE",
"706 30 LINE",
"653 17 OFFCURVE",
"607 5 OFFCURVE",
"559 -10 CURVE",
"554 -5 LINE",
"557 102 OFFCURVE",
"560 204 OFFCURVE",
"560 321 CURVE SMOOTH",
"560 361 OFFCURVE",
"518 390 OFFCURVE",
"488 390 CURVE SMOOTH",
"467 390 OFFCURVE",
"414 339 OFFCURVE",
"391 316 CURVE"
);
}
);
width = 721;
}
);
leftMetricsKey = n;
rightMetricsKey = n;
unicode = 006D;
},
{
color = 4;
glyphname = n;
lastChange = "2019-04-19 17:56:10 +0000";
layers = (
{
backgroundImage = {
crop = "{{14.674, 152.049}, {132.711, 222.139}}";
imagePath = "../../../../Desktop/SPECIMEN/glyphset jpeg/Ptolemy_glyphset/n_bdc.png";
locked = "1";
transform = "{3.80023, 0, 0, 3.80023, -64, -722}";
};
guideLines = (
{
angle = 214.992;
position = "{158, 371}";
}
);
layerId = UUID0;
paths = (
{
closed = 1;
nodes = (
"460 65 LINE",
"467 30 LINE",
"414 17 OFFCURVE",
"368 5 OFFCURVE",
"318 -10 CURVE",
"313 -5 LINE",
"318 102 OFFCURVE",
"321 208 OFFCURVE",
"321 315 CURVE SMOOTH",
"321 365 OFFCURVE",
"296 390 OFFCURVE",
"266 390 CURVE SMOOTH",
"232 390 OFFCURVE",
"182 359 OFFCURVE",
"159 336 CURVE",
"159 51 LINE",
"225 65 LINE",
"232 30 LINE",
"183 17 OFFCURVE",
"139 6 OFFCURVE",
"84 -10 CURVE",
"79 -5 LINE",
"79 363 LINE",
"36 334 LINE",
"20 369 LINE",
"64 398 OFFCURVE",
"110 429 OFFCURVE",
"150 460 CURVE",
"158 455 LINE",
"158 371 LINE",
"286 460 LINE",
"348 459 OFFCURVE",
"400 425 OFFCURVE",
"400 355 CURVE SMOOTH",
"400 54 LINE"
);
}
);
width = 482;
}
);
unicode = 006E;
},
{
color = 4;
glyphname = o;
lastChange = "2019-04-19 17:56:10 +0000";
layers = (
{
layerId = UUID0;
paths = (
{
closed = 1;
nodes = (
"239 -10 LINE",
"129 0 OFFCURVE",
"30 86 OFFCURVE",
"30 209 CURVE SMOOTH",
"30 319 OFFCURVE",
"122 410 OFFCURVE",
"239 460 CURVE",
"194 390 LINE",
"137 370 OFFCURVE",
"100 314 OFFCURVE",
"100 249 CURVE SMOOTH",
"100 149 OFFCURVE",
"184 65 OFFCURVE",
"284 65 CURVE"
);
},
{
closed = 1;
nodes = (
"239 460 LINE",
"349 450 OFFCURVE",
"448 364 OFFCURVE",
"448 241 CURVE SMOOTH",
"448 131 OFFCURVE",
"356 40 OFFCURVE",
"239 -10 CURVE",
"284 65 LINE",
"341 85 OFFCURVE",
"378 136 OFFCURVE",
"378 201 CURVE SMOOTH",
"378 301 OFFCURVE",
"294 390 OFFCURVE",
"194 390 CURVE"
);
}
);
width = 478;
},
{
associatedMasterId = UUID0;
hints = (
{
place = "{33, 62}";
type = Stem;
},
{
place = "{347, 71}";
type = Stem;
},
{
horizontal = 1;
place = "{462, -20}";
target = down;
type = TopGhost;
},
{
horizontal = 1;
place = "{-11, 21}";
target = up;
type = BottomGhost;
}
);
layerId = "7E7AFAE4-7DFB-434F-8CF5-0C99DAF1B0DB";
name = "Feb 14 19, 11:01";
paths = (
{
closed = 1;
nodes = (
"101 429 OFFCURVE",
"33 320 OFFCURVE",
"33 212 CURVE SMOOTH",
"33 109 OFFCURVE",
"106 10 OFFCURVE",
"221 -11 CURVE",
"338 9 OFFCURVE",
"418 102 OFFCURVE",
"418 231 CURVE SMOOTH",
"418 354 OFFCURVE",
"329 453 OFFCURVE",
"219 462 CURVE"
);
},
{
closed = 1;
nodes = (
"174 66 OFFCURVE",
"95 152 OFFCURVE",
"95 250 CURVE SMOOTH",
"95 328 OFFCURVE",
"145 383 OFFCURVE",
"203 386 CURVE",
"310 371 OFFCURVE",
"347 240 OFFCURVE",
"347 190 CURVE SMOOTH",
"347 115 OFFCURVE",
"306 68 OFFCURVE",
"249 66 CURVE"
);
}
);
width = 429;
},
{
associatedMasterId = UUID0;
hints = (
{
place = "{33, 62}";
type = Stem;
},
{
place = "{347, 71}";
type = Stem;
},
{
horizontal = 1;
place = "{462, -20}";
target = down;
type = TopGhost;
},
{
horizontal = 1;
place = "{-11, 21}";
target = up;
type = BottomGhost;
}
);
layerId = "800F8D20-ABF4-4EF6-8097-6DFA4DA73DF3";
name = "Mar 4 19, 10:57";
paths = (
{
closed = 1;
nodes = (
"127 370 OFFCURVE",
"100 324 OFFCURVE",
"100 259 CURVE SMOOTH",
"100 159 OFFCURVE",
"174 65 OFFCURVE",
"274 65 CURVE",
"331 85 OFFCURVE",
"358 126 OFFCURVE",
"358 191 CURVE SMOOTH",
"358 291 OFFCURVE",
"284 390 OFFCURVE",
"184 390 CURVE"
);
},
{
closed = 1;
nodes = (
"339 450 OFFCURVE",
"428 354 OFFCURVE",
"428 231 CURVE SMOOTH",
"428 121 OFFCURVE",
"346 35 OFFCURVE",
"229 -10 CURVE",
"119 0 OFFCURVE",
"30 96 OFFCURVE",
"30 219 CURVE SMOOTH",
"30 329 OFFCURVE",
"112 410 OFFCURVE",
"229 460 CURVE"
);
}
);
width = 458;
}
);
unicode = 006F;
},
{
color = 4;
glyphname = p;
lastChange = "2019-04-19 17:56:10 +0000";
layers = (
{
backgroundImage = {
crop = "{{0, 0}, {212, 550}}";
imagePath = "../../../../Desktop/SPECIMEN/glyphset jpeg/Ptolemy_glyphset/p_bdc.png";
locked = "1";
transform = "{3.6343, 0, 0, 3.6343, -146, -769}";
};
guideLines = (
{
angle = 214.992;
position = "{174, 482}";
}
);
layerId = UUID0;
paths = (
{
closed = 1;
nodes = (
"85 432 OFFCURVE",
"135 459 OFFCURVE",
"174 482 CURVE",
"188 475 LINE",
"184 447 OFFCURVE",
"181 407 OFFCURVE",
"181 375 CURVE",
"302 460 LINE",
"414 451 OFFCURVE",
"474 355 OFFCURVE",
"474 255 CURVE SMOOTH",
"474 140 OFFCURVE",
"346 50 OFFCURVE",
"298 31 CURVE SMOOTH",
"276 22 OFFCURVE",
"223 22 OFFCURVE",
"177 27 CURVE",
"177 -233 LINE",
"268 -229 LINE",
"268 -270 LINE",
"207 -270 OFFCURVE",
"152 -271 OFFCURVE",
"99 -275 CURVE",
"95 -270 LINE",
"97 -168 OFFCURVE",
"101 -68 OFFCURVE",
"101 29 CURVE",
"84 29 OFFCURVE",
"49 24 OFFCURVE",
"27 14 CURVE",
"20 31 LINE",
"79 94 LINE",
"101 94 LINE",
"101 397 LINE",
"39 367 LINE",
"27 403 LINE"
);
},
{
closed = 1;
nodes = (
"178 92 LINE",
"197 89 OFFCURVE",
"233 86 OFFCURVE",
"265 86 CURVE SMOOTH",
"347 86 OFFCURVE",
"404 140 OFFCURVE",
"404 215 CURVE SMOOTH",
"404 321 OFFCURVE",
"334 380 OFFCURVE",
"261 380 CURVE SMOOTH",
"226 380 OFFCURVE",
"195 356 OFFCURVE",
"182 343 CURVE"
);
}
);
width = 504;
}
);
leftMetricsKey = n;
unicode = 0070;
},
{
color = 4;
glyphname = q;
lastChange = "2019-04-19 17:56:10 +0000";
layers = (
{
backgroundImage = {
crop = "{{17.46, 93.445}, {110.438, 268.986}}";
imagePath = "../../../../Desktop/SPECIMEN/glyphset jpeg/Ptolemy_glyphset/q_bdc.png";
locked = "1";
transform = "{4.34702, 0, 0, 4.34702, -62, -750}";
};
layerId = UUID0;
paths = (
{
closed = 1;
nodes = (
"376 435 OFFCURVE",
"402 457 OFFCURVE",
"427 473 CURVE",
"438 464 LINE",
"413 391 OFFCURVE",
"412 278 OFFCURVE",
"412 107 CURVE SMOOTH",
"412 -224 LINE",
"459 -219 LINE",
"463 -257 LINE",
"391 -266 OFFCURVE",
"319 -277 OFFCURVE",
"247 -292 CURVE",
"240 -247 LINE",
"332 -233 LINE",
"332 87 LINE",
"228 -10 LINE",
"112 -10 OFFCURVE",
"30 86 OFFCURVE",
"30 201 CURVE SMOOTH",
"30 333 OFFCURVE",
"132 430 OFFCURVE",
"253 460 CURVE",
"305 448 OFFCURVE",
"334 434 OFFCURVE",
"361 413 CURVE"
);
},
{
closed = 1;
nodes = (
"139 390 OFFCURVE",
"90 331 OFFCURVE",
"90 241 CURVE SMOOTH",
"90 141 OFFCURVE",
"158 65 OFFCURVE",
"228 65 CURVE SMOOTH",
"270 65 OFFCURVE",
"320 106 OFFCURVE",
"331 143 CURVE",
"331 332 LINE",
"310 364 OFFCURVE",
"269 390 OFFCURVE",
"219 390 CURVE"
);
}
);
width = 468;
}
);
unicode = 0071;
},
{
color = 4;
glyphname = r;
lastChange = "2019-04-19 17:56:10 +0000";
layers = (
{
layerId = UUID0;
paths = (
{
closed = 1;
nodes = (
"182 17 OFFCURVE",
"130 3 OFFCURVE",
"86 -10 CURVE",
"81 -5 LINE",
"86 122 OFFCURVE",
"89 250 OFFCURVE",
"87 384 CURVE",
"37 364 LINE",
"25 399 LINE",
"70 418 OFFCURVE",
"113 438 OFFCURVE",
"156 460 CURVE",
"165 455 LINE",
"165 54 LINE",
"228 65 LINE",
"234 30 LINE"
);
},
{
closed = 1;
nodes = (
"190 385 OFFCURVE",
"227 427 OFFCURVE",
"256 460 CURVE",
"257 460 LINE",
"294 455 OFFCURVE",
"327 426 OFFCURVE",
"339 398 CURVE",
"282 336 LINE",
"280 336 LINE",
"264 359 OFFCURVE",
"246 372 OFFCURVE",
"221 372 CURVE SMOOTH",
"199 372 OFFCURVE",
"170 344 OFFCURVE",
"161 331 CURVE",
"149 352 LINE"
);
}
);
width = 349;
}
);
unicode = 0072;
},
{
color = 4;
glyphname = r_a;
lastChange = "2019-04-19 17:56:10 +0000";
layers = (
{
backgroundImage = {
crop = "{{30.381, 131.722}, {186.2, 210.816}}";
imagePath = "../../../../Desktop/SPECIMEN/glyphset jpeg/Ptolemy_glyphset/r_a.png";
locked = "1";
transform = "{3.65986, 0.06388, -0.06388, 3.65986, -92, -689}";
};
layerId = UUID0;
paths = (
{
closed = 1;
nodes = (
"332 376 OFFCURVE",
"439 460 OFFCURVE",
"478 460 CURVE SMOOTH",
"518 460 OFFCURVE",
"592 409 OFFCURVE",
"590 364 CURVE SMOOTH",
"587 304 OFFCURVE",
"588 177 OFFCURVE",
"588 115 CURVE SMOOTH",
"588 77 OFFCURVE",
"597 65 OFFCURVE",
"618 65 CURVE SMOOTH",
"629 65 OFFCURVE",
"639 72 OFFCURVE",
"648 79 CURVE",
"662 61 LINE",
"641 40 OFFCURVE",
"611 13 OFFCURVE",
"590 -10 CURVE",
"538 -10 OFFCURVE",
"515 3 OFFCURVE",
"508 64 CURVE",
"467 39 OFFCURVE",
"402 0 OFFCURVE",
"384 -10 CURVE",
"323 -10 OFFCURVE",
"292 52 OFFCURVE",
"292 105 CURVE SMOOTH",
"292 162 OFFCURVE",
"379 213 OFFCURVE",
"508 276 CURVE",
"508 331 LINE SMOOTH",
"508 361 OFFCURVE",
"463 390 OFFCURVE",
"441 390 CURVE SMOOTH",
"391 390 OFFCURVE",
"336 343 OFFCURVE",
"297 313 CURVE",
"292 339 LINE"
);
},
{
closed = 1;
nodes = (
"362 82 OFFCURVE",
"386 45 OFFCURVE",
"411 45 CURVE SMOOTH",
"435 45 OFFCURVE",
"484 76 OFFCURVE",
"508 95 CURVE",
"508 249 LINE",
"397 192 OFFCURVE",
"362 153 OFFCURVE",
"362 119 CURVE SMOOTH"
);
},
{
closed = 1;
nodes = (
"186 19 OFFCURVE",
"139 5 OFFCURVE",
"91 -10 CURVE",
"81 0 LINE",
"86 127 OFFCURVE",
"87 246 OFFCURVE",
"85 380 CURVE",
"44 365 LINE",
"25 399 LINE",
"70 419 OFFCURVE",
"113 440 OFFCURVE",
"156 460 CURVE",
"165 455 LINE",
"165 54 LINE",
"228 65 LINE",
"234 30 LINE"
);
},
{
closed = 1;
nodes = (
"184 397 OFFCURVE",
"228 429 OFFCURVE",
"271 460 CURVE",
"309 458 OFFCURVE",
"343 410 OFFCURVE",
"362 371 CURVE",
"297 313 LINE",
"294 313 LINE",
"286 346 OFFCURVE",
"270 382 OFFCURVE",
"239 382 CURVE SMOOTH",
"202 382 OFFCURVE",
"169 355 OFFCURVE",
"156 339 CURVE",
"144 362 LINE"
);
}
);
width = 664;
},
{
associatedMasterId = UUID0;
backgroundImage = {
crop = "{{30.381, 131.722}, {186.2, 210.816}}";
imagePath = "../../../../Desktop/SPECIMEN/glyphset jpeg/Ptolemy_glyphset/r_a.png";
locked = "1";
transform = "{3.71835, 0.0649, -0.0649, 3.71835, -94, -709}";
};
hints = (
{
place = "{63, 78}";
type = Stem;
},
{
place = "{432, 84}";
type = Stem;
},
{
horizontal = 1;
place = "{407, 65}";
type = Stem;
},
{
horizontal = 1;
place = "{1, 21}";
target = up;
type = BottomGhost;
},
{
horizontal = 1;
place = "{451, 21}";
target = up;
type = BottomGhost;
}
);
layerId = "DA8CDA1C-5BDC-44DC-B690-EC3E3DA7F8F5";
name = "Feb 15 19, 13:28";
paths = (
{
closed = 1;
nodes = (
"331 376 OFFCURVE",
"438 460 OFFCURVE",
"477 460 CURVE SMOOTH",
"537 460 OFFCURVE",
"602 404 OFFCURVE",
"599 349 CURVE SMOOTH",
"596 299 OFFCURVE",
"597 177 OFFCURVE",
"597 115 CURVE SMOOTH",
"597 77 OFFCURVE",
"606 65 OFFCURVE",
"627 65 CURVE SMOOTH",
"634 65 OFFCURVE",
"647 66 OFFCURVE",
"657 71 CURVE",
"668 55 LINE",
"649 31 OFFCURVE",
"629 10 OFFCURVE",
"604 -10 CURVE",
"562 -10 OFFCURVE",
"524 23 OFFCURVE",
"517 84 CURVE",
"478 41 OFFCURVE",
"413 0 OFFCURVE",
"395 -10 CURVE",
"324 -10 OFFCURVE",
"281 41 OFFCURVE",
"281 101 CURVE SMOOTH",
"281 175 OFFCURVE",
"383 224 OFFCURVE",
"517 279 CURVE",
"517 317 LINE SMOOTH",
"517 357 OFFCURVE",
"492 390 OFFCURVE",
"450 390 CURVE SMOOTH",
"390 390 OFFCURVE",
"335 343 OFFCURVE",
"304 316 CURVE",
"291 339 LINE"
);
},
{
closed = 1;
nodes = (
"356 92 OFFCURVE",
"371 65 OFFCURVE",
"412 65 CURVE SMOOTH",
"451 65 OFFCURVE",
"490 90 OFFCURVE",
"517 115 CURVE",
"517 252 LINE",
"421 208 OFFCURVE",
"356 173 OFFCURVE",
"356 125 CURVE SMOOTH"
);
},
{
closed = 1;
nodes = (
"90 -10 LINE",
"80 0 LINE",
"85 127 OFFCURVE",
"86 246 OFFCURVE",
"84 380 CURVE",
"43 365 LINE",
"24 399 LINE",
"155 460 LINE",
"164 455 LINE",
"164 54 LINE",
"227 65 LINE",
"233 30 LINE"
);
},
{
closed = 1;
nodes = (
"266 460 LINE",
"304 455 OFFCURVE",
"353 408 OFFCURVE",
"365 380 CURVE",
"304 316 LINE",
"288 339 OFFCURVE",
"256 382 OFFCURVE",
"223 382 CURVE SMOOTH",
"201 382 OFFCURVE",
"168 355 OFFCURVE",
"155 339 CURVE",
"143 362 LINE"
);
}
);
width = 610;
}
);
leftMetricsKey = r;
rightMetricsKey = a;
},
{
color = 4;
glyphname = r_o;
lastChange = "2019-04-19 17:56:10 +0000";
layers = (
{
backgroundImage = {
crop = "{{40.172, 135.835}, {162.679, 215.049}}";
imagePath = "../../../../Desktop/SPECIMEN/glyphset jpeg/Ptolemy_glyphset/r_o.png";
locked = "1";
transform = "{4.38925, 0, 0, 4.38925, -182, -760}";
};
layerId = UUID0;
paths = (
{
closed = 1;
nodes = (
"186 19 OFFCURVE",
"139 5 OFFCURVE",
"91 -10 CURVE",
"81 0 LINE",
"86 127 OFFCURVE",
"87 246 OFFCURVE",
"85 380 CURVE",
"44 365 LINE",
"25 399 LINE",
"71 419 OFFCURVE",
"114 440 OFFCURVE",
"156 460 CURVE",
"165 455 LINE",
"165 54 LINE",
"228 65 LINE",
"234 30 LINE"
);
},
{
closed = 1;
nodes = (
"187 387 OFFCURVE",
"234 425 OFFCURVE",
"280 460 CURVE",
"334 452 OFFCURVE",
"386 389 OFFCURVE",
"390 365 CURVE",
"335 306 LINE",
"328 335 OFFCURVE",
"293 380 OFFCURVE",
"253 380 CURVE SMOOTH",
"207 380 OFFCURVE",
"169 335 OFFCURVE",
"156 321 CURVE",
"144 349 LINE"
);
},
{
closed = 1;
nodes = (
"401 370 OFFCURVE",
"376 324 OFFCURVE",
"376 259 CURVE SMOOTH",
"376 159 OFFCURVE",
"446 65 OFFCURVE",
"544 65 CURVE",
"599 85 OFFCURVE",
"624 126 OFFCURVE",
"624 191 CURVE SMOOTH",
"624 291 OFFCURVE",
"554 390 OFFCURVE",
"456 390 CURVE"
);
},
{
closed = 1;
nodes = (
"607 450 OFFCURVE",
"694 354 OFFCURVE",
"694 231 CURVE SMOOTH",
"694 131 OFFCURVE",
"614 40 OFFCURVE",
"500 -10 CURVE",
"393 0 OFFCURVE",
"306 96 OFFCURVE",
"306 219 CURVE SMOOTH",
"306 319 OFFCURVE",
"386 410 OFFCURVE",
"500 460 CURVE"
);
}
);
width = 724;
}
);
leftMetricsKey = r;
rightMetricsKey = o;
},
{
color = 4;
glyphname = s;
lastChange = "2019-04-19 17:56:10 +0000";
layers = (
{
backgroundImage = {
crop = "{{40.568, 150.703}, {114.481, 219.68}}";
imagePath = "../../../../Desktop/SPECIMEN/glyphset jpeg/Ptolemy_glyphset/s_bdc.png";
locked = "1";
transform = "{3.88966, 0, 0, 3.88966, -167, -722}";
};
layerId = UUID0;
paths = (
{
closed = 1;
nodes = (
"30 121 LINE",
"113 148 LINE",
"141 83 OFFCURVE",
"181 35 OFFCURVE",
"245 35 CURVE SMOOTH",
"284 35 OFFCURVE",
"332 74 OFFCURVE",
"332 124 CURVE SMOOTH",
"332 170 OFFCURVE",
"309 190 OFFCURVE",
"198 199 CURVE SMOOTH",
"158 202 OFFCURVE",
"101 209 OFFCURVE",
"72 242 CURVE SMOOTH",
"52 265 OFFCURVE",
"43 298 OFFCURVE",
"43 328 CURVE SMOOTH",
"43 398 OFFCURVE",
"133 460 OFFCURVE",
"223 460 CURVE SMOOTH",
"298 460 OFFCURVE",
"350 427 OFFCURVE",
"385 387 CURVE",
"385 385 LINE",
"301 350 LINE",
"267 391 OFFCURVE",
"240 419 OFFCURVE",
"195 419 CURVE SMOOTH",
"149 419 OFFCURVE",
"113 389 OFFCURVE",
"113 349 CURVE SMOOTH",
"113 294 OFFCURVE",
"156 280 OFFCURVE",
"252 271 CURVE SMOOTH",
"311 266 OFFCURVE",
"345 258 OFFCURVE",
"366 240 CURVE SMOOTH",
"402 210 OFFCURVE",
"402 129 OFFCURVE",
"378 89 CURVE SMOOTH",
"345 32 OFFCURVE",
"270 -10 OFFCURVE",
"211 -10 CURVE SMOOTH",
"151 -10 OFFCURVE",
"88 20 OFFCURVE",
"30 119 CURVE"
);
}
);
width = 425;
},
{
associatedMasterId = UUID0;
hints = (
{
place = "{48, 63}";
type = Stem;
},
{
place = "{324, 68}";
type = Stem;
},
{
horizontal = 1;
place = "{-11, 57}";
type = Stem;
},
{
horizontal = 1;
place = "{413, 48}";
type = Stem;
}
);
layerId = "AC2A834D-0ACF-473F-B328-7358BDA08CF1";
name = "Feb 15 19, 11:35";
paths = (
{
closed = 1;
nodes = (
"107 148 LINE",
"145 75 OFFCURVE",
"189 35 OFFCURVE",
"243 35 CURVE SMOOTH",
"292 35 OFFCURVE",
"335 74 OFFCURVE",
"335 124 CURVE SMOOTH",
"335 170 OFFCURVE",
"299 188 OFFCURVE",
"188 195 CURVE SMOOTH",
"112 200 OFFCURVE",
"37 230 OFFCURVE",
"37 318 CURVE SMOOTH",
"37 408 OFFCURVE",
"133 460 OFFCURVE",
"243 460 CURVE SMOOTH",
"278 460 OFFCURVE",
"330 424 OFFCURVE",
"375 384 CURVE",
"375 382 LINE",
"305 346 LINE",
"276 381 OFFCURVE",
"214 419 OFFCURVE",
"183 419 CURVE SMOOTH",
"137 419 OFFCURVE",
"97 389 OFFCURVE",
"97 354 CURVE SMOOTH",
"97 294 OFFCURVE",
"147 277 OFFCURVE",
"293 265 CURVE SMOOTH",
"351 260 OFFCURVE",
"400 230 OFFCURVE",
"400 164 CURVE SMOOTH",
"400 84 OFFCURVE",
"309 -10 OFFCURVE",
"199 -10 CURVE SMOOTH",
"149 -10 OFFCURVE",
"86 15 OFFCURVE",
"30 104 CURVE"
);
}
);
width = 430;
},
{
associatedMasterId = UUID0;
backgroundImage = {
crop = "{{40.568, 150.703}, {114.481, 219.68}}";
imagePath = "../../../../Desktop/SPECIMEN/glyphset jpeg/Ptolemy_glyphset/s_bdc.png";
locked = "1";
transform = "{3.88966, 0, 0, 3.88966, -169, -722}";
};
hints = (
{
place = "{48, 63}";
type = Stem;
},
{
place = "{324, 68}";
type = Stem;
},
{
horizontal = 1;
place = "{-11, 57}";
type = Stem;
},
{
horizontal = 1;
place = "{413, 48}";
type = Stem;
}
);
layerId = "8287A97E-1BE7-4AFF-9012-6AFE350A6E60";
name = "Feb 15 19, 11:38";
paths = (
{
closed = 1;
nodes = (
"20 126 LINE",
"107 148 LINE",
"145 75 OFFCURVE",
"169 35 OFFCURVE",
"233 35 CURVE SMOOTH",
"282 35 OFFCURVE",
"330 74 OFFCURVE",
"330 124 CURVE SMOOTH",
"330 170 OFFCURVE",
"307 190 OFFCURVE",
"196 199 CURVE SMOOTH",
"120 205 OFFCURVE",
"41 230 OFFCURVE",
"41 318 CURVE SMOOTH",
"41 408 OFFCURVE",
"133 460 OFFCURVE",
"243 460 CURVE SMOOTH",
"288 460 OFFCURVE",
"348 427 OFFCURVE",
"383 387 CURVE",
"383 385 LINE",
"315 346 LINE",
"286 381 OFFCURVE",
"214 419 OFFCURVE",
"183 419 CURVE SMOOTH",
"137 419 OFFCURVE",
"111 389 OFFCURVE",
"111 354 CURVE SMOOTH",
"111 294 OFFCURVE",
"157 277 OFFCURVE",
"283 266 CURVE SMOOTH",
"361 260 OFFCURVE",
"400 230 OFFCURVE",
"400 164 CURVE SMOOTH",
"400 84 OFFCURVE",
"309 -10 OFFCURVE",
"199 -10 CURVE SMOOTH",
"149 -10 OFFCURVE",
"86 15 OFFCURVE",
"20 124 CURVE"
);
}
);
width = 430;
}
);
unicode = 0073;
},
{
color = 4;
glyphname = t;
lastChange = "2019-04-19 17:56:10 +0000";
layers = (
{
backgroundImage = {
crop = "{{0, 0}, {221, 751}}";
imagePath = "../../../../Desktop/SPECIMEN/glyphset jpeg/Ptolemy_glyphset/t_bdc.png";
locked = "1";
transform = "{2.39194, 0, 0, 2.39194, -105, -638}";
};
layerId = UUID0;
paths = (
{
closed = 1;
nodes = (
"262 36 OFFCURVE",
"216 -10 OFFCURVE",
"185 -10 CURVE SMOOTH",
"107 -10 OFFCURVE",
"68 40 OFFCURVE",
"68 140 CURVE SMOOTH",
"68 390 LINE",
"24 390 LINE",
"24 408 LINE",
"60 449 OFFCURVE",
"111 509 OFFCURVE",
"140 556 CURVE",
"158 548 LINE",
"149 450 LINE",
"285 450 LINE",
"275 390 LINE",
"148 390 LINE",
"148 178 LINE SMOOTH",
"148 88 OFFCURVE",
"152 65 OFFCURVE",
"210 65 CURVE SMOOTH",
"217 65 OFFCURVE",
"248 67 OFFCURVE",
"280 74 CURVE",
"284 68 LINE"
);
}
);
width = 295;
}
);
unicode = 0074;
},
{
color = 4;
glyphname = t_a;
lastChange = "2019-04-19 17:56:10 +0000";
layers = (
{
backgroundImage = {
crop = "{{0, 166.956}, {269.491, 300.987}}";
imagePath = "../../../../Desktop/SPECIMEN/glyphset jpeg/Ptolemy_glyphset/t_a.png";
locked = "1";
transform = "{2.88805, 0, 0, 2.88805, -84, -600}";
};
layerId = UUID0;
paths = (
{
closed = 1;
nodes = (
"175 -10 LINE",
"137 -10 OFFCURVE",
"68 20 OFFCURVE",
"68 70 CURVE SMOOTH",
"68 390 LINE",
"24 390 LINE",
"24 408 LINE",
"80 451 OFFCURVE",
"131 503 OFFCURVE",
"180 556 CURVE",
"197 544 LINE",
"151 450 LINE",
"315 450 LINE",
"305 390 LINE",
"148 390 LINE",
"148 128 LINE SMOOTH",
"148 88 OFFCURVE",
"182 65 OFFCURVE",
"210 65 CURVE SMOOTH",
"239 65 OFFCURVE",
"270 76 OFFCURVE",
"291 84 CURVE",
"299 69 LINE"
);
},
{
closed = 1;
nodes = (
"302 361 OFFCURVE",
"391 450 OFFCURVE",
"440 450 CURVE SMOOTH",
"490 450 OFFCURVE",
"589 394 OFFCURVE",
"587 339 CURVE SMOOTH",
"585 289 OFFCURVE",
"584 177 OFFCURVE",
"584 115 CURVE SMOOTH",
"584 77 OFFCURVE",
"596 65 OFFCURVE",
"617 65 CURVE SMOOTH",
"624 65 OFFCURVE",
"637 66 OFFCURVE",
"647 71 CURVE",
"658 55 LINE",
"639 29 OFFCURVE",
"591 4 OFFCURVE",
"559 -10 CURVE",
"527 -10 OFFCURVE",
"514 23 OFFCURVE",
"507 84 CURVE",
"468 47 OFFCURVE",
"385 0 OFFCURVE",
"362 -10 CURVE",
"322 15 OFFCURVE",
"282 51 OFFCURVE",
"282 111 CURVE SMOOTH",
"282 145 OFFCURVE",
"298 188 OFFCURVE",
"434 244 CURVE SMOOTH",
"507 274 LINE",
"507 307 LINE SMOOTH",
"507 347 OFFCURVE",
"462 382 OFFCURVE",
"415 382 CURVE SMOOTH",
"375 382 OFFCURVE",
"324 348 OFFCURVE",
"288 314 CURVE",
"273 334 LINE"
);
},
{
closed = 1;
nodes = (
"347 92 OFFCURVE",
"368 65 OFFCURVE",
"400 65 CURVE SMOOTH",
"449 65 OFFCURVE",
"492 97 OFFCURVE",
"507 114 CURVE",
"507 245 LINE",
"362 189 OFFCURVE",
"347 155 OFFCURVE",
"347 118 CURVE SMOOTH"
);
}
);
width = 660;
}
);
leftMetricsKey = t;
rightMetricsKey = a;
},
{
color = 4;
glyphname = t_i;
lastChange = "2019-04-19 17:56:10 +0000";
layers = (
{
backgroundImage = {
crop = "{{32.482, 149.158}, {126.476, 228.615}}";
imagePath = "../../../../Desktop/SPECIMEN/glyphset jpeg/Ptolemy_glyphset/t_i.png";
locked = "1";
transform = "{4.17776, 0, 0, 4.17776, -147, -802}";
};
layerId = UUID0;
paths = (
{
closed = 1;
nodes = (
"68 178 LINE",
"68 390 LINE",
"24 390 LINE",
"21 401 LINE",
"62 428 OFFCURVE",
"128 507 OFFCURVE",
"165 566 CURVE",
"188 556 LINE",
"152 450 LINE",
"397 450 LINE",
"375 390 LINE",
"148 390 LINE",
"148 178 LINE"
);
},
{
closed = 1;
nodes = (
"295 56 OFFCURVE",
"240 25 OFFCURVE",
"186 -10 CURVE",
"106 6 OFFCURVE",
"68 59 OFFCURVE",
"68 149 CURVE SMOOTH",
"68 390 LINE",
"148 390 LINE",
"148 158 LINE SMOOTH",
"148 93 OFFCURVE",
"198 75 OFFCURVE",
"229 75 CURVE SMOOTH",
"262 75 OFFCURVE",
"323 96 OFFCURVE",
"340 109 CURVE",
"349 84 LINE"
);
},
{
closed = 1;
nodes = (
"430 16 OFFCURVE",
"383 4 OFFCURVE",
"336 -10 CURVE",
"326 0 LINE",
"331 124 OFFCURVE",
"332 226 OFFCURVE",
"330 419 CURVE",
"401 460 LINE",
"410 455 LINE",
"410 47 LINE",
"469 65 LINE",
"477 28 LINE"
);
},
{
closed = 1;
nodes = (
"347 601 LINE",
"347 600 LINE",
"406 600 LINE",
"466 699 LINE",
"466 700 LINE",
"400 700 LINE"
);
}
);
width = 475;
}
);
},
{
color = 4;
glyphname = u;
lastChange = "2019-04-19 17:56:10 +0000";
layers = (
{
layerId = UUID0;
paths = (
{
closed = 1;
nodes = (
"184 -10 LINE",
"114 0 OFFCURVE",
"83 30 OFFCURVE",
"83 120 CURVE SMOOTH",
"83 390 LINE",
"163 390 LINE",
"163 158 LINE SMOOTH",
"163 75 OFFCURVE",
"196 65 OFFCURVE",
"227 65 CURVE SMOOTH",
"260 65 OFFCURVE",
"321 96 OFFCURVE",
"338 109 CURVE",
"347 84 LINE"
);
},
{
closed = 1;
nodes = (
"404 334 LINE",
"404 70 LINE",
"464 92 LINE",
"475 68 LINE",
"331 -10 LINE",
"324 -5 LINE",
"324 334 LINE",
"324 375 LINE",
"287 353 LINE",
"271 388 LINE",
"314 412 OFFCURVE",
"356 436 OFFCURVE",
"395 460 CURVE",
"404 455 LINE"
);
},
{
closed = 1;
nodes = (
"83 334 LINE",
"83 375 LINE",
"46 353 LINE",
"30 388 LINE",
"72 411 OFFCURVE",
"114 435 OFFCURVE",
"154 460 CURVE",
"163 455 LINE",
"163 334 LINE"
);
}
);
width = 477;
}
);
unicode = 0075;
},
{
color = 4;
glyphname = v;
lastChange = "2019-04-19 17:56:10 +0000";
layers = (
{
layerId = UUID0;
paths = (
{
closed = 1;
nodes = (
"248 -20 LINE",
"480 431 LINE",
"475 438 LINE",
"445 437 OFFCURVE",
"396 437 OFFCURVE",
"320 438 CURVE",
"320 390 LINE",
"406 392 LINE",
"275 105 LINE",
"148 455 LINE",
"139 459 LINE",
"107 434 OFFCURVE",
"64 404 OFFCURVE",
"10 367 CURVE",
"31 332 LINE",
"89 361 LINE",
"137 255 OFFCURVE",
"186 118 OFFCURVE",
"234 -20 CURVE"
);
}
);
width = 485;
}
);
unicode = 0076;
},
{
color = 4;
glyphname = w;
lastChange = "2019-04-19 17:56:10 +0000";
layers = (
{
layerId = UUID0;
paths = (
{
closed = 1;
nodes = (
"87 429 OFFCURVE",
"45 399 OFFCURVE",
"0 370 CURVE",
"22 333 LINE",
"76 372 LINE",
"206 94 LINE SMOOTH",
"220 64 OFFCURVE",
"238 20 OFFCURVE",
"252 -20 CURVE",
"262 -20 LINE",
"368 244 LINE",
"426 107 LINE SMOOTH",
"446 60 OFFCURVE",
"461 29 OFFCURVE",
"475 -20 CURVE",
"485 -20 LINE",
"550 134 OFFCURVE",
"665 402 OFFCURVE",
"699 446 CURVE",
"697 450 LINE",
"553 450 LINE",
"553 408 LINE",
"632 412 LINE",
"504 115 LINE",
"457 228 OFFCURVE",
"411 345 OFFCURVE",
"360 460 CURVE",
"358 460 LINE",
"319 430 OFFCURVE",
"278 402 OFFCURVE",
"235 374 CURVE",
"256 341 LINE",
"310 376 LINE",
"351 284 LINE",
"281 115 LINE",
"233 227 OFFCURVE",
"186 351 OFFCURVE",
"131 460 CURVE",
"128 460 LINE"
);
}
);
width = 694;
}
);
unicode = 0077;
},
{
color = 4;
glyphname = x;
lastChange = "2019-04-19 17:56:10 +0000";
layers = (
{
backgroundImage = {
crop = "{{48.357, 141.726}, {154.592, 235.42}}";
imagePath = "../../../../Desktop/SPECIMEN/glyphset jpeg/Ptolemy_glyphset/x_bdc.png";
locked = "1";
transform = "{3.58507, 0, 0, 3.58507, -208, -739}";
};
layerId = UUID0;
paths = (
{
closed = 1;
nodes = (
"9 358 LINE",
"24 413 OFFCURVE",
"67 460 OFFCURVE",
"119 460 CURVE SMOOTH",
"146 460 OFFCURVE",
"164 443 OFFCURVE",
"196 391 CURVE SMOOTH",
"238 323 LINE",
"339 460 LINE",
"380 460 OFFCURVE",
"399 442 OFFCURVE",
"430 442 CURVE SMOOTH",
"443 442 OFFCURVE",
"457 444 OFFCURVE",
"467 450 CURVE",
"470 447 LINE",
"448 416 OFFCURVE",
"432 392 OFFCURVE",
"419 360 CURVE",
"378 348 OFFCURVE",
"358 375 OFFCURVE",
"325 375 CURVE",
"255 285 LINE",
"327 164 LINE SMOOTH",
"360 108 OFFCURVE",
"392 65 OFFCURVE",
"417 65 CURVE SMOOTH",
"431 65 OFFCURVE",
"441 70 OFFCURVE",
"458 84 CURVE",
"474 65 LINE",
"448 28 OFFCURVE",
"390 -10 OFFCURVE",
"364 -10 CURVE SMOOTH",
"339 -10 OFFCURVE",
"322 4 OFFCURVE",
"308 32 CURVE SMOOTH",
"211 220 LINE",
"56 0 LINE",
"1 0 LINE",
"0 4 LINE",
"189 260 LINE",
"140 344 LINE SMOOTH",
"122 375 OFFCURVE",
"108 390 OFFCURVE",
"90 390 CURVE SMOOTH",
"63 390 OFFCURVE",
"41 368 OFFCURVE",
"28 349 CURVE"
);
}
);
width = 474;
},
{
associatedMasterId = UUID0;
backgroundImage = {
crop = "{{48.357, 141.726}, {154.592, 235.42}}";
imagePath = "../../../../Desktop/SPECIMEN/glyphset jpeg/Ptolemy_glyphset/x_bdc.png";
locked = "1";
transform = "{3.58507, 0, 0, 3.58507, -196, -739}";
};
layerId = "EE17F754-356C-436A-9F1E-6A8AA1D7823A";
name = "Feb 15 19, 11:55";
paths = (
{
closed = 1;
nodes = (
"13 365 LINE",
"30 397 OFFCURVE",
"77 460 OFFCURVE",
"131 460 CURVE SMOOTH",
"158 460 OFFCURVE",
"178 443 OFFCURVE",
"208 391 CURVE SMOOTH",
"247 322 LINE",
"350 460 LINE",
"385 459 OFFCURVE",
"401 450 OFFCURVE",
"428 450 CURVE SMOOTH",
"446 450 OFFCURVE",
"461 455 OFFCURVE",
"469 460 CURVE",
"480 447 LINE",
"413 360 LINE",
"381 363 OFFCURVE",
"352 370 OFFCURVE",
"337 378 CURVE",
"267 285 LINE",
"339 164 LINE SMOOTH",
"372 108 OFFCURVE",
"404 65 OFFCURVE",
"429 65 CURVE SMOOTH",
"443 65 OFFCURVE",
"451 71 OFFCURVE",
"468 85 CURVE",
"486 65 LINE",
"460 28 OFFCURVE",
"412 -10 OFFCURVE",
"372 -10 CURVE SMOOTH",
"341 -10 OFFCURVE",
"325 3 OFFCURVE",
"310 32 CURVE SMOOTH",
"212 217 LINE",
"58 -10 LINE",
"3 -10 LINE",
"0 -4 LINE",
"194 251 LINE",
"145 343 LINE SMOOTH",
"125 380 OFFCURVE",
"116 390 OFFCURVE",
"100 390 CURVE SMOOTH",
"77 390 OFFCURVE",
"53 370 OFFCURVE",
"34 347 CURVE"
);
}
);
width = 495;
}
);
unicode = 0078;
},
{
color = 4;
glyphname = y;
lastChange = "2019-04-19 17:56:10 +0000";
layers = (
{
layerId = UUID0;
paths = (
{
closed = 1;
nodes = (
"231 242 OFFCURVE",
"181 348 OFFCURVE",
"135 455 CURVE",
"125 460 LINE",
"93 432 OFFCURVE",
"46 401 OFFCURVE",
"0 371 CURVE",
"25 332 LINE",
"76 373 LINE",
"242 48 LINE",
"186 -63 LINE SMOOTH",
"140 -154 OFFCURVE",
"100 -233 OFFCURVE",
"48 -260 CURVE",
"48 -275 LINE",
"75 -272 OFFCURVE",
"117 -270 OFFCURVE",
"144 -270 CURVE",
"464 437 LINE",
"459 450 LINE",
"423 449 OFFCURVE",
"382 449 OFFCURVE",
"337 450 CURVE",
"337 414 LINE",
"408 407 LINE",
"283 135 LINE"
);
}
);
width = 454;
}
);
unicode = 0079;
},
{
color = 4;
glyphname = z;
lastChange = "2019-04-19 17:56:10 +0000";
layers = (
{
backgroundImage = {
crop = "{{56.772, 175.286}, {145.283, 284.09}}";
imagePath = "../../../../Desktop/SPECIMEN/glyphset jpeg/Ptolemy_glyphset/z_bdc.png";
locked = "1";
transform = "{3.35824, 0, 0, 3.35824, -205, -755}";
};
layerId = UUID0;
paths = (
{
closed = 1;
nodes = (
"431 434 LINE",
"151 109 LINE",
"218 109 OFFCURVE",
"313 65 OFFCURVE",
"354 65 CURVE SMOOTH",
"376 65 OFFCURVE",
"396 75 OFFCURVE",
"424 100 CURVE",
"441 86 LINE",
"411 50 OFFCURVE",
"373 -10 OFFCURVE",
"358 -10 CURVE SMOOTH",
"298 -10 OFFCURVE",
"180 35 OFFCURVE",
"125 35 CURVE SMOOTH",
"90 35 OFFCURVE",
"72 19 OFFCURVE",
"46 -10 CURVE",
"17 14 LINE",
"320 362 LINE",
"308 360 OFFCURVE",
"276 359 OFFCURVE",
"256 359 CURVE SMOOTH",
"185 359 OFFCURVE",
"136 390 OFFCURVE",
"105 390 CURVE SMOOTH",
"77 390 OFFCURVE",
"53 372 OFFCURVE",
"38 337 CURVE",
"15 345 LINE",
"33 402 OFFCURVE",
"62 460 OFFCURVE",
"105 460 CURVE SMOOTH",
"170 460 OFFCURVE",
"207 423 OFFCURVE",
"305 423 CURVE SMOOTH",
"341 423 OFFCURVE",
"378 434 OFFCURVE",
"404 455 CURVE"
);
}
);
width = 451;
}
);
unicode = 007A;
},
{
color = 4;
glyphname = z.ss01;
lastChange = "2019-04-24 09:15:39 +0000";
layers = (
{
backgroundImage = {
crop = "{{26.359, 119.054}, {150.173, 255.056}}";
imagePath = "../../../../Desktop/SPECIMEN/glyphset jpeg/Ptolemy_glyphset/z_alt.png";
locked = "1";
transform = "{3.77119, 0, 0, 3.77119, -120, -796}";
};
layerId = UUID0;
paths = (
{
closed = 1;
nodes = (
"517 434 LINE",
"193 163 LINE",
"209 167 OFFCURVE",
"234 170 OFFCURVE",
"255 170 CURVE SMOOTH",
"372 170 OFFCURVE",
"460 110 OFFCURVE",
"460 0 CURVE SMOOTH",
"460 -106 OFFCURVE",
"368 -188 OFFCURVE",
"273 -188 CURVE SMOOTH",
"227 -188 OFFCURVE",
"193 -173 OFFCURVE",
"172 -125 CURVE",
"231 -89 LINE",
"243 -127 OFFCURVE",
"261 -144 OFFCURVE",
"297 -144 CURVE SMOOTH",
"365 -144 OFFCURVE",
"405 -84 OFFCURVE",
"405 -27 CURVE SMOOTH",
"405 74 OFFCURVE",
"313 107 OFFCURVE",
"231 107 CURVE SMOOTH",
"193 107 OFFCURVE",
"148 101 OFFCURVE",
"118 91 CURVE",
"51 44 LINE",
"30 69 LINE",
"348 332 LINE",
"296 342 OFFCURVE",
"197 387 OFFCURVE",
"152 387 CURVE SMOOTH",
"113 387 OFFCURVE",
"95 365 OFFCURVE",
"73 324 CURVE",
"57 329 LINE",
"57 383 OFFCURVE",
"126 460 OFFCURVE",
"171 460 CURVE SMOOTH",
"235 460 OFFCURVE",
"322 404 OFFCURVE",
"426 404 CURVE",
"492 460 LINE"
);
}
);
width = 527;
}
);
},
{
color = 6;
glyphname = zero;
lastChange = "2019-04-19 17:56:10 +0000";
layers = (
{
backgroundImage = {
crop = "{{30.92, 105.295}, {78.153, 129.069}}";
imagePath = "../../../../Desktop/SPECIMEN/glyphset jpeg/Ptolemy_glyphset/0.png";
locked = "1";
transform = "{7.36331, 0, 0, 7.36331, -267, -971}";
};
layerId = UUID0;
paths = (
{
closed = 1;
nodes = (
"139 420 OFFCURVE",
"40 320 OFFCURVE",
"40 204 CURVE SMOOTH",
"40 78 OFFCURVE",
"130 -10 OFFCURVE",
"252 -10 CURVE SMOOTH",
"363 -10 OFFCURVE",
"480 80 OFFCURVE",
"480 206 CURVE SMOOTH",
"480 336 OFFCURVE",
"380 420 OFFCURVE",
"268 420 CURVE SMOOTH"
);
},
{
closed = 1;
nodes = (
"170 41 OFFCURVE",
"100 108 OFFCURVE",
"100 206 CURVE SMOOTH",
"100 304 OFFCURVE",
"164 371 OFFCURVE",
"255 371 CURVE SMOOTH",
"342 371 OFFCURVE",
"413 299 OFFCURVE",
"413 204 CURVE SMOOTH",
"413 106 OFFCURVE",
"350 41 OFFCURVE",
"257 41 CURVE SMOOTH"
);
}
);
width = 520;
},
{
associatedMasterId = UUID0;
backgroundImage = {
crop = "{{30.92, 105.295}, {78.153, 129.069}}";
imagePath = "../../../../Desktop/SPECIMEN/glyphset jpeg/Ptolemy_glyphset/0.png";
locked = "1";
transform = "{7.89949, 0, 0, 7.89949, -280, -1027}";
};
hints = (
{
place = "{45, 61}";
type = Stem;
},
{
place = "{456, 71}";
type = Stem;
},
{
horizontal = 1;
place = "{-14, 78}";
type = Stem;
},
{
horizontal = 1;
place = "{388, 74}";
type = Stem;
}
);
layerId = "8989AD1E-551D-4034-856D-0A4F7D2E76C7";
name = "Feb 16 19, 15:58";
paths = (
{
closed = 1;
nodes = (
"168 462 OFFCURVE",
"55 354 OFFCURVE",
"55 214 CURVE SMOOTH",
"55 71 OFFCURVE",
"162 -10 OFFCURVE",
"272 -10 CURVE SMOOTH",
"399 -10 OFFCURVE",
"516 98 OFFCURVE",
"516 238 CURVE SMOOTH",
"516 373 OFFCURVE",
"421 462 OFFCURVE",
"299 462 CURVE SMOOTH"
);
},
{
closed = 1;
nodes = (
"174 42 OFFCURVE",
"115 128 OFFCURVE",
"115 230 CURVE SMOOTH",
"115 325 OFFCURVE",
"180 412 OFFCURVE",
"279 412 CURVE SMOOTH",
"370 412 OFFCURVE",
"456 348 OFFCURVE",
"456 222 CURVE SMOOTH",
"456 124 OFFCURVE",
"382 42 OFFCURVE",
"282 42 CURVE SMOOTH"
);
}
);
width = 548;
},
{
associatedMasterId = UUID0;
backgroundImage = {
crop = "{{30.92, 105.295}, {78.153, 129.069}}";
imagePath = "../../../../Desktop/SPECIMEN/glyphset jpeg/Ptolemy_glyphset/0.png";
locked = "1";
transform = "{7.89949, 0, 0, 7.89949, -280, -1027}";
};
hints = (
{
place = "{45, 61}";
type = Stem;
},
{
place = "{456, 71}";
type = Stem;
},
{
horizontal = 1;
place = "{-14, 78}";
type = Stem;
},
{
horizontal = 1;
place = "{388, 74}";
type = Stem;
}
);
layerId = "EDCF51B5-0639-46D5-BA3F-C044E39C9DBC";
name = "Feb 17 19, 11:56";
paths = (
{
closed = 1;
nodes = (
"172 462 OFFCURVE",
"55 364 OFFCURVE",
"55 214 CURVE SMOOTH",
"55 71 OFFCURVE",
"166 -10 OFFCURVE",
"276 -10 CURVE SMOOTH",
"397 -10 OFFCURVE",
"514 88 OFFCURVE",
"514 238 CURVE SMOOTH",
"514 381 OFFCURVE",
"403 462 OFFCURVE",
"293 462 CURVE SMOOTH"
);
},
{
closed = 1;
nodes = (
"178 42 OFFCURVE",
"115 128 OFFCURVE",
"115 230 CURVE SMOOTH",
"115 325 OFFCURVE",
"174 412 OFFCURVE",
"283 412 CURVE SMOOTH",
"391 412 OFFCURVE",
"454 324 OFFCURVE",
"454 222 CURVE SMOOTH",
"454 127 OFFCURVE",
"395 42 OFFCURVE",
"286 42 CURVE SMOOTH"
);
}
);
width = 548;
}
);
unicode = 0030;
},
{
color = 6;
glyphname = one;
lastChange = "2019-04-19 17:56:10 +0000";
layers = (
{
backgroundImage = {
crop = "{{0, 0}, {88.888, 162.034}}";
imagePath = "../../../../Desktop/SPECIMEN/glyphset jpeg/Ptolemy_glyphset/125.png";
locked = "1";
transform = "{9.21709, 0, 0, 9.21709, -512, -886}";
};
layerId = UUID0;
paths = (
{
closed = 1;
nodes = (
"208 17 OFFCURVE",
"168 4 OFFCURVE",
"121 -10 CURVE",
"111 0 LINE",
"116 127 OFFCURVE",
"117 222 OFFCURVE",
"115 356 CURVE",
"55 348 LINE",
"50 385 LINE",
"97 396 OFFCURVE",
"139 405 OFFCURVE",
"186 420 CURVE",
"191 415 LINE",
"187 292 OFFCURVE",
"183 170 OFFCURVE",
"184 47 CURVE",
"247 65 LINE",
"255 28 LINE"
);
}
);
width = 295;
},
{
associatedMasterId = UUID0;
hints = (
{
place = "{127, 80}";
type = Stem;
},
{
horizontal = 1;
place = "{-5, 21}";
target = up;
type = BottomGhost;
},
{
horizontal = 1;
place = "{466, -20}";
target = down;
type = TopGhost;
}
);
layerId = "FBA66E94-05E5-41E5-B201-CBCB5A0E8EAF";
name = "Feb 15 19, 13:53";
paths = (
{
closed = 1;
nodes = (
"46 405 LINE",
"46 360 LINE",
"127 386 LINE",
"127 -5 LINE",
"289 34 LINE",
"289 79 LINE",
"207 63 LINE",
"207 466 LINE",
"46 406 LINE"
);
}
);
width = 332;
}
);
unicode = 0031;
},
{
color = 6;
glyphname = two;
lastChange = "2019-04-19 17:56:10 +0000";
layers = (
{
backgroundImage = {
crop = "{{88.555, 77.005}, {61.209, 77.748}}";
imagePath = "../../../../Desktop/SPECIMEN/glyphset jpeg/Ptolemy_glyphset/125.png";
locked = "1";
transform = "{9.38557, 0, 0, 9.38557, -871, -906}";
};
layerId = UUID0;
paths = (
{
closed = 1;
nodes = (
"30 311 LINE",
"113 374 LINE SMOOTH",
"154 405 OFFCURVE",
"184 420 OFFCURVE",
"218 420 CURVE SMOOTH",
"288 420 OFFCURVE",
"347 366 OFFCURVE",
"347 293 CURVE SMOOTH",
"347 263 OFFCURVE",
"335 222 OFFCURVE",
"282 180 CURVE SMOOTH",
"130 59 LINE",
"390 59 LINE SMOOTH",
"449 59 OFFCURVE",
"476 88 OFFCURVE",
"508 121 CURVE",
"516 115 LINE",
"434 0 LINE",
"34 0 LINE",
"30 10 LINE",
"208 161 LINE SMOOTH",
"262 206 OFFCURVE",
"282 232 OFFCURVE",
"282 270 CURVE SMOOTH",
"282 322 OFFCURVE",
"236 359 OFFCURVE",
"184 359 CURVE SMOOTH",
"151 359 OFFCURVE",
"125 351 OFFCURVE",
"94 329 CURVE SMOOTH",
"42 293 LINE"
);
}
);
width = 516;
}
);
unicode = 0032;
},
{
color = 6;
glyphname = three;
lastChange = "2019-04-19 17:56:10 +0000";
layers = (
{
backgroundImage = {
crop = "{{0, 0}, {167, 313}}";
imagePath = "../../../../Desktop/SPECIMEN/glyphset jpeg/Ptolemy_glyphset/3.png";
locked = "1";
transform = "{7.11278, 0, 0, 7.11278, -417, -889}";
};
layerId = UUID0;
paths = (
{
closed = 1;
nodes = (
"182 108 LINE",
"247 92 OFFCURVE",
"300 54 OFFCURVE",
"300 -2 CURVE SMOOTH",
"300 -101 OFFCURVE",
"165 -239 OFFCURVE",
"88 -239 CURVE SMOOTH",
"33 -239 OFFCURVE",
"32 -209 OFFCURVE",
"6 -209 CURVE SMOOTH",
"-10 -209 OFFCURVE",
"-20 -218 OFFCURVE",
"-20 -231 CURVE SMOOTH",
"-20 -265 OFFCURVE",
"29 -280 OFFCURVE",
"57 -280 CURVE SMOOTH",
"200 -280 OFFCURVE",
"374 -69 OFFCURVE",
"374 22 CURVE SMOOTH",
"374 92 OFFCURVE",
"302 129 OFFCURVE",
"238 158 CURVE"
);
},
{
closed = 1;
nodes = (
"285 169 LINE SMOOTH",
"334 206 OFFCURVE",
"369 250 OFFCURVE",
"369 301 CURVE SMOOTH",
"369 354 OFFCURVE",
"309 422 OFFCURVE",
"248 422 CURVE SMOOTH",
"212 422 OFFCURVE",
"99 369 OFFCURVE",
"42 344 CURVE",
"51 320 LINE",
"94 337 OFFCURVE",
"158 362 OFFCURVE",
"206 362 CURVE SMOOTH",
"254 362 OFFCURVE",
"294 325 OFFCURVE",
"294 273 CURVE SMOOTH",
"294 228 OFFCURVE",
"269 189 OFFCURVE",
"215 156 CURVE SMOOTH",
"47 53 LINE",
"62 29 LINE",
"219 120 LINE"
);
}
);
width = 424;
}
);
unicode = 0033;
},
{
color = 6;
glyphname = four;
lastChange = "2019-04-19 17:56:10 +0000";
layers = (
{
backgroundImage = {
crop = "{{259.867, 45.766}, {68.446, 108.593}}";
imagePath = "../../../../Desktop/SPECIMEN/glyphset jpeg/Ptolemy_glyphset/1614.png";
locked = "1";
transform = "{9.13329, 0, 0, 9.13329, -2425, -799}";
};
layerId = UUID0;
paths = (
{
closed = 1;
nodes = (
"364 410 LINE",
"364 55 LINE",
"426 55 OFFCURVE",
"462 68 OFFCURVE",
"502 99 CURVE",
"507 94 LINE",
"459 0 LINE",
"365 0 LINE",
"365 -265 LINE",
"308 -280 LINE",
"306 -279 LINE",
"306 0 LINE",
"0 0 LINE",
"0 48 LINE",
"359 415 LINE"
);
},
{
closed = 1;
nodes = (
"304 299 LINE",
"60 55 LINE",
"304 55 LINE"
);
}
);
width = 527;
}
);
unicode = 0034;
},
{
color = 6;
glyphname = five;
lastChange = "2019-04-19 17:56:10 +0000";
layers = (
{
backgroundImage = {
crop = "{{150.872, 46.487}, {46.465, 114.759}}";
imagePath = "../../../../Desktop/SPECIMEN/glyphset jpeg/Ptolemy_glyphset/125.png";
locked = "1";
transform = "{9.63062, 0, 0, 9.63062, -1455, -942}";
};
layerId = UUID0;
paths = (
{
closed = 1;
nodes = (
"83 46 LINE",
"155 97 OFFCURVE",
"197 117 OFFCURVE",
"234 117 CURVE SMOOTH",
"277 117 OFFCURVE",
"305 92 OFFCURVE",
"305 29 CURVE SMOOTH",
"305 -96 OFFCURVE",
"161 -240 OFFCURVE",
"99 -240 CURVE SMOOTH",
"61 -240 OFFCURVE",
"52 -209 OFFCURVE",
"27 -209 CURVE SMOOTH",
"10 -209 OFFCURVE",
"0 -218 OFFCURVE",
"0 -235 CURVE SMOOTH",
"0 -265 OFFCURVE",
"36 -280 OFFCURVE",
"70 -280 CURVE SMOOTH",
"213 -280 OFFCURVE",
"376 -49 OFFCURVE",
"376 65 CURVE SMOOTH",
"376 139 OFFCURVE",
"331 167 OFFCURVE",
"280 167 CURVE SMOOTH",
"227 167 OFFCURVE",
"156 139 OFFCURVE",
"84 87 CURVE"
);
},
{
closed = 1;
nodes = (
"72 53 LINE",
"83 46 LINE",
"132 97 LINE",
"132 361 LINE",
"72 353 LINE"
);
},
{
closed = 1;
nodes = (
"88 296 LINE",
"299 372 LINE",
"315 338 LINE",
"334 345 LINE",
"331 395 OFFCURVE",
"332 424 OFFCURVE",
"334 452 CURVE",
"328 459 LINE",
"72 353 LINE"
);
}
);
width = 426;
},
{
associatedMasterId = UUID0;
hints = (
{
place = "{60, 77}";
type = Stem;
},
{
place = "{314, 44}";
type = Stem;
},
{
place = "{314, 88}";
type = Stem;
},
{
horizontal = 1;
place = "{-341, 39}";
type = Stem;
},
{
horizontal = 1;
place = "{-255, -20}";
target = down;
type = TopGhost;
},
{
horizontal = 1;
place = "{464, -20}";
target = down;
type = TopGhost;
}
);
layerId = "2CD9E202-89C9-4048-BFE5-90B4C9EF8079";
name = "Feb 15 19, 15:02";
paths = (
{
closed = 1;
nodes = (
"60 348 LINE",
"60 -1 LINE",
"71 6 OFFCURVE",
"87 18 OFFCURVE",
"99 26 CURVE SMOOTH",
"145 58 OFFCURVE",
"195 94 OFFCURVE",
"237 94 CURVE SMOOTH",
"279 94 OFFCURVE",
"313 73 OFFCURVE",
"314 -7 CURVE",
"320 -171 OFFCURVE",
"161 -302 OFFCURVE",
"61 -302 CURVE SMOOTH",
"38 -302 OFFCURVE",
"23 -288 OFFCURVE",
"12 -275 CURVE SMOOTH",
"4 -265 OFFCURVE",
"-6 -255 OFFCURVE",
"-18 -255 CURVE SMOOTH",
"-46 -255 OFFCURVE",
"-62 -275 OFFCURVE",
"-62 -293 CURVE SMOOTH",
"-62 -328 OFFCURVE",
"-1 -341 OFFCURVE",
"27 -341 CURVE SMOOTH",
"195 -341 OFFCURVE",
"387 -171 OFFCURVE",
"402 17 CURVE",
"401 102 OFFCURVE",
"360 170 OFFCURVE",
"287 159 CURVE SMOOTH",
"230 150 OFFCURVE",
"185 127 OFFCURVE",
"144 106 CURVE",
"137 103 LINE",
"137 304 LINE",
"135 304 LINE",
"315 371 LINE",
"315 319 LINE",
"358 333 LINE",
"358 464 LINE"
);
}
);
width = 437;
}
);
unicode = 0035;
},
{
color = 6;
glyphname = six;
lastChange = "2019-04-19 17:56:10 +0000";
layers = (
{
backgroundImage = {
crop = "{{127.792, 68.919}, {61.729, 111.328}}";
imagePath = "../../../../Desktop/SPECIMEN/glyphset jpeg/Ptolemy_glyphset/126.png";
locked = "1";
transform = "{9.09767, 0, 0, 9.09767, -1156, -841}";
};
layerId = UUID0;
paths = (
{
closed = 1;
nodes = (
"117 264 LINE",
"130 306 OFFCURVE",
"173 346 OFFCURVE",
"223 346 CURVE SMOOTH",
"300 346 OFFCURVE",
"361 274 OFFCURVE",
"361 185 CURVE SMOOTH",
"361 111 OFFCURVE",
"338 55 OFFCURVE",
"273 55 CURVE SMOOTH",
"196 55 OFFCURVE",
"122 138 OFFCURVE",
"122 262 CURVE SMOOTH",
"122 417 OFFCURVE",
"242 547 OFFCURVE",
"430 649 CURVE",
"430 652 LINE",
"402 675 LINE",
"176 558 OFFCURVE",
"50 378 OFFCURVE",
"50 225 CURVE SMOOTH",
"50 101 OFFCURVE",
"145 -10 OFFCURVE",
"240 -10 CURVE SMOOTH",
"314 -10 OFFCURVE",
"431 111 OFFCURVE",
"431 223 CURVE SMOOTH",
"431 326 OFFCURVE",
"354 398 OFFCURVE",
"264 408 CURVE",
"108 332 LINE"
);
}
);
width = 481;
},
{
associatedMasterId = UUID0;
backgroundImage = {
crop = "{{127.792, 68.919}, {61.729, 111.328}}";
imagePath = "../../../../Desktop/SPECIMEN/glyphset jpeg/Ptolemy_glyphset/126.png";
locked = "1";
transform = "{9.09767, 0, 0, 9.09767, -1153, -846}";
};
hints = (
{
place = "{41, 84}";
type = Stem;
},
{
place = "{394, 86}";
type = Stem;
},
{
horizontal = 1;
place = "{-8, 84}";
type = Stem;
},
{
horizontal = 1;
place = "{385, 76}";
type = Stem;
},
{
horizontal = 1;
place = "{745, -20}";
target = down;
type = TopGhost;
}
);
layerId = "E7B64451-2B54-4610-B8C4-43FBD0BA92A8";
name = "Feb 15 19, 15:18";
paths = (
{
closed = 1;
nodes = (
"152 395 LINE",
"189 541 OFFCURVE",
"366 658 OFFCURVE",
"497 711 CURVE",
"446 745 LINE",
"238 665 OFFCURVE",
"41 468 OFFCURVE",
"41 235 CURVE SMOOTH",
"41 131 OFFCURVE",
"141 -8 OFFCURVE",
"252 -8 CURVE SMOOTH",
"344 -8 OFFCURVE",
"480 161 OFFCURVE",
"480 254 CURVE SMOOTH",
"480 346 OFFCURVE",
"400 458 OFFCURVE",
"302 461 CURVE"
);
},
{
closed = 1;
nodes = (
"394 149 OFFCURVE",
"349 76 OFFCURVE",
"280 76 CURVE SMOOTH",
"202 76 OFFCURVE",
"125 179 OFFCURVE",
"125 252 CURVE SMOOTH",
"125 281 OFFCURVE",
"127 314 OFFCURVE",
"141 339 CURVE",
"171 361 OFFCURVE",
"228 385 OFFCURVE",
"267 385 CURVE SMOOTH",
"354 385 OFFCURVE",
"394 272 OFFCURVE",
"394 203 CURVE SMOOTH"
);
}
);
width = 544;
}
);
unicode = 0036;
},
{
color = 6;
glyphname = seven;
lastChange = "2019-04-19 17:56:10 +0000";
layers = (
{
backgroundImage = {
crop = "{{199.56, 129.982}, {106.215, 147.425}}";
imagePath = "../../../../Desktop/SPECIMEN/glyphset jpeg/Ptolemy_glyphset/127.png";
locked = "1";
transform = "{6.81397, 0, 0, 6.81397, -1421, -1286}";
};
layerId = UUID0;
paths = (
{
closed = 1;
nodes = (
"474 366 OFFCURVE",
"439 365 OFFCURVE",
"403 365 CURVE SMOOTH",
"59 365 LINE",
"22 268 LINE",
"31 263 LINE",
"46 282 OFFCURVE",
"81 305 OFFCURVE",
"182 305 CURVE SMOOTH",
"425 305 LINE",
"27 -72 LINE",
"40 -137 LINE",
"46 -140 LINE",
"423 248 LINE SMOOTH",
"450 275 OFFCURVE",
"490 315 OFFCURVE",
"517 330 CURVE",
"510 370 LINE"
);
}
);
width = 537;
},
{
associatedMasterId = UUID0;
backgroundImage = {
crop = "{{199.56, 129.982}, {106.215, 147.425}}";
imagePath = "../../../../Desktop/SPECIMEN/glyphset jpeg/Ptolemy_glyphset/127.png";
locked = "1";
transform = "{6.81397, 0, 0, 6.81397, -1374, -1286}";
};
hints = (
{
horizontal = 1;
place = "{380, 70}";
type = Stem;
},
{
horizontal = 1;
place = "{-216, 21}";
target = up;
type = BottomGhost;
}
);
layerId = "9F50BF5E-3B62-45E6-BBF2-EE2489A2FC99";
name = "Feb 15 19, 18:47";
paths = (
{
closed = 1;
nodes = (
"57 450 LINE",
"7 349 LINE",
"25 313 LINE",
"25 313 OFFCURVE",
"46 381 OFFCURVE",
"119 380 CURVE",
"459 380 LINE",
"481 379 OFFCURVE",
"494 373 OFFCURVE",
"463 342 CURVE SMOOTH",
"451 330 OFFCURVE",
"55 -101 OFFCURVE",
"55 -101 CURVE",
"55 -216 LINE",
"55 -216 OFFCURVE",
"627 397 OFFCURVE",
"627 397 CURVE",
"595 450 LINE"
);
}
);
width = 638;
}
);
unicode = 0037;
},
{
color = 6;
glyphname = eight;
lastChange = "2019-04-19 17:56:10 +0000";
layers = (
{
backgroundImage = {
crop = "{{175.127, 118.89}, {98.698, 124.844}}";
imagePath = "../../../../Desktop/SPECIMEN/glyphset jpeg/Ptolemy_glyphset/128.png";
locked = "1";
transform = "{6.74871, 0, 0, 6.74871, -1253, -912}";
};
layerId = UUID0;
paths = (
{
closed = 1;
nodes = (
"473 235 OFFCURVE",
"409 293 OFFCURVE",
"317 342 CURVE",
"386 386 OFFCURVE",
"457 432 OFFCURVE",
"457 498 CURVE SMOOTH",
"457 589 OFFCURVE",
"354 635 OFFCURVE",
"262 635 CURVE SMOOTH",
"169 635 OFFCURVE",
"61 588 OFFCURVE",
"61 492 CURVE SMOOTH",
"61 419 OFFCURVE",
"141 355 OFFCURVE",
"216 326 CURVE",
"108 279 OFFCURVE",
"50 226 OFFCURVE",
"50 155 CURVE SMOOTH",
"50 51 OFFCURVE",
"133 -10 OFFCURVE",
"262 -10 CURVE SMOOTH",
"375 -10 OFFCURVE",
"473 60 OFFCURVE",
"473 155 CURVE SMOOTH"
);
},
{
closed = 1;
nodes = (
"345 600 OFFCURVE",
"392 558 OFFCURVE",
"392 495 CURVE SMOOTH",
"392 440 OFFCURVE",
"337 391 OFFCURVE",
"285 360 CURVE",
"214 396 OFFCURVE",
"125 444 OFFCURVE",
"125 520 CURVE SMOOTH",
"125 577 OFFCURVE",
"190 600 OFFCURVE",
"252 600 CURVE SMOOTH"
);
},
{
closed = 1;
nodes = (
"179 24 OFFCURVE",
"120 77 OFFCURVE",
"120 155 CURVE SMOOTH",
"120 209 OFFCURVE",
"149 248 OFFCURVE",
"255 306 CURVE",
"348 250 OFFCURVE",
"403 216 OFFCURVE",
"403 135 CURVE SMOOTH",
"403 60 OFFCURVE",
"329 24 OFFCURVE",
"262 24 CURVE SMOOTH"
);
}
);
width = 523;
},
{
associatedMasterId = UUID0;
hints = (
{
place = "{42, 79}";
type = Stem;
},
{
place = "{62, 76}";
type = Stem;
},
{
place = "{441, 77}";
type = Stem;
},
{
place = "{459, 59}";
type = Stem;
},
{
place = "{459, 85}";
type = Stem;
},
{
horizontal = 1;
place = "{-9, 40}";
type = Stem;
},
{
horizontal = 1;
place = "{699, 40}";
type = Stem;
}
);
layerId = "343B638B-DC96-4DF3-934D-F33E79678218";
name = "Feb 15 19, 18:50";
paths = (
{
closed = 1;
nodes = (
"544 310 OFFCURVE",
"472 355 OFFCURVE",
"361 410 CURVE",
"441 450 OFFCURVE",
"518 481 OFFCURVE",
"518 569 CURVE SMOOTH",
"518 686 OFFCURVE",
"393 739 OFFCURVE",
"286 739 CURVE SMOOTH",
"178 739 OFFCURVE",
"62 685 OFFCURVE",
"62 569 CURVE SMOOTH",
"62 477 OFFCURVE",
"123 413 OFFCURVE",
"210 380 CURVE",
"108 329 OFFCURVE",
"42 300 OFFCURVE",
"42 183 CURVE SMOOTH",
"42 62 OFFCURVE",
"171 -9 OFFCURVE",
"286 -9 CURVE SMOOTH",
"405 -9 OFFCURVE",
"544 61 OFFCURVE",
"544 183 CURVE SMOOTH"
);
},
{
closed = 1;
nodes = (
"382 699 OFFCURVE",
"441 650 OFFCURVE",
"441 589 CURVE SMOOTH",
"441 513 OFFCURVE",
"383 464 OFFCURVE",
"318 431 CURVE",
"240 469 OFFCURVE",
"138 500 OFFCURVE",
"138 599 CURVE SMOOTH",
"138 677 OFFCURVE",
"214 699 OFFCURVE",
"286 699 CURVE SMOOTH"
);
},
{
closed = 1;
nodes = (
"201 31 OFFCURVE",
"121 92 OFFCURVE",
"121 183 CURVE SMOOTH",
"121 245 OFFCURVE",
"140 294 OFFCURVE",
"262 361 CURVE",
"370 320 OFFCURVE",
"459 276 OFFCURVE",
"459 183 CURVE SMOOTH",
"459 72 OFFCURVE",
"364 31 OFFCURVE",
"286 31 CURVE SMOOTH"
);
}
);
width = 602;
}
);
unicode = 0038;
},
{
color = 6;
glyphname = nine;
lastChange = "2019-04-19 17:56:10 +0000";
layers = (
{
backgroundImage = {
crop = "{{57.663, 115.722}, {134.864, 222.859}}";
imagePath = "../../../../Desktop/SPECIMEN/glyphset jpeg/Ptolemy_glyphset/9.png";
locked = "1";
transform = "{4.33485, 0, 0, 4.33485, -281, -893}";
};
layerId = UUID0;
paths = (
{
closed = 1;
nodes = (
"119 368 OFFCURVE",
"51 280 OFFCURVE",
"51 186 CURVE SMOOTH",
"51 89 OFFCURVE",
"114 1 OFFCURVE",
"216 -10 CURVE",
"354 121 LINE",
"354 -47 OFFCURVE",
"196 -218 OFFCURVE",
"76 -218 CURVE SMOOTH",
"45 -218 OFFCURVE",
"30 -229 OFFCURVE",
"30 -250 CURVE SMOOTH",
"30 -266 OFFCURVE",
"44 -280 OFFCURVE",
"67 -280 CURVE SMOOTH",
"166 -280 OFFCURVE",
"421 -49 OFFCURVE",
"421 162 CURVE SMOOTH",
"421 281 OFFCURVE",
"335 398 OFFCURVE",
"238 420 CURVE"
);
},
{
closed = 1;
nodes = (
"155 65 OFFCURVE",
"116 137 OFFCURVE",
"116 216 CURVE SMOOTH",
"116 264 OFFCURVE",
"133 326 OFFCURVE",
"186 363 CURVE",
"255 353 OFFCURVE",
"353 278 OFFCURVE",
"353 156 CURVE",
"329 122 OFFCURVE",
"267 65 OFFCURVE",
"223 65 CURVE SMOOTH"
);
}
);
width = 471;
},
{
associatedMasterId = UUID0;
hints = (
{
place = "{382, 89}";
type = Stem;
},
{
place = "{46, 86}";
type = Stem;
},
{
horizontal = 1;
place = "{-295, 43}";
type = Stem;
},
{
horizontal = 1;
place = "{11, 67}";
type = Stem;
},
{
horizontal = 1;
place = "{391, 70}";
type = Stem;
},
{
horizontal = 1;
place = "{-210, -20}";
target = down;
type = TopGhost;
},
{
horizontal = 1;
place = "{-289, -20}";
target = down;
type = TopGhost;
},
{
horizontal = 1;
place = "{-163, -20}";
target = down;
type = TopGhost;
}
);
layerId = "D031CA59-E506-4F29-B9AB-BB46DBE14EEF";
name = "Feb 16 19, 16:06";
paths = (
{
closed = 1;
nodes = (
"128 -252 LINE",
"101 -251 OFFCURVE",
"88 -239 OFFCURVE",
"76 -227 CURVE SMOOTH",
"66 -217 OFFCURVE",
"58 -210 OFFCURVE",
"46 -210 CURVE SMOOTH",
"29 -209 OFFCURVE",
"5 -222 OFFCURVE",
"4 -241 CURVE SMOOTH",
"3 -276 OFFCURVE",
"62 -294 OFFCURVE",
"91 -295 CURVE SMOOTH",
"119 -296 OFFCURVE",
"149 -290 OFFCURVE",
"182 -279 CURVE",
"131 -252 LINE"
);
},
{
closed = 1;
nodes = (
"201 461 OFFCURVE",
"47 320 OFFCURVE",
"46 216 CURVE SMOOTH",
"45 119 OFFCURVE",
"130 13 OFFCURVE",
"220 11 CURVE",
"361 76 LINE",
"353 34 LINE",
"344 -17 OFFCURVE",
"333 -79 OFFCURVE",
"294 -138 CURVE SMOOTH",
"239 -221 OFFCURVE",
"182 -252 OFFCURVE",
"129 -252 CURVE",
"84 -281 OFFCURVE",
"97 -289 OFFCURVE",
"122 -289 CURVE SMOOTH",
"143 -289 OFFCURVE",
"172 -283 OFFCURVE",
"177 -281 CURVE SMOOTH",
"249 -254 OFFCURVE",
"304 -227 OFFCURVE",
"358 -163 CURVE",
"357 -163 LINE",
"417 -99 OFFCURVE",
"471 87 OFFCURVE",
"471 252 CURVE SMOOTH",
"471 361 OFFCURVE",
"355 461 OFFCURVE",
"268 461 CURVE SMOOTH"
);
},
{
closed = 1;
nodes = (
"206 78 OFFCURVE",
"130 147 OFFCURVE",
"132 266 CURVE SMOOTH",
"133 344 OFFCURVE",
"208 390 OFFCURVE",
"242 391 CURVE SMOOTH",
"301 392 OFFCURVE",
"382 301 OFFCURVE",
"382 215 CURVE SMOOTH",
"382 130 OFFCURVE",
"315 78 OFFCURVE",
"254 78 CURVE SMOOTH"
);
}
);
width = 533;
}
);
unicode = 0039;
},
{
color = 10;
glyphname = ampersand;
lastChange = "2019-04-19 17:56:10 +0000";
layers = (
{
backgroundImage = {
crop = "{{55.591, 144.092}, {200.106, 211.958}}";
imagePath = "../../../../Desktop/SPECIMEN/glyphset jpeg/Ptolemy_glyphset/ampersand.png";
locked = "1";
transform = "{3.87023, 0, 0, 3.87023, -210, -695}";
};
layerId = UUID0;
paths = (
{
closed = 1;
nodes = (
"577 353 OFFCURVE",
"599 334 OFFCURVE",
"621 334 CURVE SMOOTH",
"650 334 OFFCURVE",
"720 446 OFFCURVE",
"738 502 CURVE",
"707 516 LINE",
"689 472 OFFCURVE",
"669 434 OFFCURVE",
"643 434 CURVE SMOOTH",
"627 434 OFFCURVE",
"606 450 OFFCURVE",
"597 468 CURVE",
"589 468 LINE",
"417 230 LINE",
"381 280 OFFCURVE",
"344 313 OFFCURVE",
"300 330 CURVE",
"336 351 OFFCURVE",
"376 393 OFFCURVE",
"376 431 CURVE SMOOTH",
"376 491 OFFCURVE",
"312 524 OFFCURVE",
"240 524 CURVE SMOOTH",
"167 524 OFFCURVE",
"88 480 OFFCURVE",
"88 408 CURVE SMOOTH",
"88 373 OFFCURVE",
"106 341 OFFCURVE",
"164 319 CURVE",
"100 289 OFFCURVE",
"30 236 OFFCURVE",
"30 148 CURVE SMOOTH",
"30 54 OFFCURVE",
"100 -10 OFFCURVE",
"184 -10 CURVE SMOOTH",
"277 -10 OFFCURVE",
"359 91 OFFCURVE",
"393 140 CURVE",
"441 60 OFFCURVE",
"486 -10 OFFCURVE",
"544 -10 CURVE SMOOTH",
"594 -10 OFFCURVE",
"666 66 OFFCURVE",
"692 105 CURVE",
"670 125 LINE",
"632 78 OFFCURVE",
"595 76 OFFCURVE",
"575 76 CURVE SMOOTH",
"518 76 OFFCURVE",
"478 128 OFFCURVE",
"439 198 CURVE",
"563 367 LINE"
);
},
{
closed = 1;
nodes = (
"148 458 OFFCURVE",
"185 484 OFFCURVE",
"234 484 CURVE SMOOTH",
"282 484 OFFCURVE",
"316 458 OFFCURVE",
"316 418 CURVE SMOOTH",
"316 368 OFFCURVE",
"270 338 OFFCURVE",
"250 338 CURVE SMOOTH",
"190 338 OFFCURVE",
"148 378 OFFCURVE",
"148 418 CURVE SMOOTH"
);
},
{
closed = 1;
nodes = (
"318 105 OFFCURVE",
"273 65 OFFCURVE",
"213 65 CURVE SMOOTH",
"138 65 OFFCURVE",
"105 117 OFFCURVE",
"105 173 CURVE SMOOTH",
"105 237 OFFCURVE",
"149 296 OFFCURVE",
"217 296 CURVE SMOOTH",
"268 296 OFFCURVE",
"331 245 OFFCURVE",
"373 175 CURVE"
);
}
);
width = 738;
},
{
associatedMasterId = UUID0;
hints = (
{
place = "{54, 94}";
type = Stem;
},
{
place = "{116, 32}";
type = Stem;
},
{
place = "{378, 55}";
type = Stem;
},
{
place = "{116, 68}";
type = Stem;
},
{
horizontal = 1;
place = "{-6, 91}";
type = Stem;
},
{
horizontal = 1;
place = "{337, 48}";
type = Stem;
},
{
horizontal = 1;
place = "{380, 108}";
type = Stem;
},
{
horizontal = 1;
place = "{553, 35}";
type = Stem;
},
{
horizontal = 1;
place = "{380, 145}";
type = Stem;
},
{
horizontal = 1;
place = "{-6, 108}";
type = Stem;
}
);
layerId = "166DA440-EAA7-41FE-8685-807B40C62FAF";
name = "Feb 14 19, 11:14";
paths = (
{
closed = 1;
nodes = (
"658 409 LINE",
"667 404 OFFCURVE",
"711 380 OFFCURVE",
"720 380 CURVE SMOOTH",
"765 380 OFFCURVE",
"851 531 OFFCURVE",
"851 561 CURVE",
"822 579 LINE",
"790 531 OFFCURVE",
"783 488 OFFCURVE",
"754 488 CURVE SMOOTH",
"728 488 OFFCURVE",
"697 525 OFFCURVE",
"679 525 CURVE SMOOTH",
"663 525 OFFCURVE",
"531 310 OFFCURVE",
"483 268 CURVE",
"463 291 OFFCURVE",
"415 352 OFFCURVE",
"368 363 CURVE",
"401 388 OFFCURVE",
"433 431 OFFCURVE",
"433 474 CURVE SMOOTH",
"433 560 OFFCURVE",
"349 588 OFFCURVE",
"277 588 CURVE SMOOTH",
"193 588 OFFCURVE",
"116 550 OFFCURVE",
"116 456 CURVE SMOOTH",
"116 420 OFFCURVE",
"153 373 OFFCURVE",
"186 359 CURVE",
"107 329 OFFCURVE",
"54 255 OFFCURVE",
"54 171 CURVE SMOOTH",
"54 69 OFFCURVE",
"134 -6 OFFCURVE",
"235 -6 CURVE SMOOTH",
"325 -6 OFFCURVE",
"394 89 OFFCURVE",
"451 151 CURVE",
"483 104 OFFCURVE",
"558 0 OFFCURVE",
"621 0 CURVE SMOOTH",
"675 0 OFFCURVE",
"750 96 OFFCURVE",
"778 138 CURVE",
"778 139 LINE",
"784 152 LINE",
"784 162 OFFCURVE",
"776 170 OFFCURVE",
"766 170 CURVE",
"754 165 LINE",
"729 132 OFFCURVE",
"687 102 OFFCURVE",
"644 102 CURVE SMOOTH",
"584 102 OFFCURVE",
"541 167 OFFCURVE",
"517 215 CURVE",
"658 409 LINE"
);
},
{
closed = 1;
nodes = (
"184 524 OFFCURVE",
"224 553 OFFCURVE",
"276 553 CURVE SMOOTH",
"323 553 OFFCURVE",
"378 522 OFFCURVE",
"378 469 CURVE SMOOTH",
"378 420 OFFCURVE",
"319 385 OFFCURVE",
"275 385 CURVE SMOOTH",
"225 385 OFFCURVE",
"184 416 OFFCURVE",
"184 469 CURVE SMOOTH"
);
},
{
closed = 1;
nodes = (
"387 155 LINE SMOOTH",
"352 118 OFFCURVE",
"305 85 OFFCURVE",
"252 85 CURVE SMOOTH",
"192 85 OFFCURVE",
"148 141 OFFCURVE",
"148 198 CURVE SMOOTH",
"148 283 OFFCURVE",
"186 337 OFFCURVE",
"271 337 CURVE SMOOTH",
"324 337 OFFCURVE",
"392 270 OFFCURVE",
"425 199 CURVE",
"413 183 OFFCURVE",
"401 168 OFFCURVE",
"386 154 CURVE"
);
}
);
width = 873;
}
);
unicode = 0026;
},
{
color = 10;
glyphname = parenleft;
lastChange = "2019-04-19 17:56:10 +0000";
layers = (
{
backgroundImage = {
crop = "{{32.68, 80.725}, {57.651, 213.277}}";
imagePath = "../../../../Desktop/SPECIMEN/glyphset jpeg/Ptolemy_glyphset/parenthèse gauche$.png";
locked = "1";
transform = "{5.9854, 0, 0, 5.9854, -203, -890}";
};
layerId = UUID0;
paths = (
{
closed = 1;
nodes = (
"271 732 LINE",
"191 608 OFFCURVE",
"125 429 OFFCURVE",
"125 239 CURVE SMOOTH",
"125 79 OFFCURVE",
"172 -95 OFFCURVE",
"271 -258 CURVE",
"243 -280 LINE",
"158 -159 OFFCURVE",
"58 19 OFFCURVE",
"58 239 CURVE SMOOTH",
"58 443 OFFCURVE",
"154 638 OFFCURVE",
"244 751 CURVE"
);
}
);
width = 321;
}
);
unicode = 0028;
},
{
color = 10;
glyphname = period;
lastChange = "2019-04-19 17:56:10 +0000";
layers = (
{
layerId = UUID0;
paths = (
{
closed = 1;
nodes = (
"55 79 OFFCURVE",
"81 99 OFFCURVE",
"93 141 CURVE",
"103 141 LINE",
"103 -23 LINE",
"93 -23 LINE",
"83 14 OFFCURVE",
"55 42 OFFCURVE",
"20 54 CURVE",
"20 64 LINE"
);
},
{
closed = 1;
nodes = (
"176 54 LINE",
"141 42 OFFCURVE",
"113 14 OFFCURVE",
"103 -23 CURVE",
"93 -23 LINE",
"93 141 LINE",
"103 141 LINE",
"115 99 OFFCURVE",
"141 79 OFFCURVE",
"176 64 CURVE"
);
}
);
width = 196;
}
);
unicode = 002E;
},
{
color = 10;
glyphname = colon;
lastChange = "2019-04-19 17:56:10 +0000";
layers = (
{
components = (
{
name = period;
},
{
name = period;
transform = "{1, 0, 0, 1, 0, 320}";
}
);
layerId = UUID0;
width = 196;
},
{
associatedMasterId = UUID0;
hints = (
{
place = "{58, 150}";
type = Stem;
},
{
horizontal = 1;
place = "{-14, 165}";
type = Stem;
},
{
horizontal = 1;
place = "{300, 165}";
type = Stem;
}
);
layerId = "D09CB328-04FE-4F02-B8EE-6C5C2D420F25";
name = "Feb 14 19, 11:17";
paths = (
{
closed = 1;
nodes = (
"118 429 OFFCURVE",
"119 465 OFFCURVE",
"134 465 CURVE SMOOTH",
"153 465 OFFCURVE",
"156 427 OFFCURVE",
"167 415 CURVE SMOOTH",
"180 400 OFFCURVE",
"208 404 OFFCURVE",
"208 385 CURVE SMOOTH",
"208 367 OFFCURVE",
"177 370 OFFCURVE",
"163 351 CURVE SMOOTH",
"151 333 OFFCURVE",
"147 300 OFFCURVE",
"133 300 CURVE SMOOTH",
"118 300 OFFCURVE",
"109 341 OFFCURVE",
"103 349 CURVE SMOOTH",
"91 367 OFFCURVE",
"58 367 OFFCURVE",
"58 384 CURVE SMOOTH",
"58 403 OFFCURVE",
"88 399 OFFCURVE",
"102 415 CURVE"
);
},
{
closed = 1;
nodes = (
"118 115 OFFCURVE",
"119 151 OFFCURVE",
"134 151 CURVE SMOOTH",
"153 151 OFFCURVE",
"156 113 OFFCURVE",
"167 101 CURVE SMOOTH",
"180 86 OFFCURVE",
"208 90 OFFCURVE",
"208 71 CURVE SMOOTH",
"208 53 OFFCURVE",
"177 56 OFFCURVE",
"163 37 CURVE SMOOTH",
"151 19 OFFCURVE",
"147 -14 OFFCURVE",
"133 -14 CURVE SMOOTH",
"118 -14 OFFCURVE",
"109 27 OFFCURVE",
"103 35 CURVE SMOOTH",
"91 53 OFFCURVE",
"58 53 OFFCURVE",
"58 70 CURVE SMOOTH",
"58 89 OFFCURVE",
"88 85 OFFCURVE",
"102 101 CURVE"
);
}
);
visible = 1;
width = 252;
}
);
unicode = 003A;
},
{
color = 10;
glyphname = comma;
lastChange = "2019-04-19 17:56:10 +0000";
layers = (
{
layerId = UUID0;
paths = (
{
closed = 1;
nodes = (
"92 141 LINE",
"83 106 OFFCURVE",
"47 76 OFFCURVE",
"19 64 CURVE",
"19 54 LINE",
"59 35 OFFCURVE",
"75 -2 OFFCURVE",
"75 -43 CURVE SMOOTH",
"75 -74 OFFCURVE",
"61 -117 OFFCURVE",
"27 -147 CURVE",
"40 -166 LINE",
"95 -138 OFFCURVE",
"136 -81 OFFCURVE",
"136 -24 CURVE SMOOTH",
"136 12 OFFCURVE",
"135 29 OFFCURVE",
"178 54 CURVE",
"178 64 LINE",
"148 75 OFFCURVE",
"113 107 OFFCURVE",
"102 141 CURVE"
);
}
);
width = 196;
}
);
widthMetricsKey = period;
unicode = 002C;
},
{
color = 10;
glyphname = question;
lastChange = "2019-04-19 17:56:10 +0000";
layers = (
{
components = (
{
name = period;
transform = "{1, 0, 0, 1, 23, 0}";
}
);
layerId = UUID0;
paths = (
{
closed = 1;
nodes = (
"30 710 LINE",
"186 710 OFFCURVE",
"277 632 OFFCURVE",
"277 522 CURVE SMOOTH",
"277 426 OFFCURVE",
"203 366 OFFCURVE",
"147 325 CURVE",
"146 277 OFFCURVE",
"150 245 OFFCURVE",
"157 197 CURVE",
"87 197 LINE",
"87 351 LINE",
"140 377 OFFCURVE",
"207 424 OFFCURVE",
"207 504 CURVE SMOOTH",
"207 582 OFFCURVE",
"137 606 OFFCURVE",
"59 597 CURVE"
);
}
);
width = 287;
}
);
unicode = 003F;
},
{
color = 10;
glyphname = exclam;
lastChange = "2019-04-19 17:56:10 +0000";
layers = (
{
backgroundImage = {
crop = "{{33.302, 131.417}, {69.617, 233.738}}";
imagePath = "../../../../Desktop/SPECIMEN/glyphset jpeg/Ptolemy_glyphset/exclam.png";
locked = "1";
transform = "{3.88214, 0, 0, 3.88214, -153, -650}";
};
components = (
{
name = period;
transform = "{1, 0, 0, 1, 10, 0}";
}
);
layerId = UUID0;
paths = (
{
closed = 1;
nodes = (
"90 204 LINE",
"48 657 LINE",
"82 678 OFFCURVE",
"120 695 OFFCURVE",
"160 710 CURVE",
"163 709 LINE",
"126 209 LINE"
);
}
);
width = 219;
}
);
unicode = 0021;
},
{
color = 10;
glyphname = hyphen;
lastChange = "2019-04-19 17:56:10 +0000";
layers = (
{
backgroundImage = {
crop = "{{75.997, 158.946}, {84.071, 226.787}}";
imagePath = "../../../../Desktop/SPECIMEN/glyphset jpeg/Ptolemy_glyphset/césure.png";
locked = "1";
transform = "{3.73123, 0, 0, 3.73123, -300, -800}";
};
layerId = UUID0;
paths = (
{
closed = 1;
nodes = (
"20 184 LINE",
"258 332 LINE",
"261 331 LINE",
"266 242 LINE",
"26 105 LINE",
"24 106 LINE"
);
}
);
width = 286;
}
);
unicode = 002D;
},
{
color = 10;
glyphname = quotesingle;
lastChange = "2019-04-19 17:56:10 +0000";
layers = (
{
layerId = UUID0;
paths = (
{
closed = 1;
nodes = (
"92 710 LINE",
"80 674 OFFCURVE",
"51 648 OFFCURVE",
"19 633 CURVE",
"19 623 LINE",
"55 608 OFFCURVE",
"75 577 OFFCURVE",
"75 531 CURVE SMOOTH",
"75 495 OFFCURVE",
"61 452 OFFCURVE",
"27 422 CURVE",
"40 403 LINE",
"95 431 OFFCURVE",
"136 488 OFFCURVE",
"136 545 CURVE SMOOTH",
"136 581 OFFCURVE",
"135 600 OFFCURVE",
"178 623 CURVE",
"178 633 LINE",
"143 647 OFFCURVE",
"111 679 OFFCURVE",
"102 710 CURVE"
);
}
);
width = 196;
}
);
leftMetricsKey = comma;
rightMetricsKey = comma;
unicode = 0027;
},
{
color = 10;
glyphname = paragraph;
lastChange = "2019-04-19 17:56:10 +0000";
layers = (
{
backgroundImage = {
crop = "{{0, 0}, {359, 661}}";
imagePath = "../../../../Desktop/SPECIMEN/glyphset jpeg/Ptolemy_glyphset/section.png";
locked = "1";
transform = "{3.21796, 0, 0, 3.21796, -279, -772}";
};
layerId = UUID0;
paths = (
{
closed = 1;
nodes = (
"632 653 LINE",
"626 428 OFFCURVE",
"626 203 OFFCURVE",
"630 -22 CURVE SMOOTH",
"632 -136 OFFCURVE",
"643 -221 OFFCURVE",
"664 -270 CURVE",
"601 -280 LINE",
"573 -236 OFFCURVE",
"564 -159 OFFCURVE",
"564 -105 CURVE",
"431 -105 LINE SMOOTH",
"211 -105 OFFCURVE",
"50 61 OFFCURVE",
"50 301 CURVE SMOOTH",
"50 541 OFFCURVE",
"259 700 OFFCURVE",
"479 700 CURVE SMOOTH",
"689 700 LINE",
"689 655 LINE"
);
},
{
closed = 1;
nodes = (
"525 -60 LINE",
"570 -60 LINE",
"570 650 LINE",
"525 650 LINE"
);
},
{
closed = 1;
nodes = (
"285 645 OFFCURVE",
"230 551 OFFCURVE",
"230 301 CURVE SMOOTH",
"230 51 OFFCURVE",
"285 -56 OFFCURVE",
"465 -56 CURVE",
"467 178 OFFCURVE",
"467 411 OFFCURVE",
"465 645 CURVE"
);
}
);
width = 769;
}
);
unicode = 00B6;
},
